<svg width="40" height="40" viewBox="0 0 40 40" fill="none" xmlns="http://www.w3.org/2000/svg">
<mask id="mask0_152_3096" style="mask-type:luminance" maskUnits="userSpaceOnUse" x="15" y="15" width="9" height="9">
<path d="M15.7334 15.7485H23.5547V23.5699H15.7334V15.7485Z" fill="white"/>
</mask>
<g mask="url(#mask0_152_3096)">
<path d="M19.6441 23.5699C17.4836 23.5699 15.7334 21.8074 15.7334 19.6592C15.7334 17.5105 17.4836 15.7485 19.6441 15.7485C21.8046 15.7485 23.5547 17.4987 23.5547 19.6592C23.5547 21.8197 21.7928 23.5699 19.6441 23.5699ZM19.6441 15.99C17.6166 15.99 15.9749 17.6312 15.9749 19.6592C15.9749 21.6867 17.6166 23.3284 19.6441 23.3284C21.672 23.3284 23.3138 21.6867 23.3138 19.6592C23.3138 17.6312 21.6598 15.99 19.6441 15.99Z" fill="#4EB269"/>
</g>
<mask id="mask1_152_3096" style="mask-type:luminance" maskUnits="userSpaceOnUse" x="0" y="0" width="40" height="40">
<path d="M0 0H40V40H0V0Z" fill="white"/>
</mask>
<g mask="url(#mask1_152_3096)">
<path d="M20 40C8.95091 40 0 30.9877 0 20C0 9.01227 8.95091 0 20 0C31.0496 0 40 8.95042 40 20C40 31.0496 30.9877 40 20 40ZM20 1.23466C9.62985 1.23466 1.23466 9.62935 1.23466 20C1.23466 30.3702 9.62985 38.7653 20 38.7653C30.3706 38.7653 38.7653 30.3702 38.7653 20C38.7653 9.62935 30.3088 1.23466 20 1.23466Z" fill="#4EB269"/>
</g>
<mask id="mask2_152_3096" style="mask-type:luminance" maskUnits="userSpaceOnUse" x="0" y="0" width="40" height="40">
<path d="M0 0H40V40H0V0Z" fill="white"/>
</mask>
<g mask="url(#mask2_152_3096)">
<path d="M20 40C8.95091 40 0 30.9877 0 20C0 9.01227 8.95091 0 20 0C31.0496 0 40 8.95042 40 20C40 31.0496 30.9877 40 20 40ZM20 1.23466C9.62985 1.23466 1.23466 9.62935 1.23466 20C1.23466 30.3702 9.62985 38.7653 20 38.7653C30.3706 38.7653 38.7653 30.3702 38.7653 20C38.7653 9.62935 30.3088 1.23466 20 1.23466Z" fill="#4EB269"/>
</g>
<mask id="mask3_152_3096" style="mask-type:luminance" maskUnits="userSpaceOnUse" x="7" y="6" width="10" height="13">
<path d="M7.25391 6.57129H16.9285V18.1305H7.25391V6.57129Z" fill="white"/>
</mask>
<g mask="url(#mask3_152_3096)">
<mask id="mask4_152_3096" style="mask-type:luminance" maskUnits="userSpaceOnUse" x="5" y="5" width="13" height="14">
<path d="M5.73145 7.81851L14.4799 5.17017L17.729 15.9029L8.98003 18.5513L5.73145 7.81851Z" fill="white"/>
</mask>
<g mask="url(#mask4_152_3096)">
<mask id="mask5_152_3096" style="mask-type:luminance" maskUnits="userSpaceOnUse" x="5" y="5" width="13" height="14">
<path d="M5.73145 7.81875L14.4799 5.17041L17.729 15.9032L8.98003 18.5515L5.73145 7.81875Z" fill="white"/>
</mask>
<g mask="url(#mask5_152_3096)">
<path d="M16.8483 13.5646C16.9131 13.8036 16.7874 14.0534 16.5563 14.1452C16.543 14.1501 16.5302 14.1545 16.517 14.159C16.2961 14.2257 16.0556 14.1285 15.9452 13.9224C14.5239 11.2677 13.2522 11.599 11.4917 12.0574C10.2554 12.3793 9.14669 12.2674 8.37025 11.7418C7.75724 11.3266 7.37982 10.6763 7.27921 9.86105C7.18203 9.0748 7.40976 8.35332 7.93786 7.77369C8.60387 7.04289 9.68117 6.62473 10.8198 6.65566C14.9636 6.76707 16.7732 13.2868 16.8483 13.5646ZM15.1516 14.1918C14.9783 14.1158 10.8846 12.3538 9.07847 14.4633C8.57295 15.0542 8.33295 15.809 8.43749 16.4819C8.5224 17.0277 8.81835 17.4723 9.29442 17.7668C9.78571 18.0706 10.3118 18.1501 10.8149 17.997C10.8448 17.9882 10.8738 17.9784 10.9033 17.9676C11.4893 17.7555 11.9958 17.2309 12.3369 16.479C12.7992 15.4591 13.1045 14.7852 14.8625 15.117C15.1069 15.1631 15.3469 15.0193 15.421 14.7823C15.4947 14.5457 15.3788 14.2915 15.1516 14.1918Z" fill="#4EB269"/>
</g>
</g>
</g>
<mask id="mask6_152_3096" style="mask-type:luminance" maskUnits="userSpaceOnUse" x="17" y="4" width="13" height="12">
<path d="M17.9355 4.81323H29.3692V15.2417H17.9355V4.81323Z" fill="white"/>
</mask>
<g mask="url(#mask6_152_3096)">
<mask id="mask7_152_3096" style="mask-type:luminance" maskUnits="userSpaceOnUse" x="17" y="3" width="15" height="14">
<path d="M26.8154 3.02173L31.4844 10.7699L21.9605 16.5088L17.2915 8.76062L26.8154 3.02173Z" fill="white"/>
</mask>
<g mask="url(#mask7_152_3096)">
<mask id="mask8_152_3096" style="mask-type:luminance" maskUnits="userSpaceOnUse" x="17" y="3" width="15" height="14">
<path d="M26.8154 3.02222L31.4844 10.7704L21.9605 16.5093L17.2915 8.76111L26.8154 3.02222Z" fill="white"/>
</mask>
<g mask="url(#mask8_152_3096)">
<path d="M23.9947 15.0916C23.7807 15.2124 23.5102 15.1525 23.366 14.9532C23.3581 14.9419 23.3502 14.9307 23.3434 14.9194C23.2256 14.7235 23.2604 14.4688 23.4317 14.3127C25.6374 12.3 25.0106 11.1608 24.1424 9.58391C23.5328 8.47569 23.3714 7.38465 23.6874 6.51103C23.9377 5.82146 24.4707 5.30023 25.2295 5.00477C25.9618 4.71962 26.7107 4.76183 27.3954 5.12698C28.2592 5.58784 28.9228 6.51937 29.1696 7.61925C30.0688 11.6232 24.2435 14.9518 23.9947 15.0916ZM22.9802 13.6168C23.0111 13.4318 23.71 9.07348 21.2442 7.85581C20.5537 7.51471 19.7704 7.46907 19.149 7.73361C18.6455 7.94808 18.2901 8.34072 18.1228 8.8698C17.95 9.41508 18.001 9.93925 18.271 10.3849C18.2867 10.4114 18.3029 10.4369 18.3201 10.4624C18.6666 10.9729 19.2938 11.3307 20.0992 11.4745C21.1912 11.6688 21.9127 11.7974 22.0207 13.5658C22.0359 13.8112 22.2322 14.0065 22.4781 14.0197C22.7235 14.0325 22.9394 13.8592 22.9802 13.6168Z" fill="#4EB269"/>
</g>
</g>
</g>
<mask id="mask9_152_3096" style="mask-type:luminance" maskUnits="userSpaceOnUse" x="25" y="13" width="12" height="12">
<path d="M25.3481 13.7336H36.1535V24.2877H25.3481V13.7336Z" fill="white"/>
</mask>
<g mask="url(#mask9_152_3096)">
<mask id="mask10_152_3096" style="mask-type:luminance" maskUnits="userSpaceOnUse" x="23" y="13" width="15" height="14">
<path d="M37.8297 19.5725L32.4859 26.8721L23.5137 20.3033L28.8575 13.0042L37.8297 19.5725Z" fill="white"/>
</mask>
<g mask="url(#mask10_152_3096)">
<mask id="mask11_152_3096" style="mask-type:luminance" maskUnits="userSpaceOnUse" x="23" y="13" width="15" height="14">
<path d="M37.8307 19.5725L32.4869 26.8721L23.5146 20.3033L28.8584 13.0042L37.8307 19.5725Z" fill="white"/>
</mask>
<g mask="url(#mask11_152_3096)">
<path d="M25.607 21.6308C25.4132 21.4797 25.3636 21.2073 25.4922 20.9972C25.4991 20.9854 25.5069 20.9741 25.5148 20.9633C25.6497 20.7788 25.8981 20.7125 26.1086 20.8107C28.8164 22.0676 29.6252 21.0492 30.7447 19.6397C31.5314 18.6492 32.4757 18.0789 33.4033 18.0333C34.1361 17.9975 34.8227 18.288 35.3881 18.874C35.9339 19.4394 36.1842 20.1462 36.1121 20.9187C36.0208 21.8939 35.4176 22.8657 34.4983 23.5179C31.1526 25.8939 25.8323 21.806 25.607 21.6308ZM26.5759 20.1251C26.7584 20.0824 31.0485 19.0438 31.2198 16.2993C31.2674 15.5302 31.0073 14.7901 30.5229 14.3194C30.1307 13.9371 29.6311 13.7619 29.0784 13.8114C28.5086 13.8625 28.0448 14.1123 27.7381 14.5329C27.7199 14.5579 27.7027 14.583 27.6856 14.6085C27.3484 15.1248 27.2605 15.8419 27.4392 16.6404C27.6816 17.7226 27.8416 18.4382 26.2524 19.2205C26.0316 19.329 25.9275 19.5862 26.0105 19.8178C26.0929 20.049 26.3364 20.1815 26.5759 20.1251Z" fill="#4EB269"/>
</g>
</g>
</g>
<mask id="mask12_152_3096" style="mask-type:luminance" maskUnits="userSpaceOnUse" x="19" y="24" width="10" height="12">
<path d="M19.1929 24.4138H28.3649V35.2192H19.1929V24.4138Z" fill="white"/>
</mask>
<g mask="url(#mask12_152_3096)">
<mask id="mask13_152_3096" style="mask-type:luminance" maskUnits="userSpaceOnUse" x="17" y="23" width="12" height="13">
<path d="M26.7796 35.8278L17.8579 34.3319L19.6964 23.3655L28.6186 24.8614L26.7796 35.8278Z" fill="white"/>
</mask>
<g mask="url(#mask13_152_3096)">
<mask id="mask14_152_3096" style="mask-type:luminance" maskUnits="userSpaceOnUse" x="17" y="23" width="12" height="13">
<path d="M26.7806 35.8283L17.8589 34.3323L19.6974 23.366L28.6196 24.8619L26.7806 35.8283Z" fill="white"/>
</mask>
<g mask="url(#mask14_152_3096)">
<path d="M19.4511 25.8323C19.4987 25.5913 19.72 25.4244 19.9654 25.445C19.9792 25.446 19.9924 25.448 20.0057 25.45C20.2314 25.4877 20.4017 25.6796 20.4091 25.9118C20.5019 28.8958 21.775 29.1614 23.5374 29.5285C24.7757 29.7866 25.7092 30.3736 26.1666 31.182C26.5279 31.821 26.5765 32.5646 26.307 33.3331C26.0474 34.0747 25.5281 34.6156 24.8052 34.8983C23.8933 35.2546 22.7541 35.152 21.7583 34.6239C18.1328 32.7015 19.3956 26.112 19.4511 25.8323ZM21.2312 26.0212C21.3514 26.1655 24.2064 29.5319 26.7355 28.4522C27.4437 28.1493 27.988 27.5844 28.1917 26.9405C28.3566 26.4183 28.2888 25.8931 27.9963 25.422C27.6945 24.9356 27.2636 24.6338 26.7497 24.5484C26.7193 24.543 26.6893 24.539 26.6584 24.5356C26.0459 24.4659 25.3657 24.7098 24.7325 25.2276C23.8741 25.9304 23.3073 26.3947 21.8943 25.3263C21.6979 25.1781 21.4216 25.2001 21.2523 25.3783C21.0825 25.556 21.0731 25.8328 21.2312 26.0212Z" fill="#4EB269"/>
</g>
</g>
</g>
<mask id="mask15_152_3096" style="mask-type:luminance" maskUnits="userSpaceOnUse" x="4" y="21" width="13" height="9">
<path d="M4.86865 21.0215H16.1766V29.9422H4.86865V21.0215Z" fill="white"/>
</mask>
<g mask="url(#mask15_152_3096)">
<mask id="mask16_152_3096" style="mask-type:luminance" maskUnits="userSpaceOnUse" x="4" y="20" width="13" height="11">
<path d="M5.25966 30.9275L4.2334 21.9396L15.2812 20.6782L16.307 29.6662L5.25966 30.9275Z" fill="white"/>
</mask>
<g mask="url(#mask16_152_3096)">
<mask id="mask17_152_3096" style="mask-type:luminance" maskUnits="userSpaceOnUse" x="4" y="20" width="13" height="11">
<path d="M5.26014 30.9273L4.23389 21.9393L15.2817 20.678L16.3075 29.666L5.26014 30.9273Z" fill="white"/>
</mask>
<g mask="url(#mask17_152_3096)">
<path d="M12.8422 21.1231C13.0872 21.1024 13.3085 21.2693 13.3571 21.5103C13.3595 21.524 13.3615 21.5373 13.363 21.5505C13.389 21.7778 13.2516 21.9947 13.0307 22.0659C10.188 22.9793 10.2852 24.2764 10.4187 26.0713C10.5129 27.3326 10.2062 28.3923 9.55587 29.0548C9.04151 29.5785 8.34016 29.8308 7.52691 29.7842C6.74262 29.7395 6.07906 29.3896 5.60789 28.7731C5.01354 27.9947 4.79759 26.8718 5.03022 25.7689C5.87636 21.7532 12.5586 21.1471 12.8422 21.1231ZM13.1524 22.8865C13.0474 23.0416 10.6003 26.7157 12.3367 28.8477C12.8231 29.445 13.5161 29.8121 14.1914 29.8298C14.7392 29.844 15.2251 29.634 15.5971 29.2227C15.9809 28.7986 16.1522 28.3005 16.0923 27.7832C16.0889 27.7527 16.0845 27.7223 16.0795 27.6924C15.977 27.0838 15.5549 26.4978 14.8825 26.0325C13.9696 25.4013 13.3669 24.9847 14.0035 23.3316C14.0923 23.102 13.9941 22.8428 13.7767 22.7285C13.5588 22.6146 13.2903 22.6823 13.1524 22.8865Z" fill="#4EB269"/>
</g>
</g>
</g>
</svg>
