<svg width="163" height="63" viewBox="0 0 163 63" fill="none" xmlns="http://www.w3.org/2000/svg">
<path d="M120.832 61.6C121.364 57.7044 115.875 54.4939 111.747 54.1577C109.778 53.9991 107.733 54.3036 105.872 53.6501C101.833 52.2416 100.218 47.0135 96.2804 45.3449C93.3301 44.0759 89.9494 45.2053 87.0814 46.6138C84.2135 48.0223 81.3835 49.8687 78.218 50.078C75.4387 50.2557 72.4251 49.2215 69.9877 50.5793C68.177 51.5944 67.2274 53.6818 65.556 54.919C63.8846 56.1563 61.7954 56.3783 59.7758 56.4862C57.7562 56.5941 55.6543 56.6194 53.8056 57.4633C51.957 58.3071 50.4375 60.2676 50.8237 62.2599L120.832 61.6Z" fill="#CBCACA"/>
<path d="M48.7411 11.6867C49.1083 8.97752 45.2907 6.74418 42.41 6.50942C41.0425 6.40156 39.6181 6.61094 38.3202 6.15412C35.5092 5.17703 34.3886 1.53517 31.6473 0.374085C29.5961 -0.488796 27.2156 0.278914 25.2467 1.28138C23.2777 2.28384 21.2898 3.54644 19.0739 3.69237C17.1366 3.81292 15.0411 3.09597 13.376 4.04133C12.1098 4.74559 11.4767 6.19853 10.2991 7.06141C9.12156 7.92429 7.67809 8.07657 6.27261 8.1527C4.86712 8.22884 3.40464 8.24153 2.11944 8.83159C0.834247 9.42165 -0.229363 10.7794 0.0428703 12.1689L48.7411 11.6867Z" fill="#CBCACA"/>
<path d="M162.918 19.7442C163.171 17.8979 160.569 16.3815 158.613 16.2229C157.682 16.1468 156.714 16.2927 155.834 15.9818C153.934 15.3156 153.156 12.8094 151.288 12.0481C149.895 11.458 148.287 11.9846 146.932 12.6825C145.577 13.3805 144.242 14.2243 142.735 14.3195C141.418 14.4083 139.994 13.9198 138.841 14.5606C137.987 15.0428 137.537 16.0325 136.746 16.6163C135.925 17.1294 134.972 17.3918 134.004 17.3713C133.043 17.3478 132.085 17.5049 131.181 17.8344C130.738 18.0079 130.362 18.3189 130.108 18.7219C129.854 19.1248 129.735 19.5987 129.769 20.0741L162.918 19.7442Z" fill="#CBCACA"/>
</svg>
