<svg width="430" height="269" viewBox="0 0 430 269" fill="none" xmlns="http://www.w3.org/2000/svg">
<path d="M143.062 235.249C141.308 237.445 142.549 240.96 144.86 242.546C147.171 244.132 150.127 244.354 152.932 244.513L190.557 246.663C186.974 248.167 183.283 249.741 180.561 252.52C177.838 255.299 176.3 259.632 177.876 263.191C180.13 268.267 186.866 269.092 192.393 268.838C232.551 266.973 270.265 246.283 310.479 245.946C327.2 245.813 343.73 249.22 360.387 250.686C377.044 252.152 394.53 251.523 409.414 243.891C411.314 242.926 413.301 241.626 413.745 239.557C414.188 237.489 411.985 234.97 408.895 235.249" fill="#EBEBEB"/>
<path d="M7.62689 235.358C4.82276 237.698 7.34358 240.746 8.5495 241.837C9.82362 242.864 11.3246 243.649 12.9591 244.146C24.241 248.221 36.4601 249.885 48.621 250.791C55.8857 251.32 63.3827 251.601 70.2332 253.865C76.1539 255.822 81.428 259.196 87.5448 260.625C93.6616 262.053 101.42 260.739 104.043 255.689C105.924 252.066 104.885 247.162 108.343 244.586C109.869 243.444 111.939 243.087 113.828 242.5C115.717 241.913 117.686 240.868 118.187 239.158C118.717 237.245 117.969 235.97 115.935 235.166" fill="#EBEBEB"/>
<path d="M286.677 44.0179C286.677 44.0496 286.177 43.8466 285.247 43.6372C283.936 43.3517 282.586 43.3001 281.258 43.4849C279.288 43.745 277.429 44.549 275.889 45.8071C273.997 47.3493 272.663 49.4713 272.091 51.8472V51.9107L271.977 52.3421L271.812 51.9361C270.888 49.6852 269.305 47.7675 267.273 46.4352C265.609 45.3542 263.698 44.7166 261.721 44.5825C260.388 44.4886 259.05 44.6129 257.757 44.9505C256.846 45.1916 256.358 45.401 256.352 45.3756C256.461 45.3111 256.575 45.2559 256.694 45.2107C257.032 45.0649 257.379 44.9399 257.732 44.8363C259.35 44.3626 261.051 44.2403 262.72 44.4778C264.39 44.7152 265.989 45.3068 267.412 46.2131C269.506 47.5557 271.138 49.5117 272.084 51.8155H271.812V51.7457C272.399 49.3108 273.773 47.1384 275.718 45.566C277.047 44.5102 278.6 43.7747 280.258 43.416C281.916 43.0574 283.633 43.0853 285.278 43.4976C285.635 43.5875 285.986 43.6998 286.329 43.8339C286.452 43.8818 286.569 43.9435 286.677 44.0179Z" fill="#E0E0E0"/>
<path d="M211.45 54.609C211.38 54.6661 204.137 46.2022 195.28 35.7017C186.423 25.2012 179.294 16.6676 179.364 16.5851C179.434 16.5026 186.67 24.9919 195.533 35.4924C204.397 45.9929 211.538 54.5455 211.45 54.609Z" fill="#F5CB5E"/>
<path d="M230.367 46.0944C230.278 46.0944 228.334 35.9809 226.024 23.4818C223.713 10.9827 221.915 0.818487 222.003 0.805798C222.092 0.793109 224.036 10.9129 226.347 23.4184C228.657 35.9238 230.462 46.0753 230.367 46.0944Z" fill="#F5CB5E"/>
<path d="M263.339 4.52792e-05C263.427 0.0317688 260.173 10.729 256.09 23.9006C252.006 37.0722 248.613 47.7313 248.524 47.6996C248.435 47.6679 251.69 36.977 255.773 23.7991C259.857 10.6211 263.256 -0.0253336 263.339 4.52792e-05Z" fill="#F5CB5E"/>
<path d="M305.282 13.3112C305.351 13.3683 297.051 23.1836 286.7 35.2322C276.349 47.2808 267.935 57.0009 267.884 56.9375C267.834 56.874 276.115 47.0651 286.466 35.0165C296.817 22.9679 305.237 13.2478 305.282 13.3112Z" fill="#F5CB5E"/>
<path d="M315.437 56.3538C315.475 56.4426 309.479 58.9932 302.053 62.064C294.627 65.1349 288.58 67.5522 288.542 67.4697C288.504 67.3873 294.5 64.8303 301.933 61.7595C309.365 58.6887 315.405 56.2713 315.437 56.3538Z" fill="#F5CB5E"/>
<path d="M208.651 68.0661C215.862 56.7091 230.316 50.4913 243.472 53.0672C256.628 55.6432 268.081 64.3037 271.094 78.1796L245.137 103.692L208.651 68.0661Z" fill="#F5CB5E"/>
<path d="M208.651 68.0661C215.862 56.7091 230.316 50.4913 243.472 53.0672C256.628 55.6432 268.081 64.3037 271.094 78.1796L245.137 103.692L208.651 68.0661Z" fill="#F5CB5E"/>
<path d="M256.685 61.2392C256.531 61.1664 256.385 61.0793 256.248 60.9791C255.969 60.8014 255.577 60.5032 255.032 60.186C253.524 59.2379 251.943 58.4126 250.303 57.7179C247.866 56.6833 245.316 55.9401 242.706 55.5036C238.219 54.7593 233.626 54.9581 229.22 56.0875C224.813 57.2169 220.689 59.2521 217.11 62.064C215.702 63.1549 214.387 64.3602 213.178 65.6678C212.735 66.1183 212.431 66.5053 212.203 66.7464C212.097 66.8804 211.978 67.0036 211.848 67.1144C211.938 66.9684 212.039 66.8304 212.152 66.702C212.361 66.4482 212.653 66.0675 213.083 65.579C214.265 64.2334 215.564 62.9955 216.964 61.88C221.604 58.1494 227.169 55.7544 233.064 54.9516C238.965 54.2096 244.956 55.0867 250.398 57.4895C252.038 58.1937 253.612 59.0431 255.102 60.0274C255.634 60.3637 256.02 60.6619 256.286 60.8712C256.429 60.9828 256.562 61.1059 256.685 61.2392Z" fill="white"/>
<path d="M261.446 65.8518C261.357 65.8899 260.984 65.1348 260.338 64.3354C259.692 63.536 259.04 63.003 259.072 62.9269C259.654 63.2112 260.166 63.6207 260.572 64.1263C260.978 64.6319 261.268 65.2211 261.42 65.8518H261.446Z" fill="white"/>
<path d="M342.958 117.415L281.585 68.5863L245.359 104.187L178.845 39.591L113.37 104.187L39.7462 234.792H399.209L342.958 117.415Z" fill="#7C3B29"/>
<g opacity="0.8">
<path d="M342.563 116.99L281.19 68.1616L244.964 103.762L178.451 39.1663L112.975 103.762L39.3518 234.368H398.814L342.563 116.99Z" fill="white" fill-opacity="0.65"/>
</g>
<path d="M141.403 76.5299L172.938 54.9706L165.138 71.2638L183.093 53.911L205.233 65.2236L178.845 39.591L141.403 76.5299Z" fill="#FAFAFA"/>
<path d="M245.359 104.187L231.741 122.758L278.47 82.0054L282.11 90.2091L287.707 79.8165L300.312 83.4837L281.585 68.5864L245.359 104.187Z" fill="#FAFAFA"/>
<path d="M242.18 105.208C242.043 105.115 241.914 105.011 241.794 104.897L240.75 103.958C239.838 103.146 238.546 101.941 236.951 100.43C233.786 97.4231 229.537 93.1467 224.884 88.3755C220.231 83.6043 216.021 79.3153 212.855 76.2634L209.202 72.6597L208.196 71.6762C208.073 71.5681 207.961 71.4491 207.86 71.3209C207.996 71.4123 208.123 71.5164 208.24 71.6318L209.291 72.5645C210.196 73.3766 211.488 74.5885 213.089 76.0921C216.255 79.1059 220.509 83.3759 225.163 88.1471C229.816 92.9183 234.026 97.201 237.16 100.259L240.864 103.857L241.87 104.84C241.985 104.952 242.089 105.076 242.18 105.208Z" fill="#198B34"/>
<path d="M398.202 232.635L395.22 226.367L383.824 202.549L343.084 117.352V117.32C324.49 102.518 303.832 86.066 281.73 68.4658L281.623 68.377L281.521 68.4722L245.403 103.964L236.09 94.9169L178.953 39.4768L178.845 39.369L178.731 39.4768L113.281 104.098L79.0934 169.359C76.9831 173.407 75.1197 176.973 73.5031 180.057C73.769 179.612 74.0413 179.175 74.3198 178.737C75.7675 175.983 77.403 172.881 79.2264 169.429L113.503 104.237C132.28 85.7234 154.559 63.7771 178.845 39.8131L235.824 95.1517L245.251 104.307L245.365 104.421L245.485 104.307L281.604 68.7767L342.85 117.479C359.779 152.755 373.872 182.081 383.704 202.593L395.138 226.398C396.461 229.139 397.474 231.239 398.164 232.654C398.854 234.069 399.209 234.792 399.209 234.792C399.209 234.792 398.873 234.056 398.202 232.635Z" fill="#6F4439"/>
<path d="M133.667 171.079L129.362 147.711L122.822 169.461L124.759 168.7L120.011 181.694L122.746 180.475L119.454 185.443L134.294 185.386L133.021 181.04L134.287 183.299L131.489 169.62L133.667 171.079Z" fill="#198B34"/>
<path opacity="0.6" d="M133.667 171.079L129.362 147.711L122.822 169.461L124.759 168.7L120.011 181.694L122.746 180.475L119.454 185.443L134.294 185.386L133.021 181.04L134.287 183.299L131.489 169.62L133.667 171.079Z" fill="white"/>
<path d="M147.855 161.568L142.195 130.2L133.312 159.341L135.914 158.326L129.482 175.73L133.16 174.112L128.716 185.443H148.621L146.937 174.924L148.621 177.957L144.942 159.601L147.855 161.568Z" fill="#198B34"/>
<path opacity="0.4" d="M147.855 161.568L142.195 130.2L133.312 159.341L135.914 158.326L129.482 175.73L133.16 174.112L128.716 185.443H148.621L146.937 174.924L148.621 177.957L144.942 159.601L147.855 161.568Z" fill="white"/>
<path d="M292.176 164.392L287.954 140.992L281.325 162.736L283.269 161.981L278.47 174.962L281.211 173.75L277.9 182.207H292.746L291.493 174.359L292.746 176.624L290.005 162.926L292.176 164.392Z" fill="#198B34"/>
<path opacity="0.6" d="M292.176 164.392L287.954 140.992L281.325 162.736L283.269 161.981L278.47 174.962L281.211 173.75L277.9 182.207H292.746L291.493 174.359L292.746 176.624L290.005 162.926L292.176 164.392Z" fill="white"/>
<path d="M119.156 175.914L116.896 163.402L113.351 175.025L114.389 174.626L111.825 181.567L113.287 180.919L111.521 185.443H119.46L118.789 181.243L119.46 182.455L117.991 175.133L119.156 175.914Z" fill="#198B34"/>
<path opacity="0.4" d="M119.156 175.914L116.896 163.402L113.351 175.025L114.389 174.626L111.825 181.567L113.287 180.919L111.521 185.443H119.46L118.789 181.243L119.46 182.455L117.991 175.133L119.156 175.914Z" fill="white"/>
<path d="M281.895 167.335L278.349 147.692L272.791 165.94L274.418 165.305L270.391 176.205L272.696 175.19L269.91 182.284H282.376L281.325 175.698L282.376 177.595L280.071 166.105L281.895 167.335Z" fill="#198B34"/>
<path opacity="0.4" d="M281.895 167.335L278.349 147.692L272.791 165.94L274.418 165.305L270.391 176.205L272.696 175.19L269.91 182.284H282.376L281.325 175.698L282.376 177.595L280.071 166.105L281.895 167.335Z" fill="white"/>
<path d="M295.988 182.366H267.036C266.973 182.366 266.922 182.328 266.922 182.284C266.922 182.239 266.973 182.208 267.036 182.208H295.988C296.051 182.208 296.102 182.208 296.102 182.284C296.102 182.36 296.051 182.366 295.988 182.366Z" fill="#263238"/>
<path d="M157.725 185.519H106.608C106.494 185.519 106.405 185.488 106.405 185.443C106.405 185.399 106.494 185.361 106.608 185.361H157.725C157.839 185.361 157.927 185.399 157.927 185.443C157.927 185.488 157.82 185.519 157.725 185.519Z" fill="#263238"/>
<path d="M361.229 148.574L340.723 35.0673L308.586 140.516L318.007 136.855L294.734 199.833L308.036 193.971L291.968 234.983H363.995L357.899 196.902L363.995 207.885L350.675 141.455L361.229 148.574Z" fill="#263238"/>
<path d="M94.8639 152.476L73.6614 8.19739L44.3298 144.748L53.3704 141.227L31.0283 201.692L43.798 196.071L28.3693 235.44H97.523L91.6731 198.881L97.523 209.426L84.728 145.643L94.8639 152.476Z" fill="#263238"/>
<path d="M108.254 198.786H101.999V235.249H108.254V198.786Z" fill="#263238"/>
<path d="M103.423 43.5057C103.423 44.3623 86.6336 97.3977 86.6336 97.3977L95.0475 88.845L82.9553 125.911L90.9197 114.789L81.5308 161.27L86.0828 156.423L78.0994 189.212L84.9179 180.653L78.0931 205.175L132.154 201.185L119.346 154.995L127.082 163.548L117.073 129.921L122.195 132.769L110.533 89.4097L115.94 93.1214L103.423 43.5057Z" fill="#455A64"/>
<path d="M415.587 179.892L402.374 106.731L381.659 174.702L387.73 172.341L372.732 212.935L381.298 209.16L371.409 235.205L417.322 235.249L413.447 211.051L417.372 218.131L408.787 175.304L415.587 179.892Z" fill="#455A64"/>
<path d="M369.124 179.099L361.153 174.511L358.506 160.743L356.278 161.359L358.209 174.365L350.567 169.182L348.89 171.104L359.007 177.557L369.124 182.309V179.099Z" fill="#263238"/>
<path d="M373.866 159.018H368.022V234.996H373.866V159.018Z" fill="#263238"/>
<path d="M369.345 13.895C369.345 14.6944 353.657 64.2593 353.657 64.2593L361.501 56.265L350.188 90.9071L357.633 80.5144L348.858 123.95L353.112 119.42L345.68 150.065L352.087 142.071L345.705 164.988L396.227 161.257L384.261 118.113L391.491 126.108L382.134 94.6631L386.92 97.3279L375.993 56.7979L381.058 60.2621L369.345 13.895Z" fill="#198B34"/>
<path d="M371.042 102.366C370.983 102.619 370.898 102.866 370.789 103.102C370.592 103.616 370.326 104.288 370.004 105.113L367.174 112.048L367.047 112.359L366.895 112.067C366.099 110.586 365.41 109.051 364.831 107.473C364.603 106.839 364.401 106.242 364.198 105.652H364.502C363.109 109.212 361.748 112.314 360.703 114.535C360.191 115.639 359.766 116.514 359.437 117.117C359.298 117.39 359.178 117.612 359.076 117.802C359.04 117.884 358.993 117.961 358.937 118.031C359.042 117.699 359.173 117.377 359.33 117.066L360.482 114.446C361.457 112.219 362.78 109.11 364.16 105.563L364.331 105.126L364.47 105.576C364.648 106.16 364.856 106.762 365.103 107.378C365.675 108.941 366.352 110.463 367.129 111.933H366.851C368.028 109.173 369.041 106.788 369.788 105.043L370.656 103.07C370.76 102.822 370.889 102.586 371.042 102.366Z" fill="#263238"/>
<path d="M376.423 83.8644C376.312 83.6957 376.217 83.5174 376.138 83.3315C375.948 82.9254 375.701 82.4178 375.417 81.8151C374.783 80.5462 373.872 78.7316 372.682 76.7393L372.966 76.7013C372.713 77.6783 372.447 78.7252 372.162 79.8165C371.985 80.4954 371.808 81.1552 371.643 81.7961L371.523 82.2402L371.339 81.8215C370.263 79.4231 369.326 77.304 368.674 75.7813L367.914 73.9921C367.814 73.7896 367.735 73.5769 367.68 73.3576C367.819 73.5544 367.934 73.7674 368.022 73.9921C368.244 74.4616 368.528 75.0453 368.864 75.7496C369.573 77.2406 370.542 79.3407 371.631 81.739H371.327C371.491 81.1045 371.669 80.4383 371.846 79.7594C372.131 78.6681 372.409 77.6212 372.663 76.6442L372.758 76.2762L372.954 76.6061C373.928 78.2799 374.809 80.0062 375.594 81.777C375.885 82.4115 376.1 82.9635 376.227 83.3315C376.314 83.5002 376.38 83.6793 376.423 83.8644Z" fill="#263238"/>
<path d="M369.269 45.8914C369.013 46.4995 368.715 47.0889 368.377 47.6552C367.788 48.7338 366.946 50.2311 365.977 51.9315L365.756 52.3186L365.673 51.8808C365.585 51.3859 365.496 50.8783 365.401 50.358C365.243 49.4507 365.097 48.5879 364.951 47.7821L365.243 47.8392C364.337 49.2731 363.552 50.4913 362.989 51.3542C362.709 51.8274 362.391 52.2772 362.039 52.6992C362.257 52.1942 362.519 51.71 362.824 51.2526C363.343 50.3644 364.09 49.1145 364.977 47.6742L365.192 47.3253L365.262 47.725L365.73 50.3009C365.819 50.8212 365.907 51.3288 365.996 51.8237L365.692 51.7729C366.68 50.0789 367.554 48.6005 368.225 47.5473C368.53 46.9693 368.879 46.4157 369.269 45.8914Z" fill="#263238"/>
<path d="M41.0123 187.658H32.8516V235.243H41.0123V187.658Z" fill="#455A64"/>
<path d="M35.1941 31.1652C35.1941 32.0408 18.1004 86.1104 18.1004 86.1104L26.6599 77.3928L14.3081 115.169L22.4308 103.844L12.8583 151.233L17.4989 146.29L9.37622 179.72L16.3403 171.003L9.37622 196.001L64.4941 191.94L51.4395 144.843L59.3216 153.567L49.116 119.262L54.3391 122.148L42.4431 77.9702L47.9574 81.777L35.1941 31.1652Z" fill="#198B34"/>
<path d="M43.3991 118.57C43.3991 118.57 43.3295 118.526 43.2155 118.418L42.7154 117.936C42.2595 117.479 41.6391 116.857 40.8667 116.096L34.4977 109.611L34.7573 109.529C34.3964 111.648 34.0039 113.97 33.5924 116.394L32.9023 120.353L32.8073 120.918L32.5984 120.391C31.2103 116.937 30.1504 113.36 29.4329 109.706C29.167 108.336 29.0024 107.232 28.9011 106.477C28.8504 106.096 28.8251 105.798 28.8061 105.601C28.7909 105.498 28.7909 105.394 28.8061 105.291C28.8381 105.388 28.8614 105.487 28.8758 105.589L29.0277 106.458C29.1607 107.213 29.3569 108.304 29.6608 109.63C30.4316 113.255 31.5141 116.807 32.896 120.245L32.5857 120.283C32.8073 119.014 33.0289 117.675 33.2632 116.318C33.6873 113.894 34.0862 111.572 34.4534 109.459L34.504 109.154L34.7193 109.377L40.9997 115.943L42.785 117.847L43.2535 118.361C43.3116 118.423 43.3606 118.494 43.3991 118.57Z" fill="#263238"/>
<path d="M23.3488 161.486C23.555 159.021 23.9787 156.579 24.615 154.189C24.5713 155.425 24.4187 156.654 24.1591 157.863C23.9997 159.093 23.7285 160.305 23.3488 161.486Z" fill="#263238"/>
<path d="M42.1836 142.953C42.1518 143.096 42.1029 143.234 42.0379 143.365L41.5568 144.52L39.7334 148.758L33.5544 162.837L33.3518 163.3L33.2442 162.805L32.9656 161.536C32.1489 157.806 31.3765 154.291 30.7118 151.239L30.9713 151.29L25.9065 158.726L24.4884 160.851L24.1022 161.39C24.0579 161.457 24.007 161.519 23.9502 161.574C23.9772 161.5 24.0134 161.43 24.0579 161.365L24.4124 160.8L25.7862 158.669L30.7307 151.163L30.9207 150.877L30.9967 151.214C31.6741 154.259 32.4591 157.774 33.2885 161.505L33.567 162.774L33.2568 162.742C35.7133 157.235 37.9228 152.305 39.5245 148.707C40.3286 146.956 40.9743 145.535 41.4238 144.507L41.9556 143.378C42.0129 143.227 42.0895 143.084 42.1836 142.953Z" fill="#263238"/>
<path d="M46.5203 185.481C45.1413 183.979 43.8437 182.403 42.6331 180.761C41.3359 179.184 40.1249 177.539 39.0054 175.831C40.3834 177.337 41.681 178.915 42.8926 180.558C44.1888 182.133 45.3997 183.776 46.5203 185.481Z" fill="#263238"/>
<path d="M41.2782 73.5543C41.1264 73.3795 40.9888 73.1928 40.8667 72.996L39.7841 71.3907L36.0804 65.6805L36.3527 65.6297C35.9791 67.5332 35.6309 69.6269 35.3777 71.8603C35.1751 73.6304 35.0422 75.3435 34.9725 76.936V77.5324L34.7066 76.9995C33.5613 74.6968 32.6636 72.2785 32.0286 69.7855C31.8007 68.8656 31.6487 68.1232 31.5601 67.6156C31.5032 67.3569 31.4693 67.0936 31.4588 66.8289C31.5501 67.0779 31.6179 67.3349 31.6614 67.5966C31.7817 68.0978 31.959 68.8275 32.2185 69.7348C32.9084 72.1919 33.8349 74.5761 34.9852 76.8535L34.6876 76.917C34.7509 75.3435 34.8776 73.6241 35.0801 71.8412C35.3397 69.5952 35.7132 67.4761 36.0868 65.5853L36.1691 65.2173L36.3653 65.5346L39.974 71.3083L40.9807 72.9706C41.0971 73.1558 41.1966 73.3512 41.2782 73.5543Z" fill="#263238"/>
<path d="M271.43 235.205L278.014 211.761L319.691 188.679H343.356L347.123 196.445L352.986 195.811L363.039 213.652L371.415 212.389L393.568 235.351L271.43 235.205Z" fill="#E0E0E0"/>
<path d="M278.014 211.761H313.759L343.356 188.679H319.691L278.014 211.761Z" fill="#F5F5F5"/>
<path d="M342.489 214.502C342.065 214.502 322.173 225.593 322.173 225.593L315.456 234.926L320.071 234.894L325.497 225.91L346.389 215.06L342.489 214.502Z" fill="#F5F5F5"/>
<path d="M361.33 234.101C361.254 234.152 358.013 229.863 354.094 224.514C350.175 219.165 347.022 214.781 347.117 214.737C347.212 214.692 350.434 218.969 354.36 224.317C358.285 229.666 361.4 234.044 361.33 234.101Z" fill="#F5F5F5"/>
<path d="M271.43 235.211H272.063H273.873H280.838L306.662 235.148L393.872 234.945L393.758 235.224L376.664 217.985L371.245 212.51L371.384 212.554L363.008 213.823H362.894L362.837 213.728L352.847 195.893L353.005 195.969L347.142 196.604H347.028L346.984 196.502L343.223 188.768L343.363 188.857H319.697H319.767L278.065 211.901L278.109 211.844C273.899 226.614 271.62 234.621 271.436 235.268C271.436 235.268 271.436 235.135 271.537 234.875C271.639 234.615 271.715 234.24 271.854 233.708C272.145 232.667 272.569 231.132 273.12 229.133C274.234 225.117 275.868 219.242 277.932 211.793V211.761H277.963L319.615 188.628H319.653H343.318H343.413L343.458 188.717L347.256 196.483L347.098 196.394L352.961 195.76H353.068L353.119 195.855L363.172 213.69L363.008 213.607L371.384 212.339H371.466L371.523 212.396C373.321 214.21 375.13 216.035 376.949 217.871L394.005 235.116L394.277 235.395H393.872H306.504H280.724H273.804H271.43V235.211Z" fill="#263238"/>
<path d="M120.137 181.021C119.625 180.809 119.064 180.744 118.517 180.832C117.97 180.921 117.458 181.159 117.038 181.521C116.618 181.883 116.306 182.354 116.136 182.883C115.967 183.412 115.947 183.978 116.079 184.517C114.123 183.654 111.698 184.809 110.641 186.668C109.584 188.527 109.672 190.849 110.28 192.898C109.586 192.92 108.915 193.154 108.359 193.57C107.802 193.986 107.387 194.563 107.168 195.224C106.95 195.884 106.939 196.596 107.138 197.263C107.337 197.93 107.735 198.519 108.279 198.951C107.468 198.903 106.667 199.149 106.022 199.644C105.377 200.139 104.932 200.85 104.767 201.647C104.603 202.445 104.73 203.274 105.127 203.985C105.523 204.696 106.161 205.24 106.925 205.518C106.076 206.123 105.465 207.007 105.197 208.015C104.929 209.024 105.021 210.095 105.458 211.043C105.894 211.991 106.647 212.756 107.586 213.207C108.525 213.658 109.592 213.766 110.603 213.512C110.62 214.332 110.85 215.132 111.27 215.836C111.69 216.539 112.285 217.121 112.998 217.523C113.71 217.926 114.515 218.136 115.333 218.132C116.15 218.129 116.953 217.912 117.662 217.503C118.274 218.365 119.067 219.082 119.986 219.604C120.904 220.126 121.925 220.44 122.977 220.524C124.03 220.608 125.088 220.46 126.077 220.09C127.066 219.721 127.963 219.139 128.703 218.385C130.128 219.267 131.71 220.104 133.395 220.009C135.079 219.914 136.788 218.537 136.636 216.837C138.155 217.357 139.84 217.795 141.327 217.199C142.815 216.602 143.765 214.527 142.701 213.328C143.377 213.413 144.063 213.354 144.714 213.155C145.365 212.956 145.967 212.621 146.48 212.172C146.992 211.723 147.405 211.171 147.69 210.551C147.975 209.931 148.126 209.258 148.133 208.576C148.841 208.887 149.627 208.971 150.385 208.816C151.142 208.662 151.833 208.276 152.363 207.713C152.893 207.15 153.237 206.436 153.347 205.669C153.457 204.902 153.327 204.121 152.976 203.431C154.806 202.726 155.401 200.258 154.66 198.406C153.92 196.553 152.255 195.322 150.596 194.269C151.166 193.438 151.489 192.461 151.526 191.454C151.563 190.446 151.312 189.448 150.804 188.578C150.296 187.707 149.551 187 148.657 186.538C147.762 186.076 146.755 185.879 145.753 185.97C145.972 185.133 145.912 184.248 145.583 183.449C145.253 182.649 144.672 181.98 143.928 181.542C143.184 181.105 142.317 180.923 141.46 181.025C140.603 181.126 139.803 181.506 139.181 182.106C139.276 179.403 136.231 177.1 133.667 177.95C132.875 178.21 132.128 178.712 131.299 178.68C130.159 178.648 129.298 177.658 128.228 177.284C127.81 177.16 127.37 177.127 126.938 177.185C126.506 177.243 126.09 177.392 125.719 177.622C125.348 177.852 125.03 178.157 124.785 178.519C124.54 178.881 124.373 179.29 124.297 179.72C124.277 179.523 124.217 179.332 124.12 179.159C124.023 178.986 123.891 178.835 123.733 178.715C123.575 178.596 123.393 178.511 123.2 178.466C123.008 178.42 122.808 178.415 122.613 178.451C122.222 178.549 121.864 178.747 121.574 179.026C121.284 179.306 121.073 179.657 120.96 180.044C120.741 180.817 120.659 181.622 120.72 182.423" fill="#198B34"/>
<path d="M119.574 204.262C119.669 204.262 120.505 211.241 121.473 219.832C122.442 228.422 123.107 235.427 123.018 235.44C122.929 235.452 122.087 228.46 121.119 219.87C120.15 211.279 119.485 204.274 119.574 204.262Z" fill="#263238"/>
<path d="M120.821 214.401C119.836 213.391 118.932 212.305 118.118 211.152C117.215 210.067 116.398 208.913 115.674 207.701C116.656 208.714 117.559 209.799 118.377 210.949C119.28 212.034 120.097 213.188 120.821 214.401Z" fill="#263238"/>
<path d="M125.816 194.789C125.911 194.789 126.31 203.868 126.709 215.092C127.108 226.316 127.342 235.395 127.266 235.395C127.19 235.395 126.779 226.316 126.38 215.092C125.981 203.868 125.728 194.789 125.816 194.789Z" fill="#263238"/>
<path d="M130.786 195.208C130.803 195.345 130.803 195.483 130.786 195.62C130.786 195.918 130.786 196.305 130.786 196.781C130.754 197.841 130.716 199.319 130.666 201.077C130.565 204.693 130.457 209.699 130.438 215.225C130.419 220.752 130.482 225.758 130.558 229.38C130.596 231.163 130.622 232.616 130.647 233.669C130.647 234.152 130.647 234.539 130.647 234.837C130.656 234.974 130.656 235.112 130.647 235.249C130.613 235.117 130.596 234.98 130.596 234.843C130.596 234.539 130.552 234.158 130.52 233.676C130.457 232.667 130.387 231.201 130.324 229.387C130.191 225.764 130.083 220.758 130.109 215.225C130.134 209.693 130.267 204.687 130.432 201.064C130.508 199.256 130.59 197.79 130.66 196.781L130.742 195.614C130.747 195.478 130.762 195.342 130.786 195.208Z" fill="#263238"/>
<path d="M132.882 208.557C132.44 210.299 131.505 211.877 130.191 213.1C130.121 213.036 130.824 212.104 131.584 210.854C132.344 209.604 132.793 208.525 132.882 208.557Z" fill="#263238"/>
<path d="M139.998 201.032C139.997 201.152 139.98 201.272 139.947 201.388C139.896 201.648 139.827 201.978 139.745 202.377C139.542 203.278 139.276 204.509 138.947 206.006C138.276 209.071 137.383 213.309 136.497 218.011C135.61 222.712 134.908 226.988 134.414 230.066C134.18 231.576 133.983 232.819 133.838 233.733C133.768 234.139 133.717 234.469 133.673 234.729C133.659 234.848 133.632 234.965 133.591 235.078C133.576 234.96 133.576 234.841 133.591 234.723C133.622 234.456 133.654 234.088 133.698 233.714C133.793 232.845 133.958 231.582 134.173 230.028C134.604 226.919 135.275 222.636 136.161 217.922C137.048 213.208 137.978 208.982 138.694 205.924C139.061 204.401 139.365 203.17 139.593 202.32L139.858 201.343C139.892 201.234 139.939 201.13 139.998 201.032Z" fill="#263238"/>
<path d="M142.802 208.138C141.993 209.097 141.101 209.982 140.137 210.784C139.243 211.667 138.275 212.472 137.244 213.189C138.053 212.226 138.947 211.339 139.915 210.537C140.807 209.655 141.773 208.853 142.802 208.138Z" fill="#263238"/>
<path d="M138.611 206.806C137.658 205.458 136.885 203.99 136.313 202.441C137.273 203.785 138.046 205.253 138.611 206.806Z" fill="#263238"/>
<path d="M152.97 188.546C152.871 187.51 153.141 186.473 153.734 185.619C154.326 184.765 155.202 184.15 156.205 183.883C156.329 184.922 156.068 185.971 155.472 186.83C154.875 187.69 153.985 188.3 152.97 188.546Z" fill="#198B34"/>
<path d="M154.002 190.671C154.971 192.219 158.01 192.575 159.827 191.591C159.158 190.72 158.181 190.139 157.097 189.968C156.014 189.797 154.906 190.049 154.002 190.671Z" fill="#198B34"/>
<g opacity="0.3">
<path d="M133.274 188.666C133.053 189.359 132.973 190.088 133.04 190.812C133.106 191.536 133.317 192.239 133.66 192.879C134.351 194.148 135.743 194.821 137.142 195.189C137.214 193.84 136.884 192.5 136.196 191.339C135.507 190.178 134.49 189.248 133.274 188.666Z" fill="black"/>
</g>
<path d="M58.7392 208.119C58.9136 208.45 59.0618 208.793 59.1823 209.147C59.4482 209.813 59.8154 210.79 60.227 212.009C61.0753 214.432 62.1263 217.827 63.0886 221.627C64.0509 225.428 64.703 228.93 65.1018 231.468C65.2981 232.737 65.4437 233.765 65.5197 234.482C65.5816 234.848 65.6133 235.22 65.6146 235.592C65.514 235.234 65.4399 234.869 65.3931 234.501L64.8676 231.506C64.4118 228.968 63.7153 225.504 62.7657 221.71C61.816 217.916 60.7967 214.521 60.0054 212.078L59.062 209.192C58.9272 208.843 58.8192 208.484 58.7392 208.119Z" fill="#FAFAFA"/>
<path d="M64.9499 213.576C65.0744 213.845 65.174 214.126 65.2475 214.413C65.4247 214.959 65.6653 215.758 65.9439 216.742C66.5137 218.715 67.2544 221.45 67.9951 224.495C68.7359 227.54 69.35 230.3 69.7615 232.312C69.9641 233.32 70.1223 234.133 70.2173 234.697C70.2893 234.988 70.3297 235.286 70.3376 235.586C70.2311 235.308 70.1485 235.021 70.0907 234.729C69.9451 234.095 69.7551 233.314 69.5336 232.362C69.0651 230.37 68.4193 227.61 67.6786 224.571C66.9378 221.532 66.2288 218.791 65.7223 216.805C65.4817 215.86 65.2854 215.067 65.1272 214.451C65.0353 214.167 64.9758 213.873 64.9499 213.576Z" fill="#FAFAFA"/>
<path d="M74.744 207.015C74.7134 207.384 74.652 207.749 74.5604 208.107C74.4211 208.805 74.2312 209.813 74.0159 211.063C73.4535 214.32 73.073 217.605 72.8763 220.904C72.69 224.205 72.69 227.513 72.8763 230.814C72.946 232.083 73.022 233.105 73.0789 233.815C73.1318 234.181 73.1509 234.55 73.1359 234.919C73.0519 234.56 72.9906 234.195 72.9523 233.828C72.851 233.124 72.7434 232.096 72.6421 230.827C72.1192 224.203 72.5004 217.539 73.7753 211.019C74.0223 209.75 74.2438 208.766 74.4084 208.081C74.4954 207.719 74.6075 207.362 74.744 207.015Z" fill="#FAFAFA"/>
<path d="M78.1311 223.454C78.0525 224.051 77.9383 224.642 77.7892 225.225C77.1966 228.048 76.9457 230.932 77.0421 233.815C77.0845 234.415 77.0845 235.017 77.0421 235.617C76.8859 235.033 76.7988 234.433 76.7826 233.828C76.6595 232.374 76.6595 230.911 76.7826 229.457C76.9054 228.003 77.1489 226.562 77.5106 225.149C77.6511 224.562 77.8593 223.993 78.1311 223.454Z" fill="#FAFAFA"/>
<path d="M262.395 203.392V203.475C262.395 203.538 262.433 203.615 262.465 203.71C262.522 203.919 262.623 204.224 262.731 204.617C262.959 205.404 263.256 206.558 263.548 207.999C264.265 211.761 264.582 215.59 264.491 219.419C264.415 223.905 263.972 227.947 263.649 230.84C263.478 232.286 263.345 233.466 263.244 234.298C263.206 234.697 263.168 235.008 263.142 235.237V235.484C263.142 235.541 263.142 235.567 263.142 235.567C263.142 235.567 263.142 235.567 263.142 235.484L263.187 235.243C263.187 235.015 263.263 234.704 263.326 234.304C263.44 233.492 263.598 232.312 263.782 230.852C264.296 227.056 264.609 223.236 264.719 219.407C264.809 215.574 264.473 211.744 263.718 207.986C263.408 206.546 263.085 205.391 262.838 204.611C262.725 204.217 262.611 203.919 262.541 203.71C262.541 203.621 262.478 203.545 262.459 203.481C262.44 203.418 262.402 203.392 262.395 203.392Z" fill="#198B34"/>
<path d="M264.339 212.573C264.516 212.757 265.637 211.939 266.656 210.575C267.675 209.211 268.157 207.91 267.922 207.789C267.688 207.669 266.89 208.728 265.909 210.023C264.928 211.317 264.162 212.396 264.339 212.573Z" fill="#198B34"/>
<path d="M260.92 208.824C260.762 209.027 261.408 209.794 262.307 210.613C263.206 211.431 264.035 211.99 264.206 211.812C264.377 211.634 263.832 210.765 262.908 209.909C261.984 209.052 261.059 208.627 260.92 208.824Z" fill="#198B34"/>
<path d="M263.877 208.925C264.092 209.039 265.023 207.688 265.624 205.753C266.226 203.818 266.257 202.206 266.004 202.174C265.751 202.143 265.333 203.653 264.738 205.48C264.143 207.307 263.649 208.805 263.877 208.925Z" fill="#198B34"/>
<path d="M259.236 203.437C259.053 203.602 259.869 204.845 261.135 206.203C262.402 207.561 263.516 208.532 263.7 208.36C263.883 208.189 263.066 206.952 261.8 205.588C260.534 204.224 259.426 203.266 259.236 203.437Z" fill="#198B34"/>
<path d="M264.548 217.027C264.719 217.211 266.017 216.279 267.308 214.807C268.6 213.335 269.353 211.926 269.151 211.78C268.948 211.634 267.884 212.77 266.618 214.198C265.352 215.625 264.377 216.843 264.548 217.027Z" fill="#198B34"/>
<path d="M261.693 212.484C261.49 212.637 261.952 213.582 262.725 214.591C263.497 215.6 264.282 216.298 264.485 216.145C264.687 215.993 264.225 215.048 263.453 214.033C262.68 213.017 261.895 212.332 261.693 212.484Z" fill="#198B34"/>
<path d="M264.554 221.615C264.725 221.792 265.96 220.847 267.049 219.299C268.138 217.751 268.619 216.272 268.391 216.171C268.163 216.069 267.346 217.3 266.302 218.772C265.257 220.244 264.371 221.437 264.554 221.615Z" fill="#198B34"/>
<path d="M261.807 217.522C261.623 217.7 262.11 218.518 262.838 219.426C263.567 220.333 264.269 220.955 264.478 220.802C264.687 220.65 264.295 219.756 263.548 218.842C262.8 217.928 261.99 217.351 261.807 217.522Z" fill="#198B34"/>
<path d="M264.231 225.504C264.421 225.675 265.586 224.66 266.833 223.245C268.081 221.83 268.935 220.542 268.733 220.371C268.53 220.2 267.378 221.221 266.131 222.636C264.883 224.051 264.041 225.339 264.231 225.504Z" fill="#198B34"/>
<path d="M260.806 221.957C260.61 222.122 261.268 223.226 262.193 224.451C263.117 225.675 263.991 226.614 264.206 226.468C264.421 226.322 263.877 225.155 262.94 223.892C262.003 222.63 260.996 221.792 260.806 221.957Z" fill="#198B34"/>
<path d="M263.788 230.478C263.965 230.656 265.377 229.59 266.954 228.086C268.53 226.582 269.644 225.225 269.486 225.041C269.328 224.857 267.897 225.923 266.321 227.426C264.744 228.93 263.617 230.294 263.788 230.478Z" fill="#198B34"/>
<path d="M260.8 226.1C260.578 226.208 260.92 227.369 261.762 228.486C262.604 229.603 263.573 230.307 263.744 230.123C263.915 229.939 263.288 229.031 262.478 227.947C261.667 226.862 261.028 225.98 260.8 226.1Z" fill="#198B34"/>
<path d="M8.05305 210.054C8.2846 210.342 8.49613 210.645 8.68616 210.962C9.06602 211.558 9.59782 212.434 10.2309 213.5C11.4971 215.689 13.1369 218.778 14.7259 222.293C16.315 225.808 17.5369 229.095 18.341 231.493C18.7398 232.692 19.0437 233.669 19.2336 234.348C19.3508 234.696 19.4418 235.053 19.5059 235.414C19.3516 235.081 19.2204 234.738 19.1133 234.386L18.1194 231.569C17.2647 229.196 16.0048 225.942 14.4284 222.433C12.852 218.924 11.2629 215.828 9.99668 213.614L8.54054 211.006C8.35489 210.701 8.19195 210.383 8.05305 210.054Z" fill="#263238"/>
<path d="M20.7467 199.846C20.7646 199.968 20.7646 200.092 20.7467 200.214C20.7467 200.487 20.7024 200.848 20.6644 201.261C20.5821 202.168 20.4808 203.475 20.3669 205.099C20.1326 208.341 19.93 212.833 19.987 217.789C20.044 222.744 20.3669 227.236 20.6834 230.478C20.8354 232.096 20.9747 233.409 21.0823 234.285C21.1266 234.71 21.1583 235.053 21.1899 235.325C21.2053 235.448 21.2053 235.571 21.1899 235.693C21.1523 235.578 21.1248 235.459 21.1076 235.338C21.0633 235.065 21.0126 234.704 20.943 234.304C20.7974 233.403 20.6201 232.096 20.4365 230.497C20.063 227.261 19.7148 222.769 19.6452 217.808C19.5755 212.846 19.8287 208.335 20.12 205.087C20.2656 203.462 20.4049 202.155 20.5252 201.28C20.5821 200.855 20.6328 200.512 20.6708 200.239C20.6849 200.106 20.7103 199.975 20.7467 199.846Z" fill="#263238"/>
<path d="M28.4642 213.728C28.3922 214.015 28.2904 214.294 28.1604 214.559C27.9451 215.079 27.6412 215.828 27.2803 216.786C25.3893 221.715 24.1134 226.86 23.4817 232.102C23.3614 233.105 23.2728 233.923 23.2158 234.488C23.2093 234.781 23.1689 235.073 23.0955 235.357C23.0722 235.064 23.0722 234.769 23.0955 234.475C23.0955 233.911 23.1652 233.086 23.2602 232.077C23.7588 226.79 25.039 221.607 27.0588 216.697C27.4513 215.765 27.7932 215.01 28.0464 214.502C28.1618 214.232 28.3017 213.973 28.4642 213.728Z" fill="#263238"/>
<path d="M17.176 235.44C16.5158 233.831 15.686 232.297 14.7006 230.865C13.624 229.5 12.4035 228.256 11.0603 227.153C11.5356 227.361 11.9757 227.641 12.3645 227.985C13.3379 228.752 14.2045 229.646 14.9412 230.643C15.6872 231.649 16.2922 232.753 16.7392 233.923C16.9628 234.403 17.1102 234.914 17.176 235.44Z" fill="#263238"/>
<path d="M250.24 200.537C250.297 200.642 250.342 200.752 250.373 200.867L250.702 201.838C250.981 202.676 251.335 203.9 251.791 205.423C252.671 208.462 253.747 212.707 254.678 217.478C255.609 222.249 256.191 226.563 256.52 229.71C256.685 231.284 256.799 232.559 256.856 233.447C256.856 233.86 256.9 234.196 256.919 234.463C256.934 234.58 256.934 234.7 256.919 234.818C256.888 234.704 256.867 234.587 256.856 234.469C256.824 234.202 256.786 233.866 256.735 233.46C256.628 232.534 256.476 231.271 256.299 229.736C255.906 226.601 255.279 222.274 254.361 217.541C253.443 212.808 252.392 208.563 251.576 205.486L250.582 201.876L250.316 200.893C250.274 200.778 250.249 200.659 250.24 200.537Z" fill="#263238"/>
<path d="M249.138 218.829C249.274 219.027 249.387 219.24 249.474 219.464C249.67 219.863 249.942 220.453 250.259 221.177C250.892 222.636 251.74 224.673 252.576 226.957C253.412 229.241 254.083 231.341 254.532 232.87C254.76 233.631 254.931 234.253 255.039 234.691C255.109 234.912 255.156 235.139 255.178 235.37C255.063 235.171 254.976 234.958 254.918 234.735C254.747 234.247 254.551 233.65 254.285 232.952C253.779 231.442 253.076 229.361 252.24 227.084C251.405 224.806 250.607 222.763 250.018 221.285C249.752 220.593 249.518 220.016 249.328 219.527C249.235 219.304 249.171 219.069 249.138 218.829Z" fill="#263238"/>
<path d="M253.203 233.86C252.446 232.372 251.6 230.931 250.67 229.545C249.646 228.223 248.54 226.967 247.359 225.783C247.795 226.021 248.194 226.323 248.543 226.678C250.323 228.294 251.75 230.262 252.734 232.458C252.958 232.9 253.116 233.372 253.203 233.86Z" fill="#263238"/>
<path d="M290.676 235.655C290.609 235.554 290.55 235.448 290.499 235.338C290.385 235.091 290.239 234.78 290.056 234.405C289.872 234.031 289.638 233.498 289.422 232.908C289.207 232.318 288.884 231.639 288.612 230.903C288.036 229.406 287.428 227.591 286.839 225.548C286.251 223.505 285.725 221.234 285.295 218.816C284.864 216.399 284.617 214.077 284.465 211.958C284.313 209.839 284.282 207.923 284.326 206.317C284.326 205.518 284.377 204.795 284.402 204.154C284.427 203.513 284.472 202.974 284.516 202.523C284.56 202.073 284.592 201.768 284.617 201.495C284.624 201.375 284.645 201.256 284.681 201.14C284.691 201.26 284.691 201.381 284.681 201.502C284.681 201.775 284.68 202.136 284.636 202.53C284.592 202.923 284.586 203.526 284.579 204.16C284.573 204.795 284.535 205.524 284.579 206.324C284.579 207.923 284.643 209.826 284.794 211.939C284.946 214.052 285.231 216.38 285.643 218.759C286.054 221.139 286.605 223.429 287.156 225.466C287.707 227.502 288.308 229.317 288.859 230.821C289.112 231.576 289.391 232.248 289.619 232.838C289.847 233.428 290.049 233.942 290.252 234.355L290.638 235.313C290.665 235.425 290.677 235.54 290.676 235.655Z" fill="#198B34"/>
<path d="M286.934 225.434C287.719 220.663 289.296 209.82 294.044 203.373C291.615 204.873 289.644 207.013 288.346 209.56C287.06 212.091 286.031 214.746 285.276 217.484C285.276 217.484 286.877 225.662 286.934 225.434Z" fill="#198B34"/>
<path d="M287.694 227.864C287.429 225.884 287.832 223.871 288.839 222.147C289.846 220.422 291.4 219.085 293.253 218.347C291.537 220.466 289.733 222.788 289.612 225.523C289.505 227.87 289.403 230.212 289.296 232.559C288.732 231.043 288.258 229.387 287.694 227.877" fill="#198B34"/>
<path d="M286.554 223.772C285.404 222.16 284.134 220.638 282.756 219.216C281.523 217.788 279.963 216.68 278.21 215.987C282.071 219.813 285.353 224.184 287.954 228.962" fill="#198B34"/>
<path d="M284.345 208.716C283.541 205.734 281.757 203.112 279.28 201.273C279.486 201.826 279.74 202.359 280.04 202.866C281.61 205.727 282.965 208.576 284.541 211.45" fill="#198B34"/>
<path d="M284.554 202.86C285.046 200.573 285.974 198.403 287.289 196.47C288.616 194.53 290.539 193.075 292.765 192.327C288.834 195.892 285.947 200.463 284.415 205.55" fill="#198B34"/>
<path d="M284.915 202.092C284.87 199.611 284.047 197.016 282.142 195.436C281.782 195.092 281.324 194.87 280.831 194.802C280.585 194.775 280.337 194.833 280.128 194.967C279.92 195.101 279.764 195.302 279.685 195.538C279.655 195.727 279.673 195.921 279.737 196.102C279.801 196.283 279.91 196.444 280.053 196.572C280.342 196.819 280.658 197.032 280.996 197.206C281.975 197.826 282.798 198.664 283.402 199.654C284.006 200.644 284.374 201.761 284.478 202.917" fill="#198B34"/>
<path d="M9.81307 235.465C9.75848 235.387 9.71182 235.305 9.67379 235.218C9.58516 235.021 9.4712 234.78 9.32559 234.482C9.17997 234.183 8.99637 233.771 8.80644 233.308C8.61651 232.845 8.38859 232.324 8.17334 231.728C7.71751 230.554 7.24268 229.127 6.77419 227.521C6.30569 225.916 5.90051 224.127 5.56496 222.23C5.22942 220.333 5.03316 218.506 4.93186 216.843C4.83056 215.181 4.78625 213.671 4.8179 212.402C4.8179 211.768 4.86222 211.203 4.88121 210.702C4.90021 210.2 4.93819 209.769 4.96985 209.433C5.0015 209.096 5.03316 208.836 5.05215 208.627C5.05684 208.53 5.0717 208.435 5.09647 208.341C5.11109 208.436 5.11109 208.532 5.09647 208.627C5.09647 208.843 5.09647 209.109 5.09647 209.439C5.09647 209.769 5.05848 210.219 5.05215 210.708C5.04582 211.196 5.01416 211.774 5.05215 212.402C5.05215 213.671 5.09647 215.162 5.21676 216.843C5.33705 218.525 5.56496 220.314 5.88784 222.205C6.21072 224.095 6.64123 225.872 7.07807 227.477C7.51491 229.082 7.98341 230.503 8.41392 231.684C8.61651 232.28 8.83177 232.807 9.00903 233.27C9.1863 233.733 9.35091 234.139 9.49019 234.463C9.62948 234.786 9.71178 235.015 9.79408 235.211C9.87638 235.408 9.82574 235.459 9.81307 235.465Z" fill="#198B34"/>
<path d="M6.86916 227.433C7.50226 223.683 8.73047 215.156 12.4594 210.093C10.5697 211.28 9.03775 212.96 8.02773 214.953C7.02073 216.945 6.21276 219.032 5.61562 221.183C5.61562 221.183 6.84383 227.61 6.86916 227.433Z" fill="#198B34"/>
<path d="M7.4706 229.374C7.26155 227.816 7.57784 226.232 8.36925 224.875C9.16067 223.517 10.3819 222.464 11.839 221.881C10.4905 223.55 9.07234 225.377 8.97738 227.521L8.73047 233.054C8.2873 231.861 7.91377 230.567 7.46427 229.374" fill="#198B34"/>
<path d="M6.5716 226.126C5.66084 224.858 4.6578 223.66 3.57069 222.541C2.59776 221.423 1.37395 220.554 0 220.003C3.04026 223.012 5.62722 226.449 7.67952 230.205" fill="#198B34"/>
<path d="M4.84956 214.293C4.20991 211.942 2.79517 209.878 0.835693 208.437C0.997734 208.877 1.19903 209.301 1.43714 209.705C2.70334 211.958 3.7353 214.204 4.96985 216.45" fill="#198B34"/>
<path d="M5.0015 209.706C5.38844 207.907 6.11942 206.2 7.15405 204.68C8.20083 203.147 9.71949 202 11.4781 201.413C8.3784 204.21 6.10145 207.804 4.89388 211.806" fill="#198B34"/>
<path d="M5.2864 209.071C5.2864 207.123 4.60265 205.087 3.10853 203.837C2.82347 203.569 2.46314 203.397 2.07658 203.342C1.88274 203.321 1.68764 203.367 1.52318 203.472C1.35872 203.577 1.23465 203.734 1.17124 203.919C1.15094 204.069 1.16679 204.221 1.21746 204.364C1.26813 204.506 1.35215 204.634 1.46247 204.738C1.69068 204.935 1.93896 205.107 2.2032 205.252C2.96922 205.735 3.6146 206.388 4.0898 207.16C4.56499 207.932 4.85738 208.803 4.94453 209.706" fill="#198B34"/>
<path d="M182.941 199.205C182.941 199.205 189.456 206.133 183.745 221.411L190.5 235.37L194.476 235.237L189.855 221.335C189.855 221.335 192.058 218.626 194.66 206.381L195.565 198.653L182.941 199.205Z" fill="#6F4439"/>
<path opacity="0.3" d="M182.941 199.205C182.941 199.205 189.456 206.133 183.745 221.411L190.5 235.37L194.476 235.237L189.855 221.335C189.855 221.335 192.058 218.626 194.66 206.381L195.565 198.653L182.941 199.205Z" fill="#6F4439"/>
<path d="M233.918 201.216C232.882 202.171 232.061 203.336 231.509 204.633C230.956 205.931 230.686 207.331 230.715 208.741C230.715 213.563 231.152 235.319 231.152 235.319H228.461L224.783 212.358L226.435 204.192L233.918 201.216Z" fill="#6F4439"/>
<path opacity="0.3" d="M234.279 200.408C233.243 201.362 232.421 202.527 231.869 203.825C231.317 205.122 231.046 206.522 231.075 207.932C231.075 212.754 231.512 234.51 231.512 234.51H228.822L225.143 211.549L226.796 203.383L234.279 200.408Z" fill="black"/>
<path d="M245.01 168.052L242.218 165.026L238.369 159.5C238.369 159.5 237.837 166.282 236.52 169.48C235.204 172.678 229.936 174.556 228.803 174.651C227.67 174.746 214.976 176.446 214.976 176.446C214.976 176.446 187.81 176.339 184.391 176.916C182.562 177.29 180.889 178.21 179.592 179.555C179.592 179.555 175.262 182.728 176.11 190.494C176.958 198.26 181.099 205.397 180.719 207.751C180.339 210.105 172.159 216.431 172.159 216.431V235.319H175.958C175.958 235.319 176.04 223.029 177.262 221.614C178.484 220.2 186.126 215.111 189.291 211.717C191.601 209.093 193.649 206.25 195.407 203.228C197.809 204.695 200.592 205.417 203.403 205.302C208.113 205.112 220.25 203.697 220.25 203.697C220.25 203.697 222.782 205.962 222.32 209.261C222.018 212.112 221.891 214.979 221.94 217.846L225.239 235.192L229.284 235.287C229.284 235.287 228.062 208.887 229.658 205.581C231.253 202.276 235.609 202.231 238.654 196.229C241.186 191.217 245.7 183.8 246.853 181.161C248.005 178.521 249.385 168.217 249.385 168.217L245.01 168.052Z" fill="#6F4439"/>
<g opacity="0.3">
<path d="M239.224 161.486C239.952 163.211 240.439 164.791 241.167 166.511C241.554 167.424 242.009 168.414 242.896 168.846C243.618 169.201 244.555 169.156 245.099 169.746C244.193 169.987 243.236 169.95 242.351 169.639C241.485 169.283 240.713 168.731 240.097 168.025C239.48 167.319 239.036 166.479 238.8 165.572C238.339 163.75 238.272 161.851 238.603 160.001L239.236 161.486" fill="black"/>
</g>
<path d="M240.788 192.238C239.667 185.354 241.769 178.673 243.763 171.992C243.898 171.297 244.243 170.659 244.751 170.165C245.966 169.226 248.151 169.366 249.334 168.382C248.94 172.486 248.188 176.547 247.087 180.52C246.485 182.423 245.143 184.511 244.162 186.23L240.788 192.219" fill="white"/>
<path d="M261.591 137.223C261.683 137.038 261.698 136.824 261.634 136.627C261.57 136.43 261.432 136.266 261.249 136.17C261.15 136.111 261.034 136.089 260.92 136.107C260.464 136.208 259.28 139.057 259.28 139.057C259.35 139.184 257.78 136.519 257.071 135.092C256.938 134.819 255.754 135.244 256.21 136.208C256.666 137.173 258.54 141.684 258.337 143.004C258.274 143.637 258.102 144.255 257.831 144.831C257.831 144.831 256.932 141.214 256.159 140.827C255.589 140.535 255.07 140.523 255.602 142.547C256.387 145.548 256.324 146.906 255.298 148.029C254.152 149.297 251.709 149.9 251.253 149.24C250.797 148.581 249.835 147.064 250.138 145.795C250.442 144.526 249.987 143.613 249.075 144.323C248.453 145.394 248.215 146.645 248.397 147.87C248.52 148.932 248.782 149.973 249.176 150.966L248.157 153.295L250.784 155.42L253.222 152.146C253.222 152.146 257.305 150.205 259.072 147.159C260.838 144.114 260.009 140.548 260.009 140.548L261.591 137.223Z" fill="#455A64"/>
<path d="M229.265 138.353C229.174 138.169 229.157 137.957 229.22 137.761C229.283 137.565 229.419 137.402 229.601 137.306C229.702 137.247 229.821 137.227 229.936 137.249C230.392 137.35 231.576 140.199 231.576 140.199C231.506 140.326 233.07 137.661 233.785 136.24C233.918 135.961 235.096 136.392 234.646 137.35C234.197 138.308 232.317 142.832 232.519 144.146C232.583 144.779 232.754 145.397 233.026 145.973C233.026 145.973 233.925 142.363 234.691 141.969C235.261 141.677 235.786 141.671 235.254 143.695C234.469 146.696 234.533 148.048 235.552 149.171C236.704 150.439 239.148 151.074 239.604 150.389C240.059 149.704 241.022 148.206 240.718 146.937C240.414 145.668 240.87 144.755 241.775 145.465C242.399 146.535 242.638 147.787 242.453 149.012C242.33 150.073 242.07 151.114 241.68 152.108L242.7 154.437L240.072 156.568L237.635 153.295C237.635 153.295 233.551 151.347 231.779 148.301C230.006 145.256 230.848 141.665 230.848 141.665L229.265 138.353Z" fill="#455A64"/>
<g opacity="0.3">
<path d="M245.833 168.065C244.2 167.729 243.13 166.162 242.155 164.766C241.008 163.125 239.76 161.557 238.42 160.071" fill="black"/>
</g>
<path d="M239.224 155.775C239.224 155.775 237.603 148.917 231.24 151.467C230.981 151.569 230.303 157.596 234.716 158.586C234.716 158.586 237.306 158.275 238.034 159.221C238.762 160.166 239.692 162.964 239.692 162.964C239.692 162.964 241.718 168.16 242.7 168.782C243.933 169.555 245.36 169.961 246.815 169.956C247.823 169.781 248.728 169.23 249.347 168.414C249.826 167.889 250.118 167.22 250.176 166.511C250.126 165.876 250.436 161.993 250.81 161.314C251.183 160.635 252.209 158.618 252.209 158.618C253.05 158.838 253.94 158.774 254.742 158.436C255.543 158.097 256.21 157.503 256.64 156.746C257.744 154.96 258.518 152.989 258.926 150.928C258.926 150.928 255.039 149.418 253.228 151.81C251.417 154.202 250.791 155.084 250.791 155.084L248.163 152.952C246.343 153.697 244.31 153.731 242.465 153.047L239.224 155.775Z" fill="#6F4439"/>
<path d="M240.173 159.081C240.218 159.626 240.459 160.135 240.851 160.515C240.973 160.618 241.117 160.692 241.271 160.734C241.425 160.775 241.586 160.783 241.744 160.756C242.06 160.701 242.358 160.568 242.611 160.369C242.542 160.12 242.424 159.887 242.263 159.685C242.102 159.484 241.901 159.317 241.674 159.195C241.445 159.075 241.193 159.002 240.935 158.983C240.677 158.963 240.418 158.997 240.173 159.081Z" fill="#263238"/>
<path d="M239.876 158.732C239.794 158.732 239.642 158.098 240.129 157.431C240.617 156.765 241.326 156.752 241.319 156.841C241.313 156.93 240.788 157.101 240.389 157.628C239.99 158.155 239.971 158.732 239.876 158.732Z" fill="#263238"/>
<path d="M240.813 162.012C240.813 162.101 240.18 161.904 239.889 161.238C239.597 160.572 239.832 159.969 239.889 160.026C239.946 160.084 239.889 160.566 240.161 161.099C240.433 161.632 240.857 161.936 240.813 162.012Z" fill="#198B34"/>
<path d="M248.834 160.458L248.872 160.528C248.807 160.285 248.802 160.03 248.857 159.784C248.913 159.539 249.026 159.311 249.189 159.119C249.355 158.93 249.565 158.783 249.799 158.692C250.034 158.6 250.287 158.566 250.537 158.592C250.596 158.598 250.652 158.623 250.696 158.662C250.725 158.71 250.738 158.765 250.734 158.821C250.755 159.102 250.731 159.385 250.664 159.658C250.568 160.005 250.341 160.301 250.031 160.483C249.708 160.656 249.332 160.697 248.98 160.597" fill="#263238"/>
<path d="M251.31 158.567C251.31 158.618 251.063 158.611 250.677 158.656C250.217 158.687 249.777 158.852 249.41 159.132C249.107 159.482 248.954 159.938 248.986 160.401C248.986 160.788 248.936 161.035 248.891 161.035C248.847 161.035 248.796 160.807 248.752 160.401C248.718 160.167 248.718 159.93 248.752 159.696C248.795 159.386 248.943 159.1 249.17 158.884C249.595 158.543 250.133 158.376 250.677 158.415C251.082 158.44 251.316 158.529 251.31 158.567Z" fill="#263238"/>
<g opacity="0.3">
<path d="M257.666 151.188C256.665 151.439 255.693 151.797 254.766 152.254C253.832 152.716 253.069 153.465 252.589 154.392C252.358 154.857 252.252 155.374 252.281 155.892C252.31 156.411 252.472 156.913 252.753 157.349L252.899 157.476C252.971 157.594 253.08 157.686 253.209 157.736C253.339 157.787 253.481 157.793 253.614 157.755C253.88 157.681 254.125 157.547 254.33 157.362C255.323 156.629 256.18 155.727 256.862 154.697C257.524 153.654 257.808 152.416 257.666 151.188Z" fill="black"/>
</g>
<g opacity="0.3">
<path d="M236.679 157.266C237.01 157.194 237.311 157.019 237.538 156.767C237.765 156.514 237.908 156.196 237.945 155.858C238.003 155.176 237.805 154.497 237.388 153.954C236.811 153.167 236.019 152.564 235.109 152.216C234.2 151.875 233.236 151.705 232.266 151.715C232.187 151.709 232.107 151.72 232.032 151.747C231.823 151.848 231.829 152.146 231.867 152.381C232.005 153.26 232.268 154.114 232.646 154.919C233.026 155.728 233.627 156.412 234.381 156.892C234.759 157.128 235.184 157.281 235.625 157.341C236.067 157.401 236.517 157.367 236.945 157.241" fill="black"/>
</g>
<path d="M179.332 180.076C176.496 178.838 173.337 177.569 170.399 178.54C168.899 179.029 167.645 180.05 166.335 180.932C165.024 181.814 163.537 182.594 161.96 182.487C163.483 183.765 165.377 184.517 167.36 184.631C169.343 184.745 171.31 184.216 172.97 183.121C172.885 183.554 172.689 183.957 172.402 184.291C172.114 184.624 171.745 184.877 171.33 185.025C172.868 185.354 174.299 184.219 175.47 183.159C176.642 182.1 178.085 180.983 179.617 181.332" fill="#6F4439"/>
<path d="M179.617 181.351C178.085 181.002 176.642 182.125 175.47 183.178C174.299 184.231 172.868 185.373 171.33 185.044C171.745 184.896 172.114 184.643 172.402 184.31C172.689 183.976 172.885 183.573 172.97 183.14C171.31 184.235 169.343 184.764 167.36 184.65C165.377 184.536 163.483 183.784 161.96 182.506C161.96 182.506 164.695 183.292 166.531 182.442C168.367 181.592 168.342 180.228 172.045 179.86C175.749 179.492 179.617 181.351 179.617 181.351Z" fill="white"/>
<path d="M196.926 187.417C197.036 187.615 197.117 187.829 197.167 188.051C197.353 188.629 197.503 189.218 197.616 189.815C198.372 193.799 197.884 197.92 196.217 201.616C195.971 202.174 195.688 202.714 195.369 203.234C195.262 203.431 195.135 203.616 194.989 203.786C194.938 203.754 195.419 202.936 196.002 201.527C197.525 197.839 198.002 193.802 197.382 189.859C197.148 188.343 196.869 187.436 196.926 187.417Z" fill="#263238"/>
<path d="M219.946 203.875C219.908 203.843 220.326 203.348 220.877 202.473C222.283 200.166 223.281 197.633 223.827 194.986C223.902 194.429 224.006 193.876 224.137 193.33C224.195 193.895 224.169 194.466 224.061 195.024C223.854 196.378 223.493 197.705 222.985 198.977C222.499 200.256 221.861 201.472 221.085 202.599C220.782 203.087 220.397 203.519 219.946 203.875Z" fill="#263238"/>
<path d="M234.051 192.759C233.898 192.069 233.78 191.373 233.697 190.671C233.432 189.004 233.062 187.355 232.589 185.735C232.111 184.115 231.529 182.528 230.848 180.983C230.535 180.364 230.256 179.729 230.012 179.08C230.139 179.221 230.245 179.379 230.329 179.549C230.519 179.86 230.772 180.329 231.063 180.913C231.809 182.443 232.425 184.032 232.905 185.665C233.386 187.3 233.727 188.972 233.925 190.665C234.001 191.299 234.039 191.839 234.045 192.207C234.076 192.389 234.078 192.576 234.051 192.759Z" fill="#263238"/>
<path d="M236.679 188.273C236.519 187.6 236.403 186.918 236.331 186.23C236.116 184.587 235.745 182.968 235.223 181.395C234.685 179.831 233.822 178.399 232.69 177.195C231.804 176.282 231.101 175.926 231.133 175.85C231.313 175.905 231.484 175.989 231.639 176.098C232.075 176.361 232.481 176.671 232.848 177.024C234.056 178.216 234.968 179.673 235.514 181.281C236.046 182.875 236.39 184.525 236.539 186.198C236.651 186.884 236.698 187.579 236.679 188.273Z" fill="#263238"/>
<path d="M220.927 180.989C220.894 180.878 220.834 180.776 220.752 180.692C220.671 180.609 220.57 180.546 220.46 180.51C220.349 180.474 220.231 180.465 220.116 180.485C220.002 180.504 219.893 180.551 219.8 180.621C219.011 181.432 218.368 182.375 217.901 183.407C217.84 183.533 217.808 183.672 217.808 183.813C217.808 183.953 217.84 184.092 217.901 184.219C218.198 184.802 218.92 184.618 219.376 184.295C220.402 183.572 221.32 182.277 220.927 180.989Z" fill="white"/>
<path d="M213.279 181.687C212.601 181.874 211.982 182.233 211.481 182.728C211.24 182.954 211.096 183.265 211.081 183.596C211.065 183.927 211.18 184.25 211.399 184.498C211.577 184.635 211.791 184.719 212.015 184.741C212.239 184.762 212.464 184.72 212.665 184.618C213.058 184.422 213.395 184.129 213.647 183.768C213.959 183.433 214.148 183.001 214.185 182.544C214.182 182.428 214.157 182.313 214.11 182.207C214.063 182.101 213.995 182.005 213.911 181.926C213.827 181.846 213.727 181.784 213.619 181.743C213.511 181.702 213.395 181.683 213.279 181.687Z" fill="white"/>
<path d="M206.473 183.28C206.283 183.134 206.055 183.045 205.817 183.024C205.578 183.002 205.338 183.049 205.125 183.159C205.064 183.185 205.005 183.215 204.948 183.248C204.285 183.591 203.723 184.103 203.321 184.733C203.217 184.869 203.143 185.025 203.101 185.19C203.06 185.356 203.052 185.529 203.079 185.698C203.105 185.867 203.166 186.028 203.256 186.173C203.347 186.318 203.466 186.443 203.606 186.541C204.239 186.852 204.935 186.42 205.505 186.002C205.973 185.698 206.368 185.295 206.663 184.822C206.799 184.578 206.854 184.297 206.82 184.019C206.786 183.742 206.665 183.483 206.473 183.28Z" fill="white"/>
<path d="M215.337 186.731C215.06 186.645 214.764 186.638 214.484 186.711C214.203 186.783 213.948 186.933 213.748 187.144C213.69 187.2 213.635 187.259 213.583 187.321C212.961 187.982 212.524 188.797 212.317 189.682C212.121 190.494 212.558 191.522 213.387 191.623C214.216 191.725 214.843 190.938 215.286 190.24C215.694 189.702 215.977 189.08 216.116 188.419C216.183 188.091 216.143 187.751 216.003 187.447C215.863 187.143 215.629 186.892 215.337 186.731Z" fill="white"/>
<path d="M226.334 177.734C226.315 177.465 226.226 177.206 226.075 176.983C225.923 176.76 225.716 176.582 225.473 176.465C224.966 176.256 223.979 176.434 223.782 176.948C223.44 177.527 223.239 178.179 223.194 178.851C223.182 179.191 223.288 179.525 223.493 179.797C223.699 180.068 223.991 180.261 224.321 180.342C224.657 180.337 224.986 180.236 225.267 180.05C225.548 179.865 225.771 179.603 225.91 179.295C226.209 178.831 226.357 178.286 226.334 177.734Z" fill="white"/>
<path d="M202.89 178.731C202.713 178.632 202.524 178.557 202.327 178.508C201.684 178.315 201.003 178.283 200.345 178.413C200.071 178.417 199.807 178.518 199.6 178.698C199.393 178.878 199.255 179.126 199.212 179.397C199.169 179.668 199.223 179.946 199.364 180.182C199.505 180.417 199.725 180.595 199.984 180.685C200.374 180.843 200.786 180.935 201.206 180.958C201.674 181.05 202.156 181.05 202.624 180.958C202.876 180.923 203.109 180.806 203.286 180.624C203.464 180.442 203.577 180.207 203.606 179.954C203.636 179.702 203.581 179.446 203.45 179.228C203.32 179.01 203.12 178.842 202.884 178.75L202.89 178.731Z" fill="white"/>
<path d="M210.987 178.54C210.81 178.301 210.548 178.138 210.256 178.085C209.963 178.032 209.661 178.093 209.411 178.255L209.588 178.185C208.987 178.312 208.848 179.206 209.113 179.765C209.188 179.899 209.289 180.017 209.41 180.111C209.532 180.205 209.671 180.274 209.819 180.313C209.967 180.352 210.122 180.361 210.274 180.339C210.426 180.316 210.572 180.264 210.703 180.183C210.952 179.999 211.121 179.725 211.174 179.419C211.227 179.113 211.16 178.798 210.987 178.54Z" fill="white"/>
<path d="M225.093 185.196C224.917 184.957 224.656 184.794 224.364 184.741C224.073 184.688 223.772 184.749 223.523 184.91L223.7 184.841C223.099 184.974 222.953 185.862 223.225 186.42C223.299 186.554 223.4 186.672 223.52 186.766C223.641 186.861 223.78 186.929 223.927 186.968C224.075 187.007 224.23 187.016 224.381 186.994C224.532 186.972 224.678 186.919 224.808 186.839C225.059 186.656 225.229 186.382 225.282 186.075C225.335 185.769 225.268 185.453 225.093 185.196Z" fill="white"/>
<path d="M217.825 177.779C217.637 177.791 217.454 177.846 217.29 177.938C217.126 178.03 216.984 178.158 216.875 178.312C216.571 178.686 216.666 179.397 217.141 179.505C217.266 179.52 217.393 179.507 217.513 179.466C217.632 179.425 217.741 179.358 217.831 179.27C218.096 179.009 218.259 178.663 218.293 178.293C218.388 177.766 217.825 177.779 217.825 177.779Z" fill="white"/>
<path d="M242.681 160.851C242.63 160.851 242.617 160.635 242.497 160.331C242.354 159.941 242.09 159.608 241.744 159.379C241.364 159.192 240.945 159.1 240.522 159.113C240.186 159.113 239.971 159.113 239.958 159.081C239.946 159.049 240.148 158.935 240.503 158.878C240.98 158.795 241.472 158.87 241.902 159.094C242.111 159.222 242.292 159.393 242.433 159.595C242.573 159.797 242.671 160.026 242.719 160.267C242.794 160.654 242.719 160.883 242.681 160.851Z" fill="#263238"/>
<path d="M240.661 162.05C240.629 162.133 240.072 161.854 239.901 161.149C239.73 160.445 240.129 159.95 240.192 160.014C240.256 160.077 240.091 160.521 240.224 161.08C240.357 161.638 240.718 161.974 240.661 162.05Z" fill="#263238"/>
<path d="M251.272 158.25C251.164 158.25 251.189 157.837 251.107 157.431C251.025 157.025 250.74 156.841 250.753 156.759C250.765 156.676 250.886 156.695 251.044 156.791C251.143 156.855 251.229 156.938 251.295 157.036C251.362 157.135 251.408 157.245 251.43 157.362C251.525 157.895 251.341 158.256 251.272 158.25Z" fill="#263238"/>
<path d="M257.704 151.264C257.284 151.475 256.842 151.641 256.387 151.759C255.323 152.082 254.345 152.642 253.526 153.396C253.093 153.813 252.769 154.329 252.582 154.9C252.44 155.369 252.414 155.865 252.506 156.346C252.608 156.801 252.794 157.231 253.057 157.615C252.852 157.481 252.677 157.306 252.543 157.101C252.409 156.895 252.319 156.665 252.278 156.423C252.142 155.905 252.142 155.361 252.278 154.843C252.464 154.214 252.808 153.643 253.279 153.187C254.132 152.395 255.174 151.835 256.305 151.563C256.755 151.399 257.226 151.299 257.704 151.264Z" fill="#263238"/>
<path d="M232.013 151.759C232.499 151.663 232.998 151.65 233.488 151.721C234.024 151.758 234.553 151.86 235.064 152.026C235.701 152.233 236.292 152.56 236.805 152.99C237.341 153.412 237.743 153.981 237.964 154.627C238.147 155.164 238.125 155.749 237.901 156.27C237.752 156.619 237.497 156.912 237.173 157.108C236.945 157.241 236.799 157.247 236.793 157.235C237.194 156.987 237.506 156.618 237.685 156.181C237.86 155.711 237.86 155.193 237.685 154.722C237.47 154.137 237.095 153.625 236.603 153.244C235.7 152.531 234.613 152.091 233.469 151.975C232.98 151.932 232.493 151.86 232.013 151.759Z" fill="#263238"/>
<path d="M249.588 165.984C249.299 165.374 248.845 164.857 248.277 164.493C247.429 163.909 245.985 164.112 245.01 164.461L244.757 164.81C244.415 165.099 244.122 165.442 243.89 165.825C243.779 166.016 243.713 166.23 243.699 166.45C243.685 166.67 243.722 166.891 243.807 167.094C243.904 167.257 244.033 167.397 244.187 167.506C244.341 167.615 244.515 167.691 244.7 167.729C244.828 167.763 244.949 167.817 245.061 167.887C245.58 168.344 246.234 168.618 246.922 168.668C248.03 168.668 248.011 167.995 248.442 167.824C248.676 167.729 249.075 167.748 249.334 167.672C249.594 167.596 249.74 167.202 249.752 166.955C249.74 166.625 249.684 166.299 249.588 165.984Z" fill="white"/>
<path d="M249.588 167.285C249.588 167.285 249.385 167.513 248.917 167.64C248.638 167.714 248.347 167.731 248.062 167.691C247.876 167.668 247.696 167.609 247.533 167.516C247.37 167.424 247.227 167.3 247.112 167.151H247.365C247.315 167.202 247.264 167.259 247.207 167.31C246.942 167.539 246.626 167.699 246.284 167.777C245.943 167.854 245.588 167.847 245.251 167.754C244.738 167.608 244.523 167.335 244.548 167.31C244.574 167.285 244.833 167.45 245.302 167.526C245.6 167.575 245.905 167.558 246.197 167.479C246.489 167.399 246.76 167.257 246.992 167.063L247.119 166.936L247.264 166.796L247.378 166.948C247.569 167.144 247.806 167.288 248.067 167.368C248.328 167.448 248.605 167.461 248.872 167.405C249.309 167.361 249.562 167.24 249.588 167.285Z" fill="#263238"/>
<path d="M248.657 164.024C248.805 164.092 248.929 164.204 249.013 164.344C249.096 164.485 249.135 164.647 249.126 164.81C249.12 164.988 249.066 165.161 248.969 165.31C248.872 165.459 248.735 165.578 248.575 165.654C248.471 165.687 248.375 165.738 248.29 165.806C248.207 165.883 248.182 166.028 248.29 166.092C248.332 166.117 248.377 166.138 248.423 166.155C248.543 166.25 248.423 166.447 248.334 166.542C247.957 166.856 247.476 167.017 246.986 166.994C246.497 166.97 246.033 166.764 245.688 166.415C245.454 166.054 246.08 166.308 246.093 166.111C246.086 166.012 246.056 165.917 246.005 165.832C245.954 165.747 245.885 165.675 245.802 165.622C245.63 165.527 245.45 165.446 245.264 165.381C245.074 165.317 244.913 165.19 244.808 165.02C244.745 164.864 244.738 164.692 244.786 164.532C244.834 164.371 244.936 164.232 245.074 164.138C245.357 163.957 245.682 163.852 246.017 163.833C246.948 163.713 247.714 163.548 248.676 164.024" fill="#263238"/>
<path d="M195.489 203.285C195.653 202.827 195.936 202.423 196.309 202.112C196.682 201.802 197.131 201.598 197.61 201.521C198.564 201.362 199.537 201.362 200.491 201.521C207.151 202.231 213.609 202.009 220.117 203.684C220.117 203.684 217.724 204.002 216.28 204.154C212.684 204.541 208.949 204.858 205.517 205.144C201.966 205.442 198.249 205.175 195.514 203.24" fill="white"/>
<path d="M246.258 159.684C246.09 159.629 245.908 159.64 245.749 159.714C245.589 159.788 245.463 159.92 245.397 160.083C245.355 160.246 245.376 160.419 245.454 160.568C245.532 160.716 245.663 160.831 245.821 160.888C245.978 160.946 246.152 160.943 246.307 160.88C246.463 160.817 246.59 160.698 246.663 160.547C246.714 160.378 246.701 160.196 246.626 160.037C246.551 159.877 246.42 159.752 246.258 159.684Z" fill="white"/>
<path d="M247.714 156.93C247.653 156.842 247.564 156.777 247.462 156.744C247.36 156.712 247.251 156.715 247.15 156.753C246.941 156.803 246.758 156.924 246.549 156.975C246.224 157.023 245.893 156.969 245.599 156.822C245.307 156.672 244.993 156.569 244.668 156.518C244.346 156.486 243.896 156.569 243.845 156.981C243.643 158.021 244.808 158.643 245.688 158.713C246.13 158.741 246.569 158.621 246.935 158.371C247.302 158.122 247.576 157.758 247.714 157.336C247.765 157.206 247.765 157.061 247.714 156.93Z" fill="white"/>
<path d="M245.726 155.864C245.757 155.864 245.859 155.947 246.004 156.137L246.175 156.359L245.89 156.277C245.351 156.106 244.858 155.815 244.447 155.426C243.896 154.985 243.534 154.35 243.434 153.65C243.828 154.184 244.251 154.697 244.7 155.185C245.081 155.544 245.506 155.851 245.966 156.099L245.846 156.239C245.726 156.016 245.669 155.883 245.726 155.864Z" fill="#263238"/>
<path d="M246.277 156.086C246.239 156.162 245.84 156.048 245.466 155.718C245.093 155.388 244.928 155.014 245.004 154.963C245.08 154.913 245.346 155.179 245.688 155.471C246.03 155.763 246.315 156.004 246.277 156.086Z" fill="#263238"/>
<path d="M247.068 155.775C247.068 155.864 246.701 155.947 246.302 155.731C245.903 155.515 245.764 155.154 245.846 155.097C245.928 155.039 246.144 155.255 246.479 155.42C246.815 155.585 247.068 155.661 247.068 155.775Z" fill="#263238"/>
<g opacity="0.3">
<path d="M195.894 202.092C196.868 201.41 197.674 200.515 198.251 199.475C198.829 198.436 199.164 197.278 199.231 196.09C199.378 193.669 198.757 191.264 197.458 189.218C198.082 193.573 197.543 198.015 195.894 202.092Z" fill="black"/>
</g>
<g opacity="0.3">
<path d="M230.386 179.378C231.921 182.081 233.193 184.926 234.184 187.873C234.396 188.431 234.528 189.017 234.577 189.612C234.621 190.214 234.425 190.81 234.032 191.268C233.539 187.123 232.265 183.11 230.278 179.441" fill="black"/>
</g>
<g opacity="0.3">
<path d="M177.414 182.309C177.05 183.168 176.955 184.117 177.142 185.031C177.212 185.367 177.382 185.748 177.718 185.811C178.054 185.875 178.389 185.532 178.566 185.177C179.044 184.184 179.373 183.126 179.541 182.036C179.602 181.852 179.589 181.652 179.503 181.478C179.444 181.408 179.37 181.352 179.287 181.314C179.204 181.276 179.114 181.256 179.022 181.256C178.627 181.241 178.238 181.349 177.908 181.567C177.577 181.784 177.323 182.099 177.18 182.468" fill="black"/>
</g>
<path d="M191.184 177.753C190.643 177.807 190.1 177.826 189.557 177.811C188.256 177.846 186.96 177.988 185.682 178.236C184.404 178.482 183.148 178.835 181.928 179.289C181.429 179.503 180.917 179.687 180.396 179.841C180.841 179.521 181.326 179.263 181.839 179.073C183.059 178.546 184.333 178.155 185.638 177.906C186.935 177.655 188.255 177.544 189.576 177.576C190.117 177.563 190.658 177.623 191.184 177.753Z" fill="white"/>
<path d="M237.787 168.389C237.818 168.739 237.766 169.091 237.635 169.417C237.386 170.221 236.977 170.967 236.433 171.609C235.889 172.252 235.221 172.777 234.469 173.154C234.17 173.335 233.831 173.442 233.482 173.464C234.522 172.976 235.446 172.271 236.192 171.395C236.937 170.52 237.488 169.495 237.806 168.389H237.787Z" fill="white"/>
<path d="M158 40C157.462 39.0649 156.855 38.1698 156.185 37.322C155.523 36.4157 154.734 35.6067 153.842 34.9194C153.567 34.7173 153.257 34.5669 152.927 34.4757C152.814 34.4586 152.698 34.4586 152.585 34.4757H152.337H151.887C151.327 34.5605 150.773 34.678 150.227 34.8276C149.157 35.1184 148.133 35.4856 147.124 35.8529L147.962 36.0672C147.214 35.2151 146.406 34.4173 145.542 33.6799C145.096 33.3077 144.63 32.9602 144.145 32.6393C143.882 32.4683 143.607 32.3149 143.323 32.1802L142.842 32.0119C142.656 31.996 142.469 31.996 142.283 32.0119C141.669 32.0234 141.06 32.1372 140.484 32.3485C139.955 32.5275 139.437 32.737 138.932 32.976C137.914 33.4411 136.933 33.9835 136 34.5981C137.071 34.2767 138.126 33.9401 139.196 33.6646C139.704 33.5074 140.222 33.3847 140.748 33.2973C141.255 33.1776 141.779 33.1363 142.299 33.1749C142.729 33.2805 143.128 33.485 143.463 33.7717C143.889 34.0745 144.289 34.4124 144.657 34.7817C145.45 35.5101 146.201 36.2815 146.907 37.0924L147.264 37.4903L147.76 37.2914C148.722 36.8935 149.746 36.5415 150.739 36.2202C151.247 36.047 151.765 35.9039 152.291 35.7917H152.632H152.849C153.04 35.8359 153.223 35.9081 153.392 36.0059C154.261 36.569 155.077 37.2093 155.828 37.9188C156.449 38.4697 157.209 39.2502 158 40Z" fill="#EBEBEB"/>
<path d="M222.88 29.7698C221.926 29.2652 220.936 28.831 219.917 28.4708C218.874 28.0564 217.775 27.7921 216.654 27.686C216.314 27.6615 215.971 27.6995 215.643 27.7982C215.538 27.8441 215.441 27.9054 215.354 27.9801L215.144 28.1123L214.763 28.3521C214.335 28.7222 213.928 29.117 213.546 29.5345C212.795 30.3509 212.124 31.2073 211.466 32.0554L212.29 31.7903C211.203 31.4676 210.093 31.2234 208.969 31.0598C208.394 30.9821 207.815 30.9365 207.233 30.9232C206.919 30.9188 206.605 30.9354 206.293 30.9728L205.796 31.0867C205.631 31.1723 205.472 31.2718 205.324 31.3843C204.809 31.7216 204.355 32.1421 203.98 32.6281C203.628 33.0615 203.301 33.5148 203.001 33.9857C202.387 34.922 201.847 35.9033 201.384 36.9208C202.119 36.0784 202.832 35.2314 203.592 34.4279C203.938 34.0242 204.311 33.6442 204.709 33.2905C205.074 32.9186 205.495 32.6048 205.956 32.3602C206.377 32.2203 206.823 32.1809 207.259 32.2452C207.781 32.2743 208.299 32.3472 208.808 32.4633C209.867 32.6572 210.914 32.9099 211.943 33.2201L212.457 33.3666L212.771 32.9338C213.373 32.0845 214.052 31.2411 214.721 30.4401C215.059 30.0228 215.421 29.6257 215.806 29.2508L216.095 29.0689L216.278 28.9532C216.463 28.8889 216.657 28.8524 216.852 28.8452C217.888 28.8584 218.919 28.9658 219.933 29.166C220.751 29.3015 221.81 29.5569 222.88 29.7698Z" fill="#EBEBEB"/>
<path d="M287.338 107.536C286.532 107.11 285.695 106.743 284.833 106.439C283.952 106.088 283.024 105.865 282.076 105.775C281.788 105.754 281.499 105.787 281.221 105.87C281.133 105.909 281.05 105.961 280.977 106.024L280.8 106.136L280.478 106.338C280.116 106.651 279.772 106.985 279.449 107.338C278.814 108.028 278.247 108.751 277.691 109.468L278.387 109.244C277.469 108.971 276.531 108.765 275.581 108.627C275.095 108.561 274.605 108.523 274.114 108.511C273.848 108.508 273.583 108.522 273.319 108.553L272.899 108.649C272.759 108.722 272.625 108.806 272.499 108.901C272.065 109.186 271.681 109.542 271.364 109.952C271.066 110.319 270.79 110.702 270.537 111.1C270.018 111.891 269.561 112.72 269.17 113.58C269.791 112.868 270.394 112.153 271.036 111.473C271.328 111.132 271.644 110.811 271.98 110.512C272.289 110.198 272.645 109.933 273.034 109.726C273.39 109.608 273.767 109.574 274.135 109.629C274.577 109.653 275.015 109.715 275.445 109.813C276.34 109.977 277.224 110.19 278.094 110.453L278.529 110.576L278.794 110.211C279.303 109.493 279.877 108.78 280.442 108.103C280.728 107.75 281.034 107.415 281.359 107.098L281.603 106.944L281.759 106.846C281.915 106.792 282.078 106.761 282.243 106.755C283.119 106.766 283.99 106.857 284.847 107.026C285.539 107.141 286.434 107.356 287.338 107.536Z" fill="#263238"/>
</svg>
