<svg width="147" height="26" viewBox="0 0 147 26" fill="none" xmlns="http://www.w3.org/2000/svg">
<g clip-path="url(#clip0_88_921)">
<path d="M33.1953 8.84424C33.4486 6.99793 30.8465 5.4752 28.8966 5.31658C27.9596 5.24044 26.9973 5.38637 26.1109 5.07548C24.2116 4.44101 23.4329 1.90312 21.5653 1.14176C20.1724 0.5517 18.5644 1.07831 17.2159 1.77623C15.8673 2.47415 14.5252 3.318 13.0121 3.41317C11.6952 3.49565 10.2707 3.00711 9.11849 3.65427C8.2638 4.14281 7.81429 5.10721 7.05457 5.69092C6.23079 6.19749 5.27958 6.45727 4.31324 6.4396C3.35183 6.41393 2.39412 6.56886 1.48961 6.89641C1.04107 7.07144 0.661142 7.3873 0.406649 7.79675C0.152157 8.20619 0.0367838 8.6872 0.0777912 9.16782L33.1953 8.84424Z" fill="#D1D1D1"/>
<path d="M146.293 24.9091C146.831 21.0134 141.335 17.803 137.214 17.4667C135.245 17.3081 133.2 17.6126 131.332 16.9591C127.293 15.5506 125.685 10.3226 121.741 8.65391C118.797 7.38497 115.41 8.51433 112.548 9.96092C109.687 11.4075 106.85 13.2094 103.685 13.4188C100.912 13.5964 97.8983 12.5623 95.4546 13.92C93.6439 14.9352 92.6942 17.0226 91.0229 18.2598C89.3515 19.497 87.2622 19.7191 85.2363 19.827C83.2104 19.9348 81.1148 19.9602 79.2725 20.804C77.4302 21.6479 75.9044 23.6084 76.2843 25.6006L146.293 24.9091Z" fill="#D1D1D1"/>
</g>
<defs>
<clipPath id="clip0_88_921">
<rect width="147" height="26" fill="white"/>
</clipPath>
</defs>
</svg>
