<svg width="430" height="288" viewBox="0 0 430 288" fill="none" xmlns="http://www.w3.org/2000/svg">
<g clip-path="url(#clip0_13_4716)">
<path d="M143.71 254.083C141.957 256.278 143.197 259.793 145.508 261.379C147.819 262.966 150.776 263.188 153.58 263.346L191.206 265.497C187.622 267.001 183.931 268.574 181.209 271.353C178.487 274.132 176.948 278.466 178.524 282.025C180.778 287.101 187.515 287.926 193.042 287.672C233.199 285.807 270.913 265.116 311.128 264.78C327.848 264.647 344.378 268.054 361.035 269.52C377.692 270.985 395.178 270.357 410.062 262.725C411.962 261.76 413.95 260.459 414.393 258.391C414.836 256.323 412.633 253.804 409.543 254.083" fill="#EBEBEB"/>
<path d="M22.199 254.273C19.7552 256.602 21.9521 259.635 23.003 260.72C24.1134 261.741 25.4215 262.523 26.846 263.016C36.678 267.071 47.3268 268.727 57.9249 269.628C64.2559 270.154 70.7895 270.433 76.7597 272.686C81.9195 274.634 86.5158 277.99 91.8465 279.411C97.1772 280.832 103.939 279.525 106.224 274.5C107.864 270.896 106.959 266.017 109.972 263.454C111.302 262.318 113.106 261.963 114.752 261.379C116.398 260.796 118.114 259.755 118.551 258.055C119.013 256.151 118.361 254.882 116.588 254.083" fill="#EBEBEB"/>
<path d="M212.978 14.8937C213.345 12.1845 209.527 9.95115 206.647 9.71639C205.279 9.60853 203.855 9.81791 202.557 9.36109C199.746 8.384 198.625 4.74214 195.884 3.58105C193.833 2.71817 191.452 3.48588 189.483 4.48835C187.515 5.49081 185.527 6.75341 183.311 6.89934C181.373 7.01989 179.278 6.30294 177.613 7.2483C176.347 7.95256 175.714 9.4055 174.536 10.2684C173.358 11.1313 171.915 11.2835 170.509 11.3597C169.104 11.4358 167.641 11.4485 166.356 12.0386C165.071 12.6286 164.007 13.9864 164.28 15.3759L212.978 14.8937Z" fill="#E0E0E0"/>
<path d="M165.293 46.9091C165.831 43.0135 160.335 39.803 156.214 39.4668C154.245 39.3082 152.2 39.6127 150.332 38.9592C146.293 37.5507 144.685 32.3226 140.741 30.654C137.797 29.385 134.41 30.5144 131.548 31.961C128.687 33.4076 125.85 35.2095 122.685 35.4189C119.912 35.5965 116.898 34.5623 114.455 35.9201C112.644 36.9352 111.694 39.0226 110.023 40.2599C108.352 41.4971 106.262 41.7192 104.236 41.827C102.21 41.9349 100.115 41.9603 98.2725 42.8041C96.4302 43.6479 94.9044 45.6085 95.2843 47.6007L165.293 46.9091Z" fill="#EBEBEB"/>
<path d="M429.233 58.0504C429.765 54.1548 424.276 50.9443 420.148 50.6081C418.179 50.4494 416.134 50.754 414.273 50.1005C410.233 48.692 408.619 43.4639 404.681 41.7953C401.731 40.5263 398.35 41.6557 395.482 43.0642C392.614 44.4727 389.784 46.319 386.619 46.5284C383.839 46.7061 380.826 45.6719 378.388 47.0296C376.578 48.0448 375.628 50.1322 373.957 51.3694C372.285 52.6066 370.196 52.8287 368.176 52.9366C366.157 53.0444 364.055 53.0698 362.206 53.9137C360.358 54.7575 358.838 56.718 359.224 58.7103L429.233 58.0504Z" fill="#EBEBEB"/>
<path d="M52.1954 30.8443C52.4486 28.998 49.8466 27.4753 47.8966 27.3166C46.9596 27.2405 45.9973 27.3864 45.1109 27.0755C43.2116 26.4411 42.4329 23.9032 40.5653 23.1418C39.1725 22.5518 37.5644 23.0784 36.2159 23.7763C34.8674 24.4742 33.5252 25.3181 32.0121 25.4132C30.6952 25.4957 29.2707 25.0072 28.1185 25.6543C27.2638 26.1429 26.8143 27.1073 26.0546 27.691C25.2308 28.1976 24.2796 28.4573 23.3133 28.4397C22.3518 28.414 21.3941 28.5689 20.4896 28.8965C20.0411 29.0715 19.6612 29.3874 19.4067 29.7968C19.1522 30.2062 19.0368 30.6873 19.0778 31.1679L52.1954 30.8443Z" fill="#EBEBEB"/>
<path d="M385.251 21.5366C385.504 19.6903 382.902 18.1739 380.946 18.0153C380.015 17.9392 379.047 18.0851 378.167 17.7742C376.267 17.108 375.489 14.6019 373.621 13.8405C372.228 13.2504 370.62 13.777 369.265 14.475C367.91 15.1729 366.575 16.0167 365.068 16.1119C363.751 16.2007 362.326 15.7122 361.174 16.353C360.32 16.8352 359.87 17.825 359.079 18.4087C358.257 18.9218 357.305 19.1842 356.337 19.1637C355.376 19.1402 354.418 19.2973 353.514 19.6269C353.071 19.8003 352.695 20.1113 352.441 20.5143C352.187 20.9173 352.068 21.3911 352.102 21.8665L385.251 21.5366Z" fill="#EBEBEB"/>
<path d="M319.257 1.27794C319.02 1.23921 318.785 1.18838 318.554 1.12566C317.916 0.99489 317.261 0.975571 316.617 1.06856C315.556 1.21581 314.566 1.68135 313.775 2.40391C312.983 3.12647 312.429 4.07216 312.185 5.11649L312.077 5.54793L311.913 5.14187C311.466 4.05531 310.702 3.12892 309.722 2.48343C308.923 1.95836 308.004 1.6461 307.05 1.57614C306.164 1.52548 305.275 1.63948 304.429 1.91241C304.623 1.7808 304.837 1.68219 305.063 1.62055C305.699 1.42159 306.366 1.3378 307.031 1.37311C308.028 1.4181 308.995 1.72439 309.836 2.26137C310.906 2.91949 311.74 3.90159 312.217 5.06573H311.944V5.03401C312.238 3.84975 312.912 2.79516 313.863 2.03296C314.647 1.40339 315.593 1.00958 316.591 0.897253C317.257 0.818188 317.932 0.867725 318.579 1.04318C318.816 1.08493 319.045 1.16417 319.257 1.27794Z" fill="#E0E0E0"/>
<path d="M257.681 10.1478C257.681 10.1478 257.453 10.4143 257.048 10.8902C256.467 11.5585 255.942 12.2737 255.478 13.0283C253.934 15.523 253.124 18.4041 253.142 21.3399V21.4414H252.851C252.406 18.5691 251.078 15.9074 249.052 13.8278C248.187 12.978 247.242 12.2151 246.228 11.55C246.228 11.55 246.317 11.55 246.463 11.6515C246.608 11.753 246.824 11.8419 247.096 12.0132C247.848 12.4883 248.546 13.0435 249.179 13.6691C251.299 15.7498 252.687 18.4639 253.136 21.4033H252.851V21.3018C252.826 18.3125 253.681 15.3821 255.307 12.8761C255.792 12.1209 256.348 11.4135 256.966 10.7633C257.181 10.5349 257.371 10.3762 257.491 10.262C257.549 10.2154 257.613 10.177 257.681 10.1478Z" fill="#E0E0E0"/>
<path d="M286.924 56.4135C286.924 56.4452 286.424 56.2422 285.493 56.0328C284.183 55.7473 282.833 55.6958 281.505 55.8805C279.535 56.1407 277.676 56.9447 276.136 58.2027C274.244 59.7449 272.91 61.867 272.337 64.2429V64.3063L272.223 64.7378L272.059 64.3317C271.135 62.0809 269.552 60.1632 267.52 58.8308C265.856 57.7499 263.945 57.1122 261.967 56.9782C260.635 56.8842 259.296 57.0085 258.004 57.3462C257.092 57.5873 256.605 57.7966 256.599 57.7713C256.708 57.7067 256.822 57.6516 256.94 57.6063C257.279 57.4606 257.625 57.3356 257.979 57.232C259.597 56.7582 261.298 56.636 262.967 56.8734C264.636 57.1108 266.236 57.7024 267.659 58.6088C269.753 59.9514 271.384 61.9074 272.331 64.2112H272.059V64.1414C272.646 61.7064 274.019 59.534 275.965 57.9616C277.294 56.9059 278.847 56.1703 280.505 55.8117C282.162 55.453 283.88 55.4809 285.525 55.8932C285.882 55.9831 286.233 56.0954 286.576 56.2295C286.699 56.2774 286.815 56.3392 286.924 56.4135Z" fill="#E0E0E0"/>
<path d="M339.921 33.2743C339.921 33.2743 339.643 33.1918 339.13 33.0903C338.413 32.9406 337.676 32.9191 336.952 33.0269C335.879 33.1707 334.866 33.61 334.027 34.2958C333.001 35.1404 332.277 36.296 331.963 37.5887L331.849 38.0202L331.684 37.6141C331.181 36.3878 330.321 35.342 329.215 34.613C328.311 34.0218 327.272 33.6703 326.195 33.5915C325.467 33.5362 324.734 33.5962 324.024 33.7692C323.524 33.8961 323.252 34.004 323.245 33.9786C323.239 33.9532 323.302 33.9342 323.429 33.8771C323.611 33.791 323.799 33.7189 323.992 33.6613C324.887 33.3894 325.83 33.3138 326.756 33.4397C327.682 33.5656 328.571 33.8901 329.361 34.391C330.525 35.1371 331.432 36.2249 331.957 37.5062H331.678V37.4682C332.003 36.1146 332.767 34.9074 333.85 34.0357C334.588 33.4539 335.45 33.0505 336.369 32.8569C337.288 32.6632 338.239 32.6845 339.149 32.919C339.347 32.9707 339.542 33.0364 339.731 33.1157C339.864 33.2299 339.927 33.2616 339.921 33.2743Z" fill="#E0E0E0"/>
<path d="M300.732 25.5084C300.732 25.5084 300.46 25.8193 299.966 26.3777C299.265 27.1701 298.629 28.0189 298.067 28.9155C296.242 31.8751 295.288 35.2902 295.313 38.7689V38.8894H295.021C294.736 37.0277 294.127 35.2304 293.223 33.5789C292.49 32.2211 291.569 30.9737 290.488 29.8736C289.762 29.128 288.967 28.4525 288.114 27.856C287.481 27.4372 287.158 27.2215 287.171 27.2215C287.184 27.2215 287.266 27.2215 287.437 27.3484C287.608 27.4753 287.867 27.5705 288.178 27.7798C289.063 28.3478 289.886 29.007 290.634 29.7467C293.134 32.2135 294.774 35.4215 295.313 38.8958H295.021V38.7689C294.998 35.2341 296.005 31.7694 297.921 28.8013C298.494 27.9068 299.151 27.0697 299.884 26.3015C300.131 26.0287 300.359 25.8383 300.517 25.667C300.582 25.6058 300.654 25.5526 300.732 25.5084Z" fill="#E0E0E0"/>
<path d="M212.098 73.4427C212.028 73.4998 204.786 65.036 195.928 54.5355C187.071 44.035 179.943 35.5014 180.012 35.4189C180.082 35.3364 187.318 43.8256 196.182 54.3261C205.045 64.8266 212.186 73.3793 212.098 73.4427Z" fill="#198B34"/>
<path d="M231.015 64.9281C230.926 64.9281 228.983 54.8146 226.672 42.3155C224.361 29.8165 222.563 19.6522 222.652 19.6395C222.74 19.6268 224.684 29.7467 226.995 42.2521C229.305 54.7575 231.11 64.9091 231.015 64.9281Z" fill="#198B34"/>
<path d="M263.987 18.8338C264.076 18.8655 260.821 29.5627 256.738 42.7343C252.654 55.9059 249.261 66.5651 249.172 66.5333C249.084 66.5016 252.338 55.8108 256.421 42.6328C260.505 29.4548 263.905 18.8084 263.987 18.8338Z" fill="#198B34"/>
<path d="M305.93 32.145C305.999 32.2021 297.699 42.0173 287.348 54.0659C276.997 66.1146 268.583 75.8347 268.532 75.7712C268.482 75.7078 276.763 65.8988 287.114 53.8502C297.465 41.8016 305.885 32.0815 305.93 32.145Z" fill="#198B34"/>
<path d="M316.085 75.1875C316.123 75.2764 310.127 77.8269 302.701 80.8978C295.275 83.9686 289.229 86.386 289.191 86.3035C289.153 86.221 295.148 83.6641 302.581 80.5932C310.013 77.5224 316.053 75.1051 316.085 75.1875Z" fill="#198B34"/>
<path d="M209.3 86.8999C216.511 75.5428 230.964 69.325 244.12 71.901C257.276 74.4769 268.729 83.1375 271.742 97.0133L245.785 122.525L209.3 86.8999Z" fill="#198B34"/>
<path d="M209.3 86.8999C216.511 75.5428 230.964 69.325 244.12 71.901C257.276 74.4769 268.729 83.1375 271.742 97.0133L245.785 122.525L209.3 86.8999Z" fill="#198B34"/>
<path d="M257.333 80.073C257.18 80.0001 257.033 79.913 256.896 79.8128C256.618 79.6352 256.225 79.337 255.681 79.0197C254.173 78.0716 252.591 77.2463 250.951 76.5516C248.514 75.517 245.964 74.7738 243.354 74.3373C238.867 73.593 234.274 73.7919 229.868 74.9212C225.461 76.0506 221.337 78.0859 217.758 80.8978C216.351 81.9886 215.036 83.194 213.826 84.5016C213.383 84.952 213.079 85.3391 212.851 85.5802C212.745 85.7141 212.627 85.8374 212.497 85.9482C212.586 85.8021 212.688 85.6641 212.801 85.5358C213.01 85.282 213.301 84.9013 213.731 84.4127C214.913 83.0671 216.212 81.8293 217.612 80.7138C222.252 76.9832 227.817 74.5882 233.712 73.7854C239.613 73.0433 245.604 73.9205 251.046 76.3232C252.686 77.0275 254.261 77.8768 255.75 78.8611C256.282 79.1974 256.668 79.4956 256.934 79.705C257.077 79.8166 257.21 79.9397 257.333 80.073Z" fill="white"/>
<path d="M262.094 84.6855C262.005 84.7236 261.632 83.9686 260.986 83.1691C260.34 82.3697 259.688 81.8368 259.72 81.7606C260.302 82.0449 260.814 82.4544 261.22 82.96C261.626 83.4656 261.916 84.0548 262.069 84.6855H262.094Z" fill="white"/>
<path d="M343.606 136.249L282.233 87.4201L246.007 123.02L179.493 58.4247L114.018 123.02L40.3943 253.626H399.857L343.606 136.249Z" fill="#198B34"/>
<g opacity="0.8">
<path d="M343.606 136.249L282.233 87.4201L246.007 123.02L179.493 58.4247L114.018 123.02L40.3943 253.626H399.857L343.606 136.249Z" fill="white"/>
</g>
<path d="M142.051 95.3637L173.586 73.8043L165.786 90.0976L183.741 72.7448L205.881 84.0574L179.493 58.4247L142.051 95.3637Z" fill="#FAFAFA"/>
<path d="M246.007 123.02L232.389 141.591L279.118 100.839L282.758 109.043L288.355 98.6502L300.96 102.317L282.233 87.4201L246.007 123.02Z" fill="#FAFAFA"/>
<path d="M242.828 124.042C242.691 123.949 242.562 123.845 242.442 123.731L241.398 122.792C240.486 121.98 239.195 120.774 237.599 119.264C234.434 116.257 230.185 111.98 225.532 107.209C220.879 102.438 216.669 98.149 213.503 95.0972L209.85 91.4934L208.844 90.51C208.721 90.4018 208.609 90.2829 208.508 90.1547C208.644 90.246 208.771 90.3501 208.888 90.4656L209.939 91.3982C210.844 92.2104 212.136 93.4222 213.737 94.9259C216.903 97.9396 221.157 102.21 225.811 106.981C230.464 111.752 234.674 116.035 237.808 119.093L241.512 122.69L242.518 123.674C242.633 123.786 242.737 123.909 242.828 124.042Z" fill="#198B34"/>
<path d="M398.85 251.469L395.868 245.2L384.472 221.382L343.732 136.186V136.154C325.138 121.352 304.48 104.9 282.378 87.2996L282.271 87.2107L282.169 87.3059L246.051 122.798L236.738 113.751L179.601 58.3106L179.493 58.2027L179.379 58.3106L113.929 122.931L79.7415 188.193C77.6312 192.241 75.7678 195.807 74.1512 198.89C74.4171 198.446 74.6894 198.008 74.9679 197.571C76.4156 194.817 78.0511 191.714 79.8745 188.263L114.151 123.071C132.928 104.557 155.207 82.6108 179.493 58.6468L236.472 113.985L245.899 123.141L246.013 123.255L246.133 123.141L282.252 87.6104L343.498 136.312C360.427 171.589 374.52 200.914 384.352 221.427L395.786 245.232C397.109 247.973 398.122 250.073 398.812 251.488C399.502 252.903 399.857 253.626 399.857 253.626C399.857 253.626 399.521 252.89 398.85 251.469Z" fill="#263238"/>
<path d="M134.315 189.913L130.01 166.545L123.47 188.295L125.407 187.533L120.659 200.527L123.394 199.309L120.102 204.277L134.942 204.22L133.669 199.874L134.935 202.133L132.137 188.453L134.315 189.913Z" fill="#198B34"/>
<path opacity="0.6" d="M134.315 189.913L130.01 166.545L123.47 188.295L125.407 187.533L120.659 200.527L123.394 199.309L120.102 204.277L134.942 204.22L133.669 199.874L134.935 202.133L132.137 188.453L134.315 189.913Z" fill="white"/>
<path d="M148.503 180.402L142.843 149.034L133.96 178.175L136.562 177.16L130.13 194.563L133.808 192.945L129.364 204.277H149.269L147.585 193.758L149.269 196.79L145.59 178.435L148.503 180.402Z" fill="#198B34"/>
<path opacity="0.4" d="M148.503 180.402L142.843 149.034L133.96 178.175L136.562 177.16L130.13 194.563L133.808 192.945L129.364 204.277H149.269L147.585 193.758L149.269 196.79L145.59 178.435L148.503 180.402Z" fill="white"/>
<path d="M292.825 183.225L288.602 159.826L281.973 181.569L283.917 180.814L279.118 193.796L281.859 192.584L278.548 201.041H293.394L292.141 193.193L293.394 195.458L290.653 181.76L292.825 183.225Z" fill="#198B34"/>
<path opacity="0.6" d="M292.825 183.225L288.602 159.826L281.973 181.569L283.917 180.814L279.118 193.796L281.859 192.584L278.548 201.041H293.394L292.141 193.193L293.394 195.458L290.653 181.76L292.825 183.225Z" fill="white"/>
<path d="M119.804 194.747L117.544 182.235L113.999 193.859L115.037 193.459L112.473 200.4L113.935 199.753L112.169 204.277H120.108L119.437 200.077L120.108 201.289L118.639 193.967L119.804 194.747Z" fill="#198B34"/>
<path opacity="0.4" d="M119.804 194.747L117.544 182.235L113.999 193.859L115.037 193.459L112.473 200.4L113.935 199.753L112.169 204.277H120.108L119.437 200.077L120.108 201.289L118.639 193.967L119.804 194.747Z" fill="white"/>
<path d="M282.543 186.169L278.998 166.526L273.439 184.773L275.066 184.139L271.039 195.039L273.344 194.024L270.558 201.117H283.024L281.973 194.532L283.024 196.429L280.72 184.938L282.543 186.169Z" fill="#198B34"/>
<path opacity="0.4" d="M282.543 186.169L278.998 166.526L273.439 184.773L275.066 184.139L271.039 195.039L273.344 194.024L270.558 201.117H283.024L281.973 194.532L283.024 196.429L280.72 184.938L282.543 186.169Z" fill="white"/>
<path d="M296.636 201.2H267.684C267.621 201.2 267.57 201.162 267.57 201.117C267.57 201.073 267.621 201.041 267.684 201.041H296.636C296.699 201.041 296.75 201.041 296.75 201.117C296.75 201.194 296.699 201.2 296.636 201.2Z" fill="#263238"/>
<path d="M158.373 204.353H107.256C107.142 204.353 107.054 204.321 107.054 204.277C107.054 204.233 107.142 204.195 107.256 204.195H158.373C158.487 204.195 158.575 204.233 158.575 204.277C158.575 204.321 158.468 204.353 158.373 204.353Z" fill="#263238"/>
<path d="M361.877 167.408L341.371 53.901L309.235 159.35L318.655 155.689L295.382 218.667L308.684 212.804L292.616 253.817H364.644L358.547 215.736L364.644 226.718L351.323 160.289L361.877 167.408Z" fill="#263238"/>
<path d="M95.5121 171.31L74.3096 27.0311L44.9779 163.582L54.0186 160.061L31.6765 220.526L44.4461 214.904L29.0175 254.273H98.1712L92.3213 217.715L98.1712 228.26L85.3762 164.477L95.5121 171.31Z" fill="#263238"/>
<path d="M108.902 217.62H102.647V254.083H108.902V217.62Z" fill="#263238"/>
<path d="M104.072 62.3395C104.072 63.196 87.2818 116.231 87.2818 116.231L95.6957 107.679L83.6034 144.745L91.5678 133.622L82.1789 180.104L86.731 175.256L78.7475 208.046L85.566 199.487L78.7412 224.009L132.802 220.018L119.994 173.829L127.731 182.381L117.721 148.754L122.843 151.603L111.181 108.243L116.588 111.955L104.072 62.3395Z" fill="#455A64"/>
<path d="M416.235 198.725L403.022 125.565L382.307 193.535L388.379 191.175L373.38 231.769L381.946 227.994L372.057 254.039L417.97 254.083L414.095 229.884L418.02 236.965L409.436 194.138L416.235 198.725Z" fill="#455A64"/>
<path d="M369.772 197.932L361.801 193.345L359.155 179.577L356.926 180.192L358.857 193.199L351.216 188.016L349.538 189.938L359.655 196.391L369.772 201.143V197.932Z" fill="#263238"/>
<path d="M374.514 177.851H368.67V253.829H374.514V177.851Z" fill="#263238"/>
<path d="M369.993 32.7287C369.993 33.5281 354.305 83.093 354.305 83.093L362.149 75.0987L350.836 109.741L358.281 99.3482L349.506 142.784L353.761 138.254L346.328 168.899L352.735 160.905L346.353 183.822L396.875 180.091L384.909 136.947L392.139 144.941L382.782 113.497L387.568 116.162L376.641 75.6316L381.706 79.0959L369.993 32.7287Z" fill="#198B34"/>
<path d="M371.69 121.199C371.631 121.453 371.546 121.699 371.437 121.935C371.241 122.449 370.975 123.122 370.652 123.947L367.822 130.881L367.695 131.192L367.543 130.9C366.747 129.42 366.058 127.885 365.479 126.307C365.251 125.672 365.049 125.076 364.846 124.486H365.15C363.757 128.045 362.396 131.148 361.352 133.368C360.839 134.472 360.415 135.348 360.085 135.951C359.946 136.224 359.826 136.446 359.724 136.636C359.688 136.718 359.641 136.795 359.585 136.864C359.69 136.533 359.821 136.211 359.978 135.9L361.13 133.28C362.105 131.053 363.428 127.944 364.808 124.397L364.979 123.959L365.119 124.41C365.296 124.993 365.505 125.596 365.752 126.212C366.323 127.775 367 129.297 367.778 130.767H367.499C368.677 128.007 369.69 125.622 370.437 123.877L371.304 121.904C371.408 121.656 371.538 121.42 371.69 121.199Z" fill="#263238"/>
<path d="M377.072 102.698C376.961 102.529 376.865 102.351 376.787 102.165C376.597 101.759 376.35 101.252 376.065 100.649C375.432 99.3799 374.52 97.5653 373.33 95.5731L373.615 95.535C373.362 96.5121 373.096 97.559 372.811 98.6503C372.633 99.3291 372.456 99.989 372.292 100.63L372.171 101.074L371.988 100.655C370.911 98.2569 369.974 96.1378 369.322 94.615L368.563 92.8258C368.462 92.6233 368.384 92.4106 368.328 92.1913C368.468 92.3881 368.582 92.6012 368.67 92.8258C368.892 93.2953 369.177 93.879 369.512 94.5833C370.221 96.0743 371.19 98.1744 372.279 100.573H371.975C372.14 99.9382 372.317 99.272 372.494 98.5932C372.779 97.5019 373.058 96.455 373.311 95.4779L373.406 95.1099L373.602 95.4398C374.576 97.1137 375.457 98.8399 376.242 100.611C376.533 101.245 376.749 101.797 376.875 102.165C376.963 102.334 377.029 102.513 377.072 102.698Z" fill="#263238"/>
<path d="M369.917 64.7251C369.661 65.3332 369.363 65.9226 369.025 66.4889C368.436 67.5675 367.594 69.0649 366.625 70.7653L366.404 71.1523L366.321 70.7145C366.233 70.2196 366.144 69.712 366.049 69.1918C365.891 68.2845 365.745 67.4216 365.6 66.6158L365.891 66.6729C364.986 68.1068 364.2 69.325 363.637 70.1879C363.357 70.6611 363.04 71.1109 362.687 71.533C362.905 71.0279 363.168 70.5437 363.472 70.0864C363.992 69.1981 364.739 67.9482 365.625 66.508L365.84 66.159L365.91 66.5587L366.378 69.1347C366.467 69.6549 366.556 70.1625 366.644 70.6574L366.34 70.6066C367.328 68.9126 368.202 67.4343 368.873 66.3811C369.178 65.803 369.527 65.2494 369.917 64.7251Z" fill="#263238"/>
<path d="M41.6606 206.491H33.4999V254.077H41.6606V206.491Z" fill="#455A64"/>
<path d="M35.8423 49.999C35.8423 50.8745 18.7486 104.944 18.7486 104.944L27.3081 96.2266L14.9563 134.003L23.079 122.678L13.5065 170.066L18.1471 165.124L10.0244 198.554L16.9885 189.836L10.0244 214.835L65.1423 210.774L52.0877 163.677L59.9698 172.401L49.7642 138.095L54.9873 140.982L43.0913 96.8039L48.6056 100.611L35.8423 49.999Z" fill="#198B34"/>
<path d="M44.0473 137.404C44.0473 137.404 43.9777 137.359 43.8637 137.251L43.3636 136.769C42.9077 136.312 42.2873 135.691 41.5149 134.929L35.1459 128.445L35.4055 128.363C35.0446 130.482 34.6521 132.804 34.2406 135.228L33.5505 139.187L33.4555 139.751L33.2466 139.225C31.8585 135.771 30.7986 132.194 30.0811 128.54C29.8152 127.17 29.6506 126.066 29.5493 125.311C29.4986 124.93 29.4733 124.632 29.4543 124.435C29.4391 124.332 29.4391 124.227 29.4543 124.124C29.4863 124.221 29.5096 124.321 29.524 124.422L29.6759 125.292C29.8088 126.047 30.0051 127.138 30.309 128.464C31.0798 132.089 32.1623 135.641 33.5441 139.079L33.2339 139.117C33.4555 137.848 33.6771 136.509 33.9113 135.151C34.3355 132.728 34.7344 130.406 35.1016 128.293L35.1522 127.988L35.3675 128.21L41.6478 134.777L43.4332 136.68L43.9017 137.194C43.9598 137.257 44.0088 137.327 44.0473 137.404Z" fill="#263238"/>
<path d="M23.9969 180.319C24.2032 177.855 24.6269 175.413 25.2632 173.023C25.2194 174.259 25.0669 175.488 24.8073 176.697C24.6479 177.926 24.3767 179.139 23.9969 180.319Z" fill="#263238"/>
<path d="M42.8317 161.786C42.8 161.929 42.7511 162.068 42.6861 162.199L42.2049 163.354L40.3816 167.592L34.2025 181.671L34 182.134L33.8923 181.639L33.6138 180.37C32.7971 176.639 32.0247 173.124 31.3599 170.073L31.6195 170.123L26.5547 177.559L25.1365 179.685L24.7503 180.224C24.7061 180.291 24.6552 180.352 24.5984 180.408C24.6254 180.334 24.6615 180.264 24.706 180.199L25.0606 179.634L26.4344 177.502L31.3789 169.997L31.5688 169.711L31.6448 170.047C32.3222 173.093 33.1073 176.608 33.9366 180.338L34.2152 181.607L33.905 181.576C36.3614 176.068 38.5709 171.139 40.1727 167.541C40.9767 165.79 41.6225 164.369 42.072 163.341L42.6038 162.212C42.6611 162.061 42.7377 161.918 42.8317 161.786Z" fill="#263238"/>
<path d="M47.1685 204.315C45.7895 202.812 44.4918 201.237 43.2812 199.595C41.9841 198.018 40.7731 196.372 39.6536 194.665C41.0316 196.171 42.3291 197.748 43.5408 199.392C44.8369 200.967 46.0479 202.61 47.1685 204.315Z" fill="#263238"/>
<path d="M41.9265 92.388C41.7747 92.2132 41.637 92.0265 41.5149 91.8297L40.4323 90.2245L36.7287 84.5142L37.0009 84.4635C36.6274 86.3669 36.2792 88.4607 36.026 90.694C35.8234 92.4642 35.6904 94.1772 35.6208 95.7698V96.3662L35.3549 95.8332C34.2096 93.5305 33.3118 91.1123 32.6768 88.6193C32.4489 87.6993 32.297 86.957 32.2084 86.4494C32.1515 86.1907 32.1176 85.9274 32.1071 85.6626C32.1983 85.9117 32.2661 86.1687 32.3096 86.4304C32.4299 86.9316 32.6072 87.6612 32.8668 88.5685C33.5566 91.0257 34.4832 93.4098 35.6334 95.6873L35.3359 95.7507C35.3992 94.1772 35.5258 92.4578 35.7284 90.675C35.988 88.4289 36.3615 86.3098 36.735 84.4191L36.8173 84.0511L37.0136 84.3683L40.6223 90.142L41.6289 91.8043C41.7453 91.9896 41.8449 92.1849 41.9265 92.388Z" fill="#263238"/>
<path d="M272.078 254.039L278.662 230.595L320.339 207.513H344.005L347.771 215.279L353.634 214.644L363.688 232.486L372.064 231.223L394.216 254.185L272.078 254.039Z" fill="#E0E0E0"/>
<path d="M278.662 230.595H314.407L344.005 207.513H320.339L278.662 230.595Z" fill="#F5F5F5"/>
<path d="M343.137 233.336C342.713 233.336 322.821 244.426 322.821 244.426L316.104 253.759L320.719 253.728L326.145 244.744L347.037 233.894L343.137 233.336Z" fill="#F5F5F5"/>
<path d="M361.978 252.935C361.902 252.985 358.661 248.696 354.742 243.348C350.823 237.999 347.67 233.615 347.765 233.571C347.86 233.526 351.083 237.803 355.008 243.151C358.933 248.5 362.048 252.878 361.978 252.935Z" fill="#F5F5F5"/>
<path d="M272.078 254.045H272.711H274.522H281.486L307.31 253.982L394.52 253.779L394.406 254.058L377.312 236.819L371.893 231.344L372.032 231.388L363.656 232.657H363.542L363.485 232.562L353.495 214.727L353.653 214.803L347.791 215.437H347.677L347.632 215.336L343.872 207.602L344.011 207.691H320.346H320.415L278.713 230.734L278.757 230.677C274.547 245.448 272.268 253.455 272.084 254.102C272.084 254.102 272.084 253.969 272.185 253.709C272.287 253.449 272.363 253.074 272.502 252.541C272.793 251.501 273.217 249.965 273.768 247.967C274.883 243.951 276.516 238.075 278.58 230.627V230.595H278.611L320.263 207.462H320.301H343.967H344.062L344.106 207.551L347.904 215.317L347.746 215.228L353.609 214.594H353.716L353.767 214.689L363.821 232.524L363.656 232.441L372.032 231.172H372.114L372.171 231.229C373.969 233.044 375.778 234.869 377.597 236.705L394.653 253.95L394.925 254.229H394.52H307.152H281.372H274.452H272.078V254.045Z" fill="#263238"/>
<path d="M120.786 199.855C120.273 199.643 119.712 199.578 119.165 199.666C118.618 199.754 118.106 199.993 117.686 200.355C117.266 200.717 116.954 201.188 116.784 201.717C116.615 202.246 116.596 202.811 116.727 203.351C114.771 202.488 112.346 203.643 111.289 205.502C110.232 207.361 110.32 209.683 110.928 211.732C110.234 211.753 109.563 211.988 109.007 212.404C108.45 212.82 108.035 213.397 107.816 214.058C107.598 214.718 107.588 215.43 107.786 216.097C107.985 216.763 108.383 217.353 108.928 217.785C108.117 217.736 107.315 217.982 106.67 218.477C106.026 218.972 105.58 219.684 105.416 220.481C105.251 221.278 105.379 222.108 105.775 222.819C106.171 223.53 106.809 224.074 107.573 224.352C106.724 224.957 106.113 225.84 105.845 226.849C105.577 227.858 105.67 228.929 106.106 229.877C106.542 230.825 107.295 231.59 108.234 232.041C109.174 232.492 110.241 232.6 111.251 232.346C111.268 233.165 111.498 233.966 111.918 234.67C112.338 235.373 112.934 235.954 113.646 236.357C114.358 236.76 115.163 236.97 115.981 236.966C116.798 236.963 117.601 236.746 118.31 236.337C118.922 237.199 119.715 237.916 120.634 238.438C121.552 238.959 122.573 239.273 123.626 239.357C124.678 239.442 125.736 239.294 126.725 238.924C127.714 238.555 128.611 237.973 129.351 237.219C130.776 238.101 132.359 238.938 134.043 238.843C135.727 238.748 137.436 237.371 137.284 235.671C138.804 236.191 140.488 236.629 141.975 236.032C143.463 235.436 144.413 233.361 143.349 232.162C144.025 232.247 144.711 232.188 145.362 231.989C146.013 231.789 146.615 231.454 147.128 231.006C147.641 230.557 148.053 230.005 148.338 229.385C148.623 228.765 148.774 228.092 148.781 227.41C149.489 227.721 150.276 227.804 151.033 227.65C151.79 227.495 152.481 227.11 153.011 226.547C153.542 225.983 153.885 225.269 153.995 224.503C154.105 223.736 153.975 222.954 153.624 222.264C155.454 221.56 156.049 219.092 155.309 217.239C154.568 215.387 152.903 214.156 151.244 213.103C151.814 212.272 152.137 211.295 152.174 210.287C152.211 209.28 151.961 208.282 151.453 207.412C150.944 206.541 150.2 205.833 149.305 205.372C148.41 204.91 147.403 204.713 146.401 204.804C146.62 203.967 146.56 203.082 146.231 202.283C145.902 201.483 145.32 200.814 144.576 200.376C143.832 199.938 142.965 199.757 142.108 199.858C141.251 199.96 140.451 200.34 139.829 200.94C139.924 198.237 136.879 195.934 134.315 196.784C133.524 197.044 132.776 197.545 131.947 197.514C130.808 197.482 129.946 196.492 128.877 196.118C128.458 195.994 128.018 195.96 127.586 196.018C127.154 196.077 126.739 196.226 126.368 196.455C125.996 196.685 125.678 196.991 125.433 197.353C125.188 197.714 125.022 198.124 124.945 198.554C124.926 198.357 124.865 198.165 124.768 197.992C124.671 197.819 124.539 197.668 124.381 197.549C124.223 197.43 124.041 197.345 123.849 197.299C123.656 197.254 123.456 197.249 123.261 197.285C122.871 197.382 122.512 197.581 122.222 197.86C121.932 198.14 121.721 198.491 121.609 198.878C121.389 199.65 121.307 200.456 121.368 201.257" fill="#198B34"/>
<path d="M120.222 223.095C120.317 223.095 121.153 230.075 122.121 238.665C123.09 247.256 123.755 254.261 123.666 254.273C123.578 254.286 122.736 247.294 121.767 238.703C120.798 230.113 120.134 223.108 120.222 223.095Z" fill="#263238"/>
<path d="M121.469 233.234C120.484 232.225 119.58 231.139 118.766 229.986C117.863 228.901 117.046 227.747 116.322 226.534C117.304 227.547 118.208 228.633 119.026 229.783C119.928 230.868 120.745 232.022 121.469 233.234Z" fill="#263238"/>
<path d="M126.464 213.623C126.559 213.623 126.958 222.702 127.357 233.926C127.756 245.15 127.99 254.229 127.914 254.229C127.838 254.229 127.427 245.15 127.028 233.926C126.629 222.702 126.376 213.623 126.464 213.623Z" fill="#263238"/>
<path d="M131.434 214.042C131.451 214.179 131.451 214.317 131.434 214.454C131.434 214.752 131.434 215.139 131.434 215.615C131.403 216.675 131.365 218.153 131.314 219.91C131.213 223.527 131.105 228.533 131.086 234.059C131.067 239.585 131.13 244.591 131.206 248.214C131.244 249.997 131.27 251.45 131.295 252.503C131.295 252.985 131.295 253.372 131.295 253.671C131.304 253.808 131.304 253.946 131.295 254.083C131.261 253.95 131.244 253.814 131.244 253.677C131.244 253.372 131.2 252.992 131.168 252.51C131.105 251.501 131.035 250.035 130.972 248.221C130.839 244.598 130.732 239.592 130.757 234.059C130.782 228.527 130.915 223.521 131.08 219.898C131.156 218.089 131.238 216.624 131.308 215.615L131.39 214.448C131.396 214.311 131.41 214.176 131.434 214.042Z" fill="#263238"/>
<path d="M133.53 227.391C133.088 229.133 132.154 230.71 130.839 231.934C130.77 231.87 131.472 230.938 132.232 229.688C132.992 228.438 133.441 227.359 133.53 227.391Z" fill="#263238"/>
<path d="M140.646 219.866C140.645 219.986 140.628 220.106 140.595 220.221C140.545 220.481 140.475 220.811 140.393 221.211C140.19 222.112 139.924 223.343 139.595 224.84C138.924 227.905 138.031 232.143 137.145 236.844C136.259 241.546 135.556 245.822 135.062 248.899C134.828 250.409 134.631 251.653 134.486 252.567C134.416 252.973 134.366 253.303 134.321 253.563C134.308 253.682 134.28 253.799 134.239 253.912C134.224 253.794 134.224 253.674 134.239 253.556C134.271 253.29 134.302 252.922 134.347 252.548C134.442 251.678 134.606 250.416 134.821 248.861C135.252 245.752 135.923 241.47 136.809 236.756C137.696 232.041 138.626 227.816 139.342 224.758C139.709 223.235 140.013 222.004 140.241 221.154L140.507 220.177C140.54 220.068 140.587 219.964 140.646 219.866Z" fill="#263238"/>
<path d="M143.451 226.972C142.641 227.931 141.749 228.816 140.785 229.618C139.891 230.501 138.923 231.306 137.892 232.022C138.701 231.06 139.596 230.172 140.564 229.37C141.455 228.489 142.421 227.686 143.451 226.972Z" fill="#263238"/>
<path d="M139.259 225.64C138.306 224.292 137.534 222.824 136.961 221.275C137.921 222.619 138.694 224.087 139.259 225.64Z" fill="#263238"/>
<path d="M153.618 207.38C153.519 206.344 153.79 205.307 154.382 204.453C154.975 203.599 155.85 202.984 156.853 202.716C156.977 203.756 156.716 204.804 156.12 205.664C155.524 206.523 154.634 207.134 153.618 207.38Z" fill="#198B34"/>
<path d="M154.65 209.505C155.619 211.053 158.658 211.408 160.475 210.425C159.806 209.554 158.829 208.973 157.745 208.802C156.662 208.631 155.554 208.882 154.65 209.505Z" fill="#198B34"/>
<g opacity="0.3">
<path d="M133.922 207.5C133.701 208.192 133.621 208.922 133.688 209.646C133.754 210.37 133.965 211.073 134.309 211.713C134.999 212.982 136.391 213.654 137.791 214.022C137.862 212.674 137.532 211.334 136.844 210.173C136.155 209.012 135.139 208.082 133.922 207.5Z" fill="black"/>
</g>
<path d="M59.3873 226.953C59.5618 227.283 59.71 227.627 59.8305 227.981C60.0964 228.647 60.4636 229.624 60.8751 230.842C61.7235 233.266 62.7744 236.66 63.7367 240.461C64.6991 244.261 65.3511 247.764 65.75 250.302C65.9463 251.571 66.0919 252.598 66.1678 253.315C66.2298 253.682 66.2615 254.054 66.2628 254.426C66.1622 254.068 66.0881 253.703 66.0412 253.334L65.5158 250.34C65.0599 247.802 64.3635 244.338 63.4139 240.543C62.4642 236.749 61.4449 233.355 60.6535 230.912L59.7102 228.025C59.5754 227.677 59.4674 227.318 59.3873 226.953Z" fill="#FAFAFA"/>
<path d="M65.5981 232.409C65.7227 232.679 65.8222 232.959 65.8957 233.247C66.073 233.793 66.3135 234.592 66.5921 235.575C67.1619 237.549 67.9026 240.283 68.6434 243.329C69.3841 246.374 69.9982 249.134 70.4097 251.145C70.6123 252.154 70.7706 252.966 70.8655 253.531C70.9376 253.822 70.9779 254.12 70.9858 254.419C70.8793 254.141 70.7967 253.855 70.7389 253.563C70.5933 252.928 70.4034 252.148 70.1818 251.196C69.7133 249.204 69.0675 246.444 68.3268 243.405C67.5861 240.366 66.877 237.625 66.3705 235.639C66.1299 234.694 65.9337 233.9 65.7754 233.285C65.6835 233.001 65.624 232.707 65.5981 232.409Z" fill="#FAFAFA"/>
<path d="M75.3922 225.849C75.3616 226.217 75.3002 226.582 75.2086 226.94C75.0693 227.638 74.8794 228.647 74.6641 229.897C74.1017 233.153 73.7213 236.439 73.5246 239.738C73.3382 243.038 73.3382 246.347 73.5246 249.648C73.5942 250.917 73.6702 251.939 73.7272 252.649C73.78 253.015 73.7991 253.384 73.7841 253.753C73.7002 253.394 73.6388 253.029 73.6005 252.662C73.4992 251.958 73.3916 250.93 73.2903 249.661C72.7674 243.037 73.1486 236.373 74.4236 229.853C74.6705 228.584 74.8921 227.6 75.0567 226.915C75.1436 226.552 75.2557 226.196 75.3922 225.849Z" fill="#FAFAFA"/>
<path d="M78.7793 242.288C78.7007 242.885 78.5865 243.476 78.4374 244.058C77.8448 246.881 77.594 249.766 77.6903 252.649C77.7327 253.249 77.7327 253.851 77.6903 254.451C77.5341 253.867 77.447 253.266 77.4308 252.662C77.3077 251.207 77.3077 249.745 77.4308 248.29C77.5536 246.837 77.7971 245.395 78.1588 243.982C78.2993 243.395 78.5075 242.827 78.7793 242.288Z" fill="#FAFAFA"/>
<path d="M263.043 222.226V222.309C263.043 222.372 263.081 222.448 263.113 222.543C263.17 222.753 263.271 223.057 263.379 223.451C263.607 224.237 263.904 225.392 264.196 226.832C264.913 230.595 265.23 234.423 265.139 238.253C265.063 242.739 264.62 246.78 264.297 249.673C264.126 251.12 263.993 252.3 263.892 253.131C263.854 253.531 263.816 253.842 263.791 254.07V254.318C263.791 254.375 263.791 254.4 263.791 254.4C263.791 254.4 263.791 254.4 263.791 254.318L263.835 254.077C263.835 253.848 263.911 253.537 263.974 253.138C264.088 252.326 264.246 251.145 264.43 249.686C264.944 245.89 265.257 242.069 265.367 238.24C265.457 234.408 265.121 230.578 264.367 226.82C264.056 225.38 263.734 224.225 263.487 223.444C263.373 223.051 263.259 222.753 263.189 222.543C263.189 222.455 263.126 222.378 263.107 222.315C263.088 222.252 263.05 222.226 263.043 222.226Z" fill="#198B34"/>
<path d="M264.987 231.407C265.164 231.591 266.285 230.773 267.304 229.408C268.324 228.044 268.805 226.744 268.571 226.623C268.336 226.503 267.539 227.562 266.557 228.856C265.576 230.151 264.81 231.229 264.987 231.407Z" fill="#198B34"/>
<path d="M261.568 227.657C261.41 227.86 262.056 228.628 262.955 229.447C263.854 230.265 264.683 230.823 264.854 230.646C265.025 230.468 264.481 229.599 263.556 228.742C262.632 227.886 261.708 227.461 261.568 227.657Z" fill="#198B34"/>
<path d="M264.525 227.759C264.74 227.873 265.671 226.522 266.272 224.586C266.874 222.651 266.905 221.04 266.652 221.008C266.399 220.976 265.981 222.486 265.386 224.314C264.791 226.141 264.297 227.638 264.525 227.759Z" fill="#198B34"/>
<path d="M259.884 222.271C259.701 222.436 260.517 223.679 261.784 225.037C263.05 226.395 264.164 227.365 264.348 227.194C264.531 227.023 263.715 225.786 262.448 224.422C261.182 223.057 260.074 222.099 259.884 222.271Z" fill="#198B34"/>
<path d="M265.196 235.861C265.367 236.045 266.665 235.112 267.956 233.64C269.248 232.168 270.001 230.76 269.799 230.614C269.596 230.468 268.532 231.604 267.266 233.031C266 234.459 265.025 235.677 265.196 235.861Z" fill="#198B34"/>
<path d="M262.341 231.318C262.138 231.47 262.6 232.416 263.373 233.425C264.145 234.433 264.93 235.131 265.133 234.979C265.335 234.827 264.873 233.881 264.101 232.866C263.328 231.851 262.543 231.166 262.341 231.318Z" fill="#198B34"/>
<path d="M265.202 240.448C265.373 240.626 266.608 239.681 267.697 238.132C268.786 236.584 269.267 235.106 269.039 235.004C268.811 234.903 267.994 236.134 266.95 237.606C265.905 239.078 265.019 240.271 265.202 240.448Z" fill="#198B34"/>
<path d="M262.455 236.356C262.271 236.534 262.759 237.352 263.487 238.259C264.215 239.167 264.918 239.788 265.126 239.636C265.335 239.484 264.943 238.589 264.196 237.676C263.449 236.762 262.638 236.185 262.455 236.356Z" fill="#198B34"/>
<path d="M264.88 244.338C265.069 244.509 266.234 243.494 267.482 242.079C268.729 240.664 269.583 239.376 269.381 239.205C269.178 239.033 268.026 240.055 266.779 241.47C265.532 242.885 264.69 244.173 264.88 244.338Z" fill="#198B34"/>
<path d="M261.454 240.791C261.258 240.956 261.917 242.06 262.841 243.284C263.765 244.509 264.639 245.448 264.854 245.302C265.069 245.156 264.525 243.989 263.588 242.726C262.651 241.463 261.644 240.626 261.454 240.791Z" fill="#198B34"/>
<path d="M264.436 249.312C264.614 249.489 266.025 248.424 267.602 246.92C269.178 245.416 270.293 244.058 270.134 243.874C269.976 243.69 268.545 244.756 266.969 246.26C265.392 247.764 264.265 249.128 264.436 249.312Z" fill="#198B34"/>
<path d="M261.448 244.934C261.227 245.042 261.568 246.203 262.41 247.32C263.253 248.436 264.221 249.141 264.392 248.957C264.563 248.773 263.936 247.865 263.126 246.78C262.316 245.695 261.676 244.813 261.448 244.934Z" fill="#198B34"/>
<path d="M8.70129 228.888C8.93283 229.176 9.14437 229.479 9.3344 229.795C9.71426 230.392 10.2461 231.267 10.8792 232.333C12.1454 234.522 13.7851 237.612 15.3742 241.127C16.9633 244.642 18.1852 247.929 18.9892 250.327C19.388 251.526 19.6919 252.503 19.8819 253.182C19.999 253.53 20.09 253.886 20.1541 254.248C19.9998 253.915 19.8687 253.571 19.7616 253.22L18.7676 250.403C17.9129 248.03 16.6531 244.775 15.0766 241.267C13.5002 237.758 11.9111 234.662 10.6449 232.448L9.18878 229.84C9.00313 229.535 8.84019 229.217 8.70129 228.888Z" fill="#263238"/>
<path d="M21.395 218.68C21.4128 218.802 21.4128 218.926 21.395 219.048C21.395 219.32 21.3507 219.682 21.3127 220.094C21.2304 221.002 21.1291 222.309 21.0151 223.933C20.7809 227.175 20.5783 231.667 20.6353 236.622C20.6922 241.578 21.0151 246.07 21.3317 249.312C21.4836 250.93 21.6229 252.243 21.7305 253.119C21.7748 253.544 21.8065 253.886 21.8382 254.159C21.8535 254.281 21.8535 254.405 21.8382 254.527C21.8006 254.411 21.773 254.292 21.7559 254.172C21.7115 253.899 21.6609 253.537 21.5912 253.138C21.4456 252.237 21.2684 250.93 21.0848 249.331C20.7112 246.095 20.363 241.603 20.2934 236.641C20.2237 231.68 20.477 227.169 20.7682 223.92C20.9138 222.296 21.0531 220.989 21.1734 220.113C21.2304 219.688 21.281 219.346 21.319 219.073C21.3331 218.94 21.3586 218.808 21.395 218.68Z" fill="#263238"/>
<path d="M29.1124 232.562C29.0404 232.849 28.9386 233.127 28.8086 233.393C28.5933 233.913 28.2894 234.662 27.9285 235.62C26.0375 240.549 24.7616 245.693 24.1299 250.936C24.0096 251.939 23.921 252.757 23.864 253.322C23.8575 253.615 23.8171 253.907 23.7437 254.191C23.7203 253.897 23.7203 253.602 23.7437 253.309C23.7437 252.744 23.8134 251.919 23.9083 250.911C24.407 245.624 25.6872 240.441 27.707 235.531C28.0995 234.598 28.4414 233.843 28.6946 233.336C28.81 233.066 28.9499 232.806 29.1124 232.562Z" fill="#263238"/>
<path d="M17.8243 254.273C17.1641 252.665 16.3342 251.131 15.3488 249.699C14.2722 248.334 13.0517 247.089 11.7085 245.987C12.1838 246.194 12.6239 246.475 13.0127 246.818C13.9861 247.585 14.8527 248.479 15.5894 249.477C16.3354 250.483 16.9404 251.586 17.3874 252.757C17.611 253.237 17.7584 253.748 17.8243 254.273Z" fill="#263238"/>
<path d="M250.888 219.371C250.945 219.475 250.99 219.586 251.021 219.701L251.35 220.672C251.629 221.509 251.983 222.734 252.439 224.257C253.319 227.296 254.395 231.54 255.326 236.311C256.257 241.083 256.839 245.397 257.168 248.544C257.333 250.118 257.447 251.393 257.504 252.281C257.504 252.694 257.548 253.03 257.567 253.296C257.582 253.414 257.582 253.534 257.567 253.652C257.536 253.537 257.515 253.421 257.504 253.303C257.472 253.036 257.434 252.7 257.384 252.294C257.276 251.367 257.124 250.105 256.947 248.569C256.554 245.435 255.927 241.108 255.009 236.375C254.091 231.642 253.04 227.397 252.224 224.32L251.23 220.71L250.964 219.726C250.922 219.612 250.897 219.492 250.888 219.371Z" fill="#263238"/>
<path d="M249.786 237.663C249.923 237.861 250.035 238.073 250.122 238.297C250.318 238.697 250.59 239.287 250.907 240.01C251.54 241.47 252.388 243.506 253.224 245.79C254.06 248.075 254.731 250.175 255.18 251.704C255.408 252.465 255.579 253.087 255.687 253.525C255.758 253.745 255.804 253.973 255.826 254.204C255.711 254.005 255.624 253.791 255.567 253.569C255.396 253.081 255.199 252.484 254.933 251.786C254.427 250.276 253.724 248.195 252.889 245.917C252.053 243.64 251.255 241.597 250.666 240.118C250.4 239.427 250.166 238.849 249.976 238.361C249.883 238.137 249.819 237.903 249.786 237.663Z" fill="#263238"/>
<path d="M253.851 252.694C253.094 251.206 252.249 249.765 251.318 248.379C250.294 247.057 249.188 245.8 248.007 244.617C248.444 244.855 248.843 245.157 249.191 245.511C250.971 247.127 252.398 249.095 253.382 251.291C253.606 251.733 253.764 252.206 253.851 252.694Z" fill="#263238"/>
<path d="M291.324 254.489C291.257 254.388 291.198 254.282 291.147 254.172C291.033 253.924 290.887 253.614 290.704 253.239C290.52 252.865 290.286 252.332 290.071 251.742C289.855 251.152 289.533 250.473 289.26 249.737C288.684 248.24 288.076 246.425 287.488 244.382C286.899 242.339 286.373 240.068 285.943 237.65C285.512 235.233 285.265 232.911 285.114 230.792C284.962 228.672 284.93 226.756 284.974 225.151C284.974 224.352 285.025 223.628 285.05 222.988C285.076 222.347 285.12 221.807 285.164 221.357C285.208 220.907 285.24 220.602 285.265 220.329C285.272 220.209 285.293 220.089 285.329 219.974C285.34 220.094 285.34 220.215 285.329 220.336C285.329 220.608 285.329 220.97 285.284 221.363C285.24 221.757 285.234 222.359 285.227 222.994C285.221 223.628 285.183 224.358 285.227 225.158C285.227 226.756 285.291 228.66 285.443 230.773C285.595 232.885 285.88 235.214 286.291 237.593C286.703 239.972 287.253 242.263 287.804 244.3C288.355 246.336 288.956 248.151 289.507 249.654C289.76 250.409 290.039 251.082 290.267 251.672C290.495 252.262 290.697 252.776 290.9 253.188L291.286 254.146C291.313 254.259 291.326 254.374 291.324 254.489Z" fill="#198B34"/>
<path d="M287.583 244.268C288.368 239.497 289.944 228.653 294.692 222.207C292.263 223.707 290.292 225.847 288.994 228.393C287.708 230.925 286.679 233.58 285.924 236.318C285.924 236.318 287.526 244.496 287.583 244.268Z" fill="#198B34"/>
<path d="M288.342 246.698C288.077 244.717 288.48 242.705 289.487 240.981C290.494 239.256 292.048 237.919 293.901 237.181C292.185 239.3 290.381 241.622 290.261 244.357C290.153 246.704 290.052 249.045 289.944 251.393C289.381 249.876 288.906 248.221 288.342 246.71" fill="#198B34"/>
<path d="M287.203 242.605C286.052 240.994 284.782 239.471 283.404 238.05C282.171 236.622 280.611 235.514 278.858 234.82C282.719 238.647 286.002 243.018 288.602 247.795" fill="#198B34"/>
<path d="M284.993 227.549C284.189 224.568 282.405 221.945 279.928 220.107C280.134 220.66 280.388 221.193 280.688 221.7C282.258 224.561 283.613 227.41 285.189 230.284" fill="#198B34"/>
<path d="M285.202 221.693C285.694 219.407 286.623 217.237 287.937 215.304C289.265 213.363 291.187 211.909 293.413 211.161C289.482 214.726 286.595 219.297 285.063 224.383" fill="#198B34"/>
<path d="M285.563 220.926C285.519 218.445 284.696 215.85 282.79 214.27C282.431 213.925 281.972 213.703 281.479 213.636C281.233 213.608 280.985 213.667 280.777 213.8C280.568 213.934 280.412 214.136 280.334 214.371C280.303 214.561 280.321 214.755 280.385 214.936C280.449 215.116 280.558 215.278 280.701 215.406C280.99 215.653 281.306 215.866 281.644 216.04C282.623 216.66 283.446 217.498 284.05 218.488C284.654 219.478 285.022 220.595 285.126 221.75" fill="#198B34"/>
<path d="M10.4613 254.299C10.4067 254.221 10.36 254.138 10.322 254.051C10.2334 253.855 10.1194 253.614 9.97381 253.315C9.8282 253.017 9.6446 252.605 9.45467 252.142C9.26474 251.678 9.03682 251.158 8.82156 250.562C8.36573 249.388 7.89091 247.96 7.42241 246.355C6.95391 244.75 6.54873 242.961 6.21319 241.064C5.87764 239.167 5.68138 237.339 5.58008 235.677C5.47879 234.015 5.43447 232.505 5.46613 231.236C5.46613 230.601 5.51044 230.037 5.52944 229.535C5.54843 229.034 5.58642 228.603 5.61807 228.266C5.64973 227.93 5.68138 227.67 5.70037 227.461C5.70506 227.364 5.71992 227.268 5.74469 227.175C5.75931 227.27 5.75931 227.366 5.74469 227.461C5.74469 227.676 5.74469 227.943 5.74469 228.273C5.74469 228.603 5.7067 229.053 5.70037 229.542C5.69404 230.03 5.66239 230.608 5.70037 231.236C5.70037 232.505 5.74469 233.996 5.86498 235.677C5.98527 237.358 6.21318 239.148 6.53607 241.038C6.85895 242.929 7.28946 244.706 7.7263 246.311C8.16314 247.916 8.63163 249.337 9.06214 250.517C9.26474 251.114 9.47999 251.64 9.65726 252.103C9.83453 252.567 9.99913 252.973 10.1384 253.296C10.2777 253.62 10.36 253.848 10.4423 254.045C10.5246 254.242 10.474 254.292 10.4613 254.299Z" fill="#198B34"/>
<path d="M7.51733 246.266C8.15044 242.517 9.37865 233.989 13.1076 228.926C11.2179 230.113 9.68593 231.793 8.67591 233.786C7.66891 235.778 6.86094 237.865 6.26379 240.017C6.26379 240.017 7.49201 246.444 7.51733 246.266Z" fill="#198B34"/>
<path d="M8.11882 248.208C7.90977 246.65 8.22606 245.066 9.01748 243.709C9.80889 242.351 11.0301 241.297 12.4872 240.715C11.1387 242.383 9.72057 244.211 9.6256 246.355L9.37869 251.888C8.93552 250.695 8.56199 249.401 8.11249 248.208" fill="#198B34"/>
<path d="M7.21979 244.959C6.30903 243.692 5.306 242.494 4.21889 241.375C3.24595 240.257 2.02215 239.387 0.648193 238.837C3.68845 241.846 6.27542 245.283 8.32772 249.039" fill="#198B34"/>
<path d="M5.49775 233.126C4.85811 230.776 3.44337 228.712 1.48389 227.27C1.64593 227.71 1.84722 228.135 2.08533 228.539C3.35154 230.792 4.38349 233.038 5.61804 235.284" fill="#198B34"/>
<path d="M5.64974 228.539C6.03667 226.741 6.76766 225.034 7.80229 223.514C8.84907 221.981 10.3677 220.834 12.1264 220.247C9.02664 223.044 6.74969 226.638 5.54211 230.639" fill="#198B34"/>
<path d="M5.93453 227.905C5.93453 225.957 5.25078 223.92 3.75666 222.67C3.47161 222.403 3.11127 222.23 2.72471 222.176C2.53087 222.155 2.33577 222.201 2.17131 222.306C2.00686 222.41 1.88278 222.568 1.81937 222.753C1.79907 222.903 1.81492 223.055 1.86559 223.198C1.91627 223.34 2.00029 223.468 2.1106 223.571C2.33881 223.768 2.58709 223.941 2.85133 224.085C3.61736 224.569 4.26273 225.221 4.73793 225.993C5.21312 226.765 5.50551 227.636 5.59266 228.539" fill="#198B34"/>
<path d="M183.589 218.039C183.589 218.039 190.104 224.967 184.393 240.245L191.148 254.204L195.124 254.07L190.503 240.169C190.503 240.169 192.706 237.46 195.308 225.215L196.213 217.487L183.589 218.039Z" fill="#6F4439"/>
<path opacity="0.3" d="M183.589 218.039C183.589 218.039 190.104 224.967 184.393 240.245L191.148 254.204L195.124 254.07L190.503 240.169C190.503 240.169 192.706 237.46 195.308 225.215L196.213 217.487L183.589 218.039Z" fill="#6F4439"/>
<path d="M234.567 220.05C233.531 221.005 232.709 222.17 232.157 223.467C231.604 224.764 231.334 226.165 231.363 227.575C231.363 232.397 231.8 254.153 231.8 254.153H229.109L225.431 231.191L227.083 223.026L234.567 220.05Z" fill="#6F4439"/>
<path opacity="0.3" d="M234.927 219.241C233.891 220.196 233.07 221.361 232.517 222.658C231.965 223.956 231.694 225.356 231.724 226.766C231.724 231.588 232.161 253.344 232.161 253.344H229.47L225.792 230.383L227.444 222.217L234.927 219.241Z" fill="black"/>
<path d="M245.659 186.886L242.867 183.86L239.017 178.333C239.017 178.333 238.485 185.116 237.169 188.314C235.852 191.511 230.584 193.39 229.451 193.485C228.318 193.58 215.624 195.28 215.624 195.28C215.624 195.28 188.458 195.172 185.039 195.75C183.21 196.123 181.537 197.044 180.24 198.389C180.24 198.389 175.91 201.561 176.758 209.327C177.606 217.093 181.747 224.231 181.367 226.585C180.987 228.939 172.807 235.265 172.807 235.265V254.153H176.606C176.606 254.153 176.688 241.863 177.91 240.448C179.132 239.033 186.774 233.945 189.939 230.55C192.249 227.927 194.297 225.084 196.055 222.061C198.458 223.529 201.24 224.251 204.051 224.136C208.761 223.946 220.898 222.531 220.898 222.531C220.898 222.531 223.43 224.796 222.968 228.095C222.666 230.946 222.539 233.813 222.588 236.679L225.887 254.026L229.932 254.121C229.932 254.121 228.71 227.721 230.306 224.415C231.901 221.11 236.257 221.065 239.302 215.063C241.835 210.051 246.349 202.634 247.501 199.994C248.653 197.355 250.033 187.051 250.033 187.051L245.659 186.886Z" fill="#6F4439"/>
<g opacity="0.3">
<path d="M239.872 180.319C240.6 182.045 241.088 183.625 241.816 185.344C242.202 186.258 242.658 187.248 243.544 187.679C244.266 188.035 245.203 187.99 245.747 188.58C244.841 188.821 243.884 188.783 243 188.472C242.133 188.117 241.362 187.565 240.745 186.859C240.129 186.153 239.685 185.313 239.448 184.405C238.987 182.584 238.92 180.684 239.252 178.835L239.885 180.319" fill="black"/>
</g>
<path d="M241.436 211.072C240.315 204.188 242.417 197.507 244.411 190.826C244.547 190.13 244.891 189.493 245.399 188.999C246.614 188.06 248.799 188.199 249.983 187.216C249.588 191.32 248.836 195.381 247.735 199.354C247.134 201.257 245.791 203.344 244.81 205.064L241.436 211.053" fill="white"/>
<path d="M262.239 156.057C262.331 155.872 262.346 155.658 262.282 155.461C262.218 155.264 262.08 155.1 261.898 155.004C261.799 154.945 261.682 154.923 261.568 154.941C261.113 155.042 259.929 157.891 259.929 157.891C259.998 158.018 258.428 155.353 257.719 153.925C257.586 153.653 256.402 154.078 256.858 155.042C257.314 156.006 259.188 160.518 258.985 161.837C258.922 162.471 258.751 163.089 258.479 163.665C258.479 163.665 257.58 160.048 256.807 159.661C256.238 159.369 255.719 159.356 256.25 161.38C257.035 164.381 256.972 165.739 255.946 166.862C254.801 168.131 252.357 168.734 251.901 168.074C251.445 167.414 250.483 165.898 250.787 164.629C251.091 163.36 250.635 162.446 249.723 163.157C249.102 164.228 248.863 165.479 249.046 166.704C249.168 167.766 249.43 168.807 249.824 169.8L248.805 172.128L251.432 174.254L253.87 170.98C253.87 170.98 257.953 169.039 259.72 165.993C261.486 162.948 260.657 159.382 260.657 159.382L262.239 156.057Z" fill="#455A64"/>
<path d="M229.913 157.187C229.822 157.003 229.806 156.79 229.868 156.595C229.931 156.399 230.068 156.236 230.249 156.14C230.35 156.081 230.469 156.061 230.584 156.083C231.04 156.184 232.224 159.033 232.224 159.033C232.154 159.16 233.718 156.495 234.434 155.074C234.567 154.795 235.744 155.226 235.295 156.184C234.845 157.142 232.965 161.666 233.167 162.979C233.231 163.613 233.402 164.231 233.674 164.807C233.674 164.807 234.573 161.196 235.339 160.803C235.909 160.511 236.434 160.505 235.902 162.529C235.117 165.53 235.181 166.881 236.2 168.004C237.352 169.273 239.796 169.908 240.252 169.222C240.708 168.537 241.67 167.04 241.366 165.771C241.062 164.502 241.518 163.588 242.423 164.299C243.047 165.369 243.286 166.621 243.101 167.846C242.978 168.907 242.718 169.948 242.328 170.942L243.348 173.27L240.72 175.402L238.283 172.128C238.283 172.128 234.199 170.181 232.427 167.135C230.654 164.09 231.496 160.498 231.496 160.498L229.913 157.187Z" fill="#455A64"/>
<g opacity="0.3">
<path d="M246.482 186.899C244.848 186.563 243.778 184.995 242.803 183.6C241.656 181.959 240.409 180.391 239.068 178.905" fill="black"/>
</g>
<path d="M239.872 174.609C239.872 174.609 238.251 167.751 231.889 170.301C231.629 170.403 230.952 176.43 235.364 177.42C235.364 177.42 237.954 177.109 238.682 178.054C239.41 179 240.341 181.798 240.341 181.798C240.341 181.798 242.366 186.994 243.348 187.616C244.582 188.388 246.008 188.795 247.463 188.79C248.471 188.615 249.376 188.064 249.995 187.248C250.475 186.723 250.766 186.053 250.825 185.344C250.774 184.71 251.084 180.827 251.458 180.148C251.831 179.469 252.857 177.452 252.857 177.452C253.698 177.672 254.589 177.608 255.39 177.269C256.191 176.931 256.858 176.337 257.289 175.58C258.392 173.793 259.166 171.823 259.574 169.762C259.574 169.762 255.687 168.252 253.876 170.644C252.066 173.036 251.439 173.918 251.439 173.918L248.811 171.786C246.991 172.531 244.958 172.565 243.114 171.881L239.872 174.609Z" fill="#6F4439"/>
<path d="M240.822 177.915C240.866 178.459 241.107 178.969 241.499 179.349C241.622 179.451 241.765 179.526 241.919 179.568C242.073 179.609 242.234 179.617 242.392 179.59C242.708 179.534 243.006 179.401 243.259 179.203C243.191 178.954 243.072 178.721 242.911 178.519C242.75 178.317 242.55 178.151 242.322 178.029C242.093 177.908 241.842 177.836 241.584 177.817C241.326 177.797 241.066 177.83 240.822 177.915Z" fill="#263238"/>
<path d="M240.524 177.566C240.442 177.566 240.29 176.931 240.777 176.265C241.265 175.599 241.974 175.586 241.968 175.675C241.961 175.764 241.436 175.935 241.037 176.462C240.638 176.988 240.619 177.566 240.524 177.566Z" fill="#263238"/>
<path d="M241.461 180.846C241.461 180.935 240.828 180.738 240.537 180.072C240.246 179.406 240.48 178.803 240.537 178.86C240.594 178.917 240.537 179.399 240.809 179.932C241.081 180.465 241.505 180.77 241.461 180.846Z" fill="#198B34"/>
<path d="M249.482 179.292L249.52 179.361C249.456 179.118 249.451 178.863 249.506 178.618C249.561 178.373 249.675 178.144 249.837 177.953C250.004 177.764 250.213 177.617 250.447 177.525C250.682 177.434 250.935 177.4 251.186 177.426C251.244 177.432 251.3 177.457 251.344 177.496C251.373 177.543 251.386 177.599 251.382 177.655C251.403 177.936 251.38 178.218 251.312 178.492C251.216 178.839 250.989 179.135 250.679 179.317C250.357 179.489 249.98 179.53 249.628 179.431" fill="#263238"/>
<path d="M251.958 177.401C251.958 177.452 251.711 177.445 251.325 177.49C250.865 177.521 250.425 177.686 250.059 177.965C249.755 178.316 249.603 178.772 249.634 179.234C249.634 179.621 249.584 179.869 249.539 179.869C249.495 179.869 249.444 179.64 249.4 179.234C249.366 179.001 249.366 178.764 249.4 178.53C249.444 178.22 249.591 177.933 249.818 177.718C250.243 177.377 250.781 177.21 251.325 177.249C251.73 177.274 251.964 177.363 251.958 177.401Z" fill="#263238"/>
<g opacity="0.3">
<path d="M258.314 170.022C257.313 170.273 256.341 170.631 255.415 171.088C254.48 171.55 253.717 172.299 253.237 173.226C253.006 173.691 252.9 174.208 252.929 174.726C252.958 175.244 253.121 175.746 253.401 176.183L253.547 176.31C253.619 176.428 253.728 176.52 253.858 176.57C253.987 176.621 254.129 176.627 254.262 176.589C254.528 176.515 254.773 176.38 254.978 176.195C255.972 175.463 256.829 174.561 257.51 173.531C258.172 172.488 258.456 171.249 258.314 170.022Z" fill="black"/>
</g>
<g opacity="0.3">
<path d="M237.327 176.1C237.659 176.028 237.959 175.853 238.186 175.6C238.414 175.348 238.556 175.03 238.593 174.692C238.652 174.01 238.453 173.33 238.036 172.788C237.459 172.001 236.668 171.397 235.757 171.05C234.848 170.709 233.884 170.539 232.914 170.549C232.835 170.543 232.755 170.554 232.68 170.58C232.471 170.682 232.477 170.98 232.515 171.215C232.654 172.093 232.916 172.948 233.294 173.753C233.674 174.562 234.276 175.246 235.029 175.726C235.408 175.962 235.832 176.115 236.274 176.175C236.715 176.235 237.165 176.201 237.593 176.075" fill="black"/>
</g>
<path d="M179.981 198.909C177.144 197.672 173.985 196.403 171.048 197.374C169.547 197.863 168.294 198.884 166.983 199.766C165.672 200.648 164.185 201.428 162.608 201.32C164.131 202.599 166.025 203.351 168.008 203.465C169.992 203.579 171.959 203.05 173.618 201.955C173.533 202.388 173.337 202.791 173.05 203.124C172.762 203.458 172.393 203.711 171.978 203.858C173.517 204.188 174.947 203.052 176.119 201.993C177.29 200.933 178.733 199.817 180.265 200.166" fill="#6F4439"/>
<path d="M180.265 200.185C178.733 199.836 177.29 200.959 176.119 202.012C174.947 203.065 173.517 204.207 171.978 203.877C172.393 203.73 172.762 203.477 173.05 203.143C173.337 202.81 173.533 202.407 173.618 201.974C171.959 203.069 169.992 203.598 168.008 203.484C166.025 203.37 164.131 202.618 162.608 201.339C162.608 201.339 165.343 202.126 167.179 201.276C169.015 200.426 168.99 199.062 172.694 198.694C176.397 198.326 180.265 200.185 180.265 200.185Z" fill="white"/>
<path d="M197.575 206.25C197.685 206.449 197.766 206.663 197.815 206.885C198.001 207.463 198.151 208.052 198.265 208.649C199.021 212.633 198.532 216.754 196.865 220.45C196.619 221.008 196.336 221.548 196.017 222.068C195.91 222.265 195.783 222.45 195.637 222.62C195.587 222.588 196.068 221.769 196.65 220.361C198.173 216.673 198.65 212.635 198.03 208.693C197.796 207.177 197.518 206.269 197.575 206.25Z" fill="#263238"/>
<path d="M220.594 222.708C220.556 222.677 220.974 222.182 221.525 221.306C222.931 218.999 223.929 216.467 224.475 213.819C224.55 213.263 224.654 212.71 224.785 212.164C224.843 212.729 224.817 213.3 224.709 213.858C224.502 215.212 224.141 216.538 223.633 217.81C223.147 219.09 222.509 220.306 221.734 221.433C221.43 221.921 221.045 222.353 220.594 222.708Z" fill="#263238"/>
<path d="M234.7 211.592C234.546 210.903 234.428 210.206 234.345 209.505C234.08 207.838 233.71 206.189 233.237 204.569C232.759 202.949 232.178 201.362 231.496 199.817C231.183 199.198 230.904 198.563 230.66 197.913C230.787 198.054 230.894 198.212 230.977 198.383C231.167 198.694 231.42 199.163 231.711 199.747C232.457 201.276 233.074 202.866 233.554 204.499C234.035 206.134 234.376 207.806 234.573 209.499C234.649 210.133 234.687 210.672 234.693 211.04C234.724 211.223 234.726 211.409 234.7 211.592Z" fill="#263238"/>
<path d="M237.327 207.107C237.167 206.434 237.051 205.752 236.979 205.064C236.764 203.42 236.393 201.801 235.871 200.229C235.334 198.665 234.47 197.233 233.338 196.029C232.452 195.115 231.749 194.76 231.781 194.684C231.962 194.739 232.133 194.823 232.287 194.931C232.723 195.194 233.129 195.505 233.497 195.858C234.704 197.049 235.617 198.507 236.162 200.115C236.694 201.708 237.038 203.359 237.188 205.032C237.3 205.718 237.346 206.412 237.327 207.107Z" fill="#263238"/>
<path d="M221.575 199.823C221.542 199.711 221.482 199.609 221.4 199.526C221.319 199.442 221.219 199.38 221.108 199.344C220.997 199.308 220.879 199.299 220.765 199.318C220.65 199.338 220.541 199.385 220.448 199.455C219.659 200.266 219.016 201.208 218.549 202.24C218.488 202.367 218.456 202.506 218.456 202.646C218.456 202.787 218.488 202.926 218.549 203.052C218.847 203.636 219.568 203.452 220.024 203.129C221.05 202.405 221.968 201.111 221.575 199.823Z" fill="white"/>
<path d="M213.927 200.521C213.249 200.708 212.63 201.066 212.129 201.562C211.888 201.787 211.744 202.099 211.729 202.43C211.714 202.761 211.828 203.084 212.047 203.332C212.226 203.469 212.439 203.553 212.663 203.575C212.887 203.596 213.112 203.553 213.313 203.452C213.706 203.255 214.043 202.963 214.295 202.602C214.607 202.267 214.797 201.835 214.833 201.378C214.83 201.261 214.805 201.147 214.758 201.041C214.711 200.935 214.643 200.839 214.559 200.759C214.475 200.68 214.376 200.617 214.267 200.577C214.159 200.536 214.043 200.517 213.927 200.521Z" fill="white"/>
<path d="M207.122 202.114C206.931 201.968 206.704 201.879 206.465 201.857C206.226 201.836 205.986 201.883 205.773 201.993C205.712 202.019 205.653 202.048 205.596 202.082C204.933 202.425 204.372 202.937 203.969 203.566C203.866 203.703 203.791 203.858 203.75 204.024C203.708 204.19 203.7 204.363 203.727 204.531C203.753 204.7 203.814 204.862 203.904 205.007C203.995 205.152 204.114 205.277 204.254 205.375C204.887 205.686 205.583 205.254 206.153 204.835C206.621 204.532 207.016 204.129 207.312 203.655C207.448 203.411 207.503 203.13 207.468 202.853C207.434 202.576 207.313 202.317 207.122 202.114Z" fill="white"/>
<path d="M215.985 205.565C215.708 205.479 215.413 205.471 215.132 205.544C214.851 205.617 214.596 205.767 214.396 205.977C214.338 206.034 214.283 206.093 214.231 206.155C213.609 206.816 213.172 207.63 212.965 208.515C212.769 209.327 213.206 210.355 214.035 210.457C214.864 210.558 215.491 209.772 215.934 209.074C216.342 208.536 216.625 207.914 216.764 207.253C216.831 206.925 216.791 206.584 216.651 206.281C216.511 205.977 216.278 205.726 215.985 205.565Z" fill="white"/>
<path d="M226.982 196.568C226.963 196.299 226.874 196.04 226.723 195.817C226.571 195.594 226.364 195.415 226.121 195.299C225.615 195.09 224.627 195.268 224.431 195.781C224.088 196.361 223.887 197.013 223.842 197.685C223.831 198.025 223.936 198.359 224.142 198.631C224.347 198.902 224.639 199.095 224.969 199.176C225.306 199.171 225.634 199.069 225.915 198.884C226.197 198.699 226.42 198.437 226.558 198.129C226.857 197.665 227.005 197.12 226.982 196.568Z" fill="white"/>
<path d="M203.538 197.564C203.361 197.465 203.172 197.391 202.975 197.342C202.332 197.149 201.652 197.116 200.993 197.247C200.719 197.251 200.455 197.352 200.248 197.532C200.041 197.712 199.903 197.959 199.86 198.231C199.817 198.502 199.871 198.78 200.012 199.016C200.153 199.251 200.373 199.429 200.632 199.518C201.022 199.677 201.435 199.769 201.854 199.791C202.322 199.883 202.804 199.883 203.272 199.791C203.524 199.757 203.757 199.639 203.934 199.458C204.112 199.276 204.225 199.041 204.254 198.788C204.284 198.535 204.229 198.28 204.099 198.062C203.968 197.844 203.768 197.676 203.532 197.583L203.538 197.564Z" fill="white"/>
<path d="M211.636 197.374C211.458 197.135 211.197 196.972 210.904 196.919C210.611 196.866 210.309 196.926 210.059 197.088L210.237 197.019C209.635 197.146 209.496 198.04 209.762 198.598C209.836 198.733 209.937 198.851 210.059 198.945C210.18 199.039 210.319 199.108 210.467 199.147C210.616 199.186 210.77 199.195 210.922 199.172C211.074 199.15 211.22 199.097 211.351 199.017C211.601 198.833 211.77 198.559 211.823 198.253C211.876 197.947 211.809 197.632 211.636 197.374Z" fill="white"/>
<path d="M225.741 204.03C225.565 203.791 225.304 203.628 225.012 203.575C224.721 203.522 224.42 203.582 224.171 203.744L224.348 203.674C223.747 203.808 223.601 204.696 223.873 205.254C223.948 205.388 224.048 205.506 224.169 205.6C224.289 205.694 224.428 205.763 224.576 205.802C224.723 205.841 224.878 205.85 225.029 205.828C225.18 205.806 225.326 205.753 225.456 205.673C225.707 205.49 225.877 205.216 225.93 204.909C225.984 204.602 225.916 204.287 225.741 204.03Z" fill="white"/>
<path d="M218.473 196.613C218.285 196.625 218.103 196.679 217.938 196.772C217.774 196.864 217.632 196.992 217.523 197.146C217.22 197.52 217.315 198.231 217.789 198.338C217.915 198.354 218.042 198.34 218.161 198.3C218.281 198.259 218.389 198.192 218.479 198.104C218.744 197.843 218.908 197.497 218.942 197.127C219.037 196.6 218.473 196.613 218.473 196.613Z" fill="white"/>
<path d="M243.329 179.685C243.278 179.685 243.265 179.469 243.145 179.165C243.002 178.775 242.738 178.441 242.392 178.213C242.012 178.026 241.593 177.934 241.17 177.946C240.834 177.946 240.619 177.946 240.606 177.915C240.594 177.883 240.796 177.769 241.151 177.712C241.628 177.628 242.12 177.704 242.55 177.927C242.76 178.056 242.94 178.227 243.081 178.429C243.222 178.631 243.319 178.86 243.367 179.101C243.443 179.488 243.367 179.717 243.329 179.685Z" fill="#263238"/>
<path d="M241.309 180.884C241.278 180.967 240.72 180.687 240.549 179.983C240.379 179.279 240.777 178.784 240.841 178.847C240.904 178.911 240.739 179.355 240.872 179.913C241.005 180.472 241.366 180.808 241.309 180.884Z" fill="#263238"/>
<path d="M251.92 177.084C251.812 177.084 251.838 176.671 251.755 176.265C251.673 175.859 251.388 175.675 251.401 175.593C251.413 175.51 251.534 175.529 251.692 175.624C251.792 175.688 251.877 175.772 251.944 175.87C252.01 175.968 252.056 176.079 252.078 176.195C252.173 176.728 251.99 177.09 251.92 177.084Z" fill="#263238"/>
<path d="M258.352 170.098C257.932 170.309 257.49 170.475 257.035 170.593C255.971 170.916 254.993 171.476 254.174 172.23C253.742 172.646 253.418 173.163 253.23 173.734C253.088 174.202 253.062 174.699 253.154 175.18C253.256 175.634 253.443 176.065 253.705 176.449C253.5 176.315 253.325 176.14 253.191 175.934C253.057 175.729 252.967 175.498 252.927 175.256C252.79 174.739 252.79 174.194 252.927 173.676C253.112 173.047 253.457 172.477 253.927 172.021C254.78 171.228 255.822 170.669 256.953 170.396C257.404 170.233 257.874 170.133 258.352 170.098Z" fill="#263238"/>
<path d="M232.661 170.593C233.147 170.497 233.646 170.484 234.136 170.555C234.672 170.592 235.201 170.694 235.713 170.859C236.349 171.066 236.94 171.394 237.454 171.824C237.989 172.246 238.392 172.815 238.612 173.461C238.795 173.997 238.773 174.583 238.549 175.104C238.4 175.453 238.145 175.746 237.821 175.942C237.593 176.075 237.447 176.081 237.441 176.068C237.842 175.82 238.154 175.452 238.334 175.015C238.508 174.545 238.508 174.027 238.334 173.556C238.118 172.971 237.743 172.459 237.251 172.078C236.348 171.365 235.261 170.924 234.117 170.809C233.628 170.766 233.142 170.694 232.661 170.593Z" fill="#263238"/>
<path d="M250.236 184.818C249.947 184.208 249.493 183.691 248.925 183.327C248.077 182.743 246.633 182.946 245.658 183.295L245.405 183.644C245.063 183.933 244.77 184.276 244.538 184.659C244.427 184.85 244.362 185.064 244.347 185.284C244.333 185.504 244.37 185.725 244.456 185.928C244.552 186.09 244.681 186.23 244.835 186.34C244.989 186.449 245.164 186.525 245.348 186.563C245.476 186.597 245.598 186.65 245.709 186.721C246.228 187.178 246.882 187.452 247.57 187.502C248.678 187.502 248.659 186.829 249.09 186.658C249.324 186.563 249.723 186.582 249.983 186.505C250.242 186.429 250.388 186.036 250.4 185.789C250.388 185.459 250.332 185.133 250.236 184.818Z" fill="white"/>
<path d="M250.236 186.118C250.236 186.118 250.033 186.347 249.565 186.474C249.286 186.547 248.996 186.565 248.71 186.524C248.524 186.502 248.344 186.443 248.181 186.35C248.018 186.258 247.875 186.133 247.761 185.985H248.014C247.963 186.036 247.912 186.093 247.855 186.144C247.591 186.373 247.274 186.533 246.933 186.611C246.592 186.688 246.237 186.68 245.899 186.588C245.386 186.442 245.171 186.169 245.196 186.144C245.222 186.118 245.481 186.283 245.95 186.36C246.248 186.408 246.554 186.392 246.845 186.312C247.137 186.232 247.408 186.091 247.64 185.896L247.767 185.769L247.912 185.63L248.026 185.782C248.217 185.978 248.454 186.122 248.715 186.202C248.976 186.282 249.253 186.295 249.521 186.239C249.957 186.195 250.211 186.074 250.236 186.118Z" fill="#263238"/>
<path d="M249.305 182.857C249.453 182.926 249.577 183.038 249.661 183.178C249.744 183.318 249.784 183.481 249.774 183.644C249.769 183.822 249.714 183.995 249.617 184.144C249.52 184.293 249.384 184.412 249.223 184.488C249.119 184.521 249.023 184.572 248.938 184.64C248.856 184.716 248.83 184.862 248.938 184.926C248.98 184.951 249.025 184.972 249.071 184.989C249.191 185.084 249.071 185.281 248.982 185.376C248.605 185.69 248.124 185.851 247.635 185.828C247.145 185.804 246.682 185.598 246.336 185.249C246.102 184.888 246.729 185.141 246.741 184.945C246.734 184.846 246.704 184.751 246.653 184.666C246.603 184.581 246.533 184.509 246.45 184.456C246.278 184.36 246.098 184.28 245.912 184.215C245.723 184.151 245.562 184.023 245.456 183.853C245.394 183.698 245.386 183.526 245.434 183.366C245.483 183.205 245.584 183.066 245.722 182.971C246.005 182.79 246.33 182.686 246.665 182.667C247.596 182.546 248.362 182.381 249.324 182.857" fill="#263238"/>
<path d="M196.137 222.118C196.301 221.661 196.584 221.256 196.957 220.946C197.33 220.636 197.78 220.432 198.258 220.355C199.212 220.196 200.185 220.196 201.139 220.355C207.799 221.065 214.257 220.843 220.765 222.518C220.765 222.518 218.372 222.835 216.928 222.988C213.332 223.375 209.597 223.692 206.166 223.977C202.614 224.276 198.898 224.009 196.163 222.074" fill="white"/>
<path d="M246.906 178.517C246.738 178.463 246.557 178.473 246.397 178.548C246.237 178.622 246.111 178.754 246.045 178.917C246.003 179.08 246.024 179.253 246.102 179.401C246.181 179.55 246.311 179.664 246.469 179.722C246.627 179.78 246.8 179.777 246.956 179.714C247.111 179.65 247.238 179.532 247.311 179.38C247.362 179.212 247.349 179.03 247.274 178.871C247.199 178.711 247.068 178.585 246.906 178.517Z" fill="white"/>
<path d="M248.362 175.764C248.301 175.676 248.213 175.61 248.111 175.578C248.009 175.546 247.899 175.549 247.798 175.586C247.59 175.637 247.406 175.758 247.197 175.808C246.872 175.856 246.541 175.803 246.247 175.656C245.955 175.506 245.641 175.403 245.317 175.352C244.994 175.32 244.544 175.402 244.494 175.815C244.291 176.855 245.456 177.477 246.336 177.547C246.778 177.574 247.217 177.454 247.584 177.205C247.95 176.956 248.224 176.592 248.362 176.17C248.413 176.039 248.413 175.894 248.362 175.764Z" fill="white"/>
<path d="M246.374 174.698C246.406 174.698 246.507 174.78 246.653 174.971L246.823 175.193L246.539 175.11C246 174.94 245.506 174.649 245.095 174.26C244.544 173.819 244.182 173.183 244.082 172.484C244.476 173.018 244.899 173.531 245.348 174.019C245.729 174.377 246.155 174.685 246.615 174.933L246.494 175.072C246.374 174.85 246.317 174.717 246.374 174.698Z" fill="#263238"/>
<path d="M246.925 174.92C246.887 174.996 246.488 174.882 246.114 174.552C245.741 174.222 245.576 173.848 245.652 173.797C245.728 173.746 245.994 174.013 246.336 174.305C246.678 174.596 246.963 174.838 246.925 174.92Z" fill="#263238"/>
<path d="M247.716 174.609C247.716 174.698 247.349 174.78 246.95 174.565C246.551 174.349 246.412 173.987 246.494 173.93C246.577 173.873 246.792 174.089 247.127 174.254C247.463 174.419 247.716 174.495 247.716 174.609Z" fill="#263238"/>
<g opacity="0.3">
<path d="M196.542 220.926C197.516 220.243 198.322 219.349 198.9 218.309C199.478 217.269 199.812 216.112 199.879 214.923C200.026 212.503 199.405 210.098 198.106 208.052C198.73 212.406 198.191 216.849 196.542 220.926Z" fill="black"/>
</g>
<g opacity="0.3">
<path d="M231.034 198.211C232.569 200.915 233.841 203.76 234.832 206.707C235.044 207.265 235.176 207.85 235.225 208.445C235.269 209.048 235.073 209.643 234.681 210.101C234.187 205.957 232.913 201.944 230.926 198.275" fill="black"/>
</g>
<g opacity="0.3">
<path d="M178.062 201.143C177.698 202.001 177.603 202.951 177.79 203.865C177.86 204.201 178.031 204.582 178.366 204.645C178.702 204.708 179.037 204.366 179.215 204.011C179.692 203.018 180.021 201.959 180.19 200.87C180.251 200.686 180.237 200.485 180.152 200.312C180.092 200.242 180.018 200.186 179.935 200.148C179.852 200.109 179.762 200.09 179.67 200.09C179.276 200.074 178.886 200.183 178.556 200.4C178.226 200.617 177.971 200.932 177.828 201.301" fill="black"/>
</g>
<path d="M191.832 196.587C191.292 196.64 190.748 196.659 190.205 196.644C188.904 196.68 187.608 196.822 186.331 197.069C185.052 197.316 183.797 197.668 182.576 198.123C182.077 198.337 181.565 198.521 181.044 198.675C181.489 198.355 181.974 198.097 182.488 197.907C183.708 197.38 184.981 196.989 186.286 196.74C187.583 196.489 188.904 196.378 190.224 196.41C190.766 196.397 191.306 196.457 191.832 196.587Z" fill="white"/>
<path d="M238.435 187.222C238.466 187.572 238.414 187.925 238.283 188.25C238.034 189.055 237.625 189.801 237.081 190.443C236.537 191.085 235.869 191.611 235.117 191.987C234.818 192.169 234.479 192.276 234.13 192.298C235.17 191.81 236.094 191.105 236.84 190.229C237.586 189.354 238.136 188.329 238.454 187.222H238.435Z" fill="white"/>
</g>
<defs>
<clipPath id="clip0_13_4716">
<rect width="430" height="288" fill="white"/>
</clipPath>
</defs>
</svg>
