<svg width="367" height="177" viewBox="0 0 367 177" fill="none" xmlns="http://www.w3.org/2000/svg">
<path d="M181.415 176.622C278.77 176.622 357.692 172.263 357.692 166.885C357.692 161.508 278.77 157.149 181.415 157.149C84.0598 157.149 5.13794 161.508 5.13794 166.885C5.13794 172.263 84.0598 176.622 181.415 176.622Z" fill="#6F4439"/>
<path opacity="0.3" d="M301.651 154.534C301.651 154.534 315.47 152.754 323.407 149.675C331.344 146.596 348.127 150.096 353.41 151.705C357.662 152.891 361.985 153.836 366.356 154.534H301.651Z" fill="#6F4439"/>
<path d="M329.671 151.49C329.951 120.545 328.083 89.6152 324.08 58.9013C320.007 28.8756 323.916 14.8647 323.916 14.8647L326.108 15.2604C326.108 15.2604 322.553 26.5189 329.671 72.7831C333.467 98.5407 335.628 124.49 336.145 150.492L329.671 151.49Z" fill="#7C3B29"/>
<path d="M326.198 68.9126C332.149 63.5293 336.304 56.6171 338.154 49.0273H339.608C339.608 49.0273 336.39 63.9155 327.544 71.4843L326.198 68.9126Z" fill="#7C3B29"/>
<path d="M311.77 66.5129C311.77 66.5129 322.625 87.9033 330.926 91.2663V94.483C330.926 94.483 318.152 85.022 311.134 67.1494L311.77 66.5129Z" fill="#7C3B29"/>
<path d="M324.444 47.2041C324.444 47.2041 319.452 36.7454 305.733 30.4668L304.997 31.7225C304.997 31.7225 315.461 34.9822 324.535 53.8612L324.444 47.2041Z" fill="#7C3B29"/>
<path d="M324.426 34.9478C324.426 34.9478 328.308 27.4651 341.309 20.1887L341.954 20.7822C341.954 20.7822 327.489 30.914 324.526 41.3641L324.426 34.9478Z" fill="#7C3B29"/>
<g opacity="0.4">
<path d="M313.421 66.8667C313.421 66.8667 324.276 88.2571 332.577 91.6201V94.8368C332.577 94.8368 319.803 85.3758 312.784 67.5032L313.421 66.8667Z" fill="#7C3B29"/>
<path d="M328.57 152.359C328.849 121.413 326.981 90.4839 322.979 59.7699C318.906 29.7442 322.815 15.7334 322.815 15.7334L325.006 16.129C325.006 16.129 321.451 27.3876 328.57 73.6518C332.365 99.4093 334.527 125.359 335.043 151.361L328.57 152.359Z" fill="#7C3B29"/>
<path d="M325.296 71.0186C331.246 65.6353 335.401 58.723 337.251 51.1333H338.706C338.706 51.1333 335.487 66.0215 326.641 73.5902L325.296 71.0186Z" fill="#7C3B29"/>
<path d="M323.89 44.2708C323.89 44.2708 318.899 33.8121 305.18 27.5334L304.443 28.7892C304.443 28.7892 314.908 32.0489 323.981 50.9279L323.89 44.2708Z" fill="#6F4439"/>
<path d="M321.125 38.3592C321.125 38.3592 325.007 30.8764 338.008 23.6001L338.654 24.1936C338.654 24.1936 324.189 34.3254 321.225 44.7755L321.125 38.3592Z" fill="#6F4439"/>
</g>
<path d="M328.353 5.1543C328.353 5.1543 332.899 15.2001 324.635 18.3137C324.635 18.3137 318.28 11.6222 328.353 5.1543Z" fill="#1E8D3A"/>
<path opacity="0.1" d="M328.353 5.1543C328.353 5.1543 332.899 15.2001 324.635 18.3137C324.635 18.3137 318.28 11.6222 328.353 5.1543Z" fill="#1E8D3A"/>
<path d="M349.327 16.9634C349.327 16.9634 345.573 26.0546 338.254 23.1216C338.254 23.1216 338.645 15.097 349.327 16.9634Z" fill="#1E8D3A"/>
<path opacity="0.1" d="M349.327 16.9634C349.327 16.9634 345.573 26.0546 338.254 23.1216C338.254 23.1216 338.645 15.097 349.327 16.9634Z" fill="#1E8D3A"/>
<path d="M298.869 24.4375C298.869 24.4375 308.279 25.4954 307.233 32.3245C307.233 32.3245 299.606 33.8555 298.869 24.4375Z" fill="#1E8D3A"/>
<path opacity="0.1" d="M298.869 24.4375C298.869 24.4375 308.279 25.4954 307.233 32.3245C307.233 32.3245 299.606 33.8555 298.869 24.4375Z" fill="#1E8D3A"/>
<path d="M312.334 61.8428C312.334 61.8428 318.625 66.8227 314.443 71.3038C314.425 71.3038 308.124 68.9901 312.334 61.8428Z" fill="#1E8D3A"/>
<path opacity="0.1" d="M312.334 61.8428C312.334 61.8428 318.625 66.8227 314.443 71.3038C314.425 71.3038 308.124 68.9901 312.334 61.8428Z" fill="#1E8D3A"/>
<path d="M348.1 45.0023C348.1 45.0023 344.573 53.543 337.69 50.7907C337.69 50.7907 338.063 43.2563 348.1 45.0023Z" fill="#1E8D3A"/>
<path opacity="0.1" d="M348.1 45.0023C348.1 45.0023 344.573 53.543 337.69 50.7907C337.69 50.7907 338.063 43.2563 348.1 45.0023Z" fill="#1E8D3A"/>
<path d="M337.317 14.3658C337.317 14.3658 332.535 24.3171 324.535 20.6273C324.535 20.6273 325.489 11.6738 337.317 14.3658Z" fill="#1E8D3A"/>
<path opacity="0.2" d="M337.317 14.3658C337.317 14.3658 332.535 24.3171 324.535 20.6273C324.535 20.6273 325.489 11.6738 337.317 14.3658Z" fill="#1E8D3A"/>
<path d="M313.807 11.7339C313.807 11.7339 325.326 12.594 324.371 20.9798C324.371 20.9798 315.152 23.1817 313.807 11.7339Z" fill="#1E8D3A"/>
<path opacity="0.2" d="M313.807 11.7339C313.807 11.7339 325.326 12.594 324.371 20.9798C324.371 20.9798 315.152 23.1817 313.807 11.7339Z" fill="#1E8D3A"/>
<path d="M304.761 22.9238C304.761 22.9238 312.852 27.5855 308.897 33.3911C308.897 33.3653 301.288 31.7827 304.761 22.9238Z" fill="#1E8D3A"/>
<path opacity="0.2" d="M304.761 22.9238C304.761 22.9238 312.852 27.5855 308.897 33.3911C308.897 33.3653 301.288 31.7827 304.761 22.9238Z" fill="#198B34"/>
<path d="M320.971 8.24194C320.971 8.24194 330.017 15.0366 324.298 21.4959C324.298 21.4959 315.352 18.4598 320.971 8.24194Z" fill="#1E8D3A"/>
<path opacity="0.3" d="M320.971 8.24194C320.971 8.24194 330.017 15.0366 324.298 21.4959C324.298 21.4959 315.352 18.4598 320.971 8.24194Z" fill="#1E8D3A"/>
<path d="M319.716 63.52C319.716 63.52 319.998 71.2608 313.679 71.321C313.679 71.321 311.297 65.3434 319.716 63.52Z" fill="#1E8D3A"/>
<path opacity="0.2" d="M319.716 63.52C319.716 63.52 319.998 71.2608 313.679 71.321C313.679 71.321 311.297 65.3434 319.716 63.52Z" fill="#1E8D3A"/>
<path d="M303.888 68.8784C303.888 68.8784 311.497 65.9884 313.698 71.6048C313.698 71.6048 308.561 75.7591 303.888 68.8784Z" fill="#1E8D3A"/>
<path opacity="0.2" d="M303.888 68.8784C303.888 68.8784 311.497 65.9884 313.698 71.6048C313.698 71.6048 308.561 75.7591 303.888 68.8784Z" fill="#1E8D3A"/>
<path d="M307.27 64.5176C307.27 64.5176 315.298 66.1345 313.816 71.9487C313.816 71.9487 307.115 72.697 307.27 64.5176Z" fill="#1E8D3A"/>
<path opacity="0.3" d="M307.27 64.5176C307.27 64.5176 315.298 66.1345 313.816 71.9487C313.816 71.9487 307.115 72.697 307.27 64.5176Z" fill="#1E8D3A"/>
<path d="M297.96 32.8319C297.96 32.8319 305.779 27.7746 309.779 33.5716C309.743 33.5716 305.06 39.4718 297.96 32.8319Z" fill="#1E8D3A"/>
<path opacity="0.3" d="M297.96 32.8319C297.96 32.8319 305.779 27.7746 309.779 33.5716C309.743 33.5716 305.06 39.4718 297.96 32.8319Z" fill="#1E8D3A"/>
<path d="M341.327 40.4524C341.327 40.4524 345.291 48.8211 338.39 51.5303C338.39 51.5303 332.972 46 341.327 40.4524Z" fill="#1E8D3A"/>
<path opacity="0.2" d="M341.327 40.4524C341.327 40.4524 345.291 48.8211 338.39 51.5303C338.39 51.5303 332.972 46 341.327 40.4524Z" fill="#1E8D3A"/>
<path d="M332.781 41.708C332.781 41.708 341.809 45.0366 338.908 51.5474C338.908 51.5474 330.944 51.2034 332.781 41.708Z" fill="#1E8D3A"/>
<path opacity="0.3" d="M332.781 41.708C332.781 41.708 341.809 45.0366 338.908 51.5474C338.908 51.5474 330.944 51.2034 332.781 41.708Z" fill="#1E8D3A"/>
<path d="M349.327 24.8158C349.327 24.8158 341.454 31.1289 336.481 25.2631C336.481 25.2631 340.863 18.3738 349.327 24.8158Z" fill="#1E8D3A"/>
<path opacity="0.2" d="M349.327 24.8158C349.327 24.8158 341.454 31.1289 336.481 25.2631C336.481 25.2631 340.863 18.3738 349.327 24.8158Z" fill="#1E8D3A"/>
<path d="M340.181 14.3916C340.181 14.3916 343.818 23.5085 336.354 25.9942C336.354 25.9942 330.944 19.8102 340.181 14.3916Z" fill="#1E8D3A"/>
<path opacity="0.3" d="M340.181 14.3916C340.181 14.3916 343.818 23.5085 336.354 25.9942C336.354 25.9942 330.944 19.8102 340.181 14.3916Z" fill="#1E8D3A"/>
<path d="M301.651 154.534C301.651 154.534 315.47 152.754 323.407 149.675C331.344 146.596 348.127 150.096 353.41 151.705C357.662 152.891 361.985 153.836 366.356 154.534H301.651Z" fill="#6F4439"/>
<path opacity="0.3" d="M23.9666 8.50854C23.9666 8.50854 33.1309 8.87838 32.6399 15.5441C32.6399 15.5441 25.3939 17.5481 23.9666 8.50854Z" fill="#1E8D3A"/>
<path d="M30.0125 151.584C34.7327 120.973 37.3233 90.1007 37.7676 59.1678C38.0312 28.9012 43.9044 15.5269 43.9044 15.5269L46.0318 16.1977C46.0318 16.1977 40.8951 26.8972 41.3133 73.6345C41.3865 99.6435 39.8108 125.633 36.5948 151.464L30.0125 151.584Z" fill="#7C3B29"/>
<path d="M40.1132 35.7648C47.994 33.5093 55.0042 29.12 60.2784 23.1387L61.533 23.7407C61.533 23.7407 51.5322 35.6444 40.0496 38.6203L40.1132 35.7648Z" fill="#7C3B29"/>
<path d="M18.7844 49.9733C18.7844 49.9733 36.9676 66.315 37.7768 74.8471L41.0043 75.8362C41.0043 75.8362 35.4311 61.4297 19.6299 49.6035L18.7844 49.9733Z" fill="#7C3B29"/>
<path d="M39.786 47.5996C39.786 47.5996 36.3403 36.5905 23.6484 28.6089L22.7393 29.7614C22.7393 29.7614 32.6309 34.3371 38.9223 54.2051L39.786 47.5996Z" fill="#773F2E"/>
<path d="M40.2405 58.6173C40.2405 58.6173 45.159 51.7366 59.0873 46.1719L59.6329 46.8341C59.6329 46.8341 43.8498 55.0136 39.4222 64.9906L40.2405 58.6173Z" fill="#7C3B29"/>
<path d="M40.495 34.6466C40.495 34.6466 31.0489 22.2785 29.3488 9.704L30.0761 9.42017C30.0761 9.42017 33.7127 24.1449 41.7042 30.1139L40.495 34.6466Z" fill="#7C3B29"/>
<g opacity="0.4">
<path d="M29.1931 151.791C33.9133 121.179 36.5039 90.3069 36.9482 59.3741C37.2119 29.1075 43.0851 15.7332 43.0851 15.7332L45.2125 16.404C45.2125 16.404 40.0757 27.1035 40.494 73.8408C40.5672 99.8498 38.9915 125.84 35.7754 151.67L29.1931 151.791Z" fill="#7C3B29"/>
<path d="M41.7681 36.226C49.6489 33.9704 56.6591 29.5811 61.9333 23.5999L63.1879 24.2019C63.1879 24.2019 53.1871 36.1055 41.7045 39.0814L41.7681 36.226Z" fill="#1E1E1E"/>
<path d="M20.8991 53.5544C20.8991 53.5544 36.5015 66.4138 38.1856 73.9453L40.7126 74.5234C40.7126 74.5234 34.7387 62.2025 21.4813 53.145L20.8991 53.5544Z" fill="#6F4439"/>
<path d="M37.8989 46.524C37.8989 46.524 34.4532 35.5148 21.7613 27.5332L20.8522 28.6857C20.8522 28.6857 30.7438 33.2614 37.0352 53.1295L37.8989 46.524Z" fill="#6F4439"/>
<path d="M38.3522 59.6452C38.3522 59.6452 43.2707 52.7645 57.199 47.1997L57.7445 47.862C57.7445 47.862 41.9615 56.0414 37.5339 66.0184L38.3522 59.6452Z" fill="#7C3B29"/>
<path d="M40.3394 37.0262C40.3394 37.0262 30.8932 24.6581 29.1931 12.0836L29.9204 11.7998C29.9204 11.7998 33.5571 26.5245 41.5486 32.4935L40.3394 37.0262Z" fill="#7C3B29"/>
</g>
<path d="M54.2051 3.17603C54.2051 3.17603 56.0962 13.9615 47.2864 15.1141C47.2864 15.1141 42.7952 7.18404 54.2051 3.17603Z" fill="#1E8D3A"/>
<path opacity="0.1" d="M53.6651 3.93335C53.6651 3.93335 55.5562 14.7189 46.7464 15.8714C46.7464 15.8714 42.2552 7.94136 53.6651 3.93335Z" fill="#1E8D3A"/>
<path d="M67.4972 43.9959C67.4972 43.9959 62.4695 52.5194 55.6781 48.6834C55.6326 48.6834 57.1691 40.7792 67.4972 43.9959Z" fill="#1E8D3A"/>
<path opacity="0.1" d="M67.4972 43.9959C67.4972 43.9959 62.4695 52.5194 55.6781 48.6834C55.6326 48.6834 57.1691 40.7792 67.4972 43.9959Z" fill="#1E8D3A"/>
<path d="M17.7025 21.7625C17.7025 21.7625 26.885 24.0073 24.8576 30.6472C24.8576 30.6472 17.0843 31.189 17.7025 21.7625Z" fill="#1E8D3A"/>
<path opacity="0.1" d="M17.7025 21.7625C17.7025 21.7625 26.885 24.0073 24.8576 30.6472C24.8576 30.6472 17.0843 31.189 17.7025 21.7625Z" fill="#1E8D3A"/>
<path d="M13.9204 49.0274C13.9204 49.0274 16.9843 56.2264 22.7847 53.8439C22.7847 53.8439 22.4029 47.4621 13.9204 49.0274Z" fill="#1E8D3A"/>
<path opacity="0.1" d="M13.9204 49.0274C13.9204 49.0274 16.9843 56.2264 22.7847 53.8439C22.7847 53.8439 22.4029 47.4621 13.9204 49.0274Z" fill="#1E8D3A"/>
<path d="M71.0702 23.8009C71.0702 23.8009 63.8514 29.9075 59.0238 24.5148C59.0238 24.5148 62.9514 17.9523 71.0702 23.8009Z" fill="#1E8D3A"/>
<path opacity="0.1" d="M71.0702 23.8009C71.0702 23.8009 63.8514 29.9075 59.0238 24.5148C59.0238 24.5148 62.9514 17.9523 71.0702 23.8009Z" fill="#1E8D3A"/>
<path d="M56.2599 13.6605C56.2599 13.6605 51.7141 23.6891 43.5953 20.137C43.5953 20.137 44.3772 11.1748 56.2599 13.6605Z" fill="#1E8D3A"/>
<path opacity="0.2" d="M56.2599 13.6605C56.2599 13.6605 51.7141 23.6891 43.5953 20.137C43.5953 20.137 44.3772 11.1748 56.2599 13.6605Z" fill="#1E8D3A"/>
<path d="M39.3314 6.90015C39.3314 6.90015 48.8139 13.153 43.5317 19.9219C43.5317 19.9219 34.3946 17.419 39.3314 6.90015Z" fill="#1E8D3A"/>
<path opacity="0.2" d="M39.3314 6.90015C39.3314 6.90015 48.8139 13.153 43.5317 19.9219C43.5317 19.9219 34.3946 17.419 39.3314 6.90015Z" fill="#1E8D3A"/>
<path d="M23.7574 21.0142C23.7574 21.0142 31.1125 26.6735 26.3576 31.9115C26.3576 31.9115 19.048 29.3398 23.7574 21.0142Z" fill="#1E8D3A"/>
<path opacity="0.2" d="M23.7574 21.0142C23.7574 21.0142 31.1125 26.6735 26.3576 31.9115C26.3576 31.9115 19.048 29.3398 23.7574 21.0142Z" fill="#1E8D3A"/>
<path d="M45.3137 4.02759C45.3137 4.02759 51.7596 13.1015 44.2409 17.6084C44.2409 17.6084 36.6858 12.1382 45.3137 4.02759Z" fill="#1E8D3A"/>
<path opacity="0.3" d="M45.3137 4.02759C45.3137 4.02759 51.7596 13.1015 44.2409 17.6084C44.2409 17.6084 36.6858 12.1382 45.3137 4.02759Z" fill="#1E8D3A"/>
<path d="M13.3295 56.2091C13.3295 56.2091 21.0391 58.8495 23.0302 53.1816C23.0302 53.1472 17.7662 49.1907 13.3295 56.2091Z" fill="#1E8D3A"/>
<path opacity="0.2" d="M13.3295 56.2091C13.3295 56.2091 21.0391 58.8495 23.0302 53.1816C23.0302 53.1472 17.7662 49.1907 13.3295 56.2091Z" fill="#1E8D3A"/>
<path d="M23.5938 43.6089C23.5938 43.6089 18.348 49.5779 23.312 53.2763C23.312 53.2763 29.0669 49.9391 23.5938 43.6089Z" fill="#1E8D3A"/>
<path opacity="0.2" d="M23.5938 43.6089C23.5938 43.6089 18.348 49.5779 23.312 53.2763C23.312 53.2763 29.0669 49.9391 23.5938 43.6089Z" fill="#1E8D3A"/>
<path d="M18.1661 45.3118C18.1661 45.3118 17.3115 53.0526 23.6211 53.4998C23.612 53.4998 26.4304 47.6942 18.1661 45.3118Z" fill="#1E8D3A"/>
<path opacity="0.3" d="M18.1661 45.3118C18.1661 45.3118 17.3115 53.0526 23.6211 53.4998C23.612 53.4998 26.4304 47.6942 18.1661 45.3118Z" fill="#1E8D3A"/>
<path d="M15.6023 29.9248C15.6023 29.9248 24.0757 25.9081 27.1668 32.1696C27.1668 32.204 21.6846 37.4505 15.6023 29.9248Z" fill="#1E8D3A"/>
<path opacity="0.3" d="M15.6023 29.9248C15.6023 29.9248 24.0757 25.9081 27.1668 32.1696C27.1668 32.204 21.6846 37.4505 15.6023 29.9248Z" fill="#1E8D3A"/>
<path d="M67.2062 16.8513C67.2062 16.8513 66.7426 26.0027 59.2965 25.4522C59.2965 25.478 57.1055 18.2189 67.2062 16.8513Z" fill="#1E8D3A"/>
<path opacity="0.2" d="M59.5974 11.8004C59.5974 11.8004 66.5489 18.1999 61.1715 23.0885C61.1919 23.1056 53.9798 19.8349 59.5974 11.8004Z" fill="#1E8D3A"/>
<path d="M58.9873 14.3142C58.9873 14.3142 65.4515 21.1433 59.751 25.7104C59.751 25.7104 52.8141 21.9948 58.9873 14.3142Z" fill="#1E8D3A"/>
<path opacity="0.3" d="M69.7385 18.8472C69.7385 18.8472 68.0985 29.4564 60.5311 24.3538C60.5311 24.3538 59.2157 14.4198 69.7385 18.8472Z" fill="#1E8D3A"/>
<path opacity="0.3" d="M73.7573 23.9107C73.7573 23.9107 66.2061 27.084 62.9856 22.0416C62.9856 22.0416 67.7183 17.8706 73.7573 23.9107Z" fill="#1E8D3A"/>
<path d="M66.3697 51.7797C66.3697 51.7797 57.66 57.0177 53.5779 50.567C53.5779 50.567 58.8965 44.3142 66.3697 51.7797Z" fill="#1E8D3A"/>
<path opacity="0.2" d="M66.3697 51.7797C66.3697 51.7797 57.66 57.0177 53.5779 50.567C53.5779 50.567 58.8965 44.3142 66.3697 51.7797Z" fill="#1E8D3A"/>
<path d="M58.7964 40.2458C58.7964 40.2458 61.133 49.7584 53.3415 51.255C53.3415 51.2808 48.8684 44.4603 58.7964 40.2458Z" fill="#1E8D3A"/>
<path opacity="0.3" d="M58.7964 40.2458C58.7964 40.2458 61.133 49.7584 53.3415 51.255C53.3415 51.2808 48.8684 44.4603 58.7964 40.2458Z" fill="#1E8D3A"/>
<path d="M29.4033 2.35034C29.4033 2.35034 35.9493 8.42257 30.8216 13.0757C30.8216 13.0757 24.0393 9.95353 29.4033 2.35034Z" fill="#1E8D3A"/>
<path opacity="0.1" d="M29.4033 2.35034C29.4033 2.35034 35.9493 8.42257 30.8216 13.0757C30.8216 13.0757 24.0393 9.95353 29.4033 2.35034Z" fill="#1E8D3A"/>
<path d="M36.1856 5.11987C36.1856 5.11987 38.8586 13.4197 32.049 15.1915C32.049 15.1915 27.6486 9.38591 36.1856 5.11987Z" fill="#1E8D3A"/>
<path opacity="0.2" d="M36.1856 5.11987C36.1856 5.11987 38.8586 13.4197 32.049 15.1915C32.049 15.1915 27.6486 9.38591 36.1856 5.11987Z" fill="#1E8D3A"/>
<path d="M23.9666 8.50854C23.9666 8.50854 33.1309 8.87838 32.6399 15.5441C32.6399 15.5441 25.3939 17.5481 23.9666 8.50854Z" fill="#1E8D3A"/>
<path d="M1.62854 154.534C1.62854 154.534 15.4478 152.754 23.3847 149.675C31.3217 146.596 48.1048 150.096 53.387 151.705C57.639 152.891 61.9622 153.836 66.3334 154.534H1.62854Z" fill="#6F4439"/>
<path opacity="0.3" d="M1.62854 154.534C1.62854 154.534 15.4478 152.754 23.3847 149.675C31.3217 146.596 48.1048 150.096 53.387 151.705C57.639 152.891 61.9622 153.836 66.3334 154.534H1.62854Z" fill="#6F4439"/>
<path opacity="0.2" d="M174.141 143.577C174.405 143.68 174.596 143.964 174.887 144.016C174.996 144.016 175.123 144.016 175.241 144.016C175.343 144.039 175.437 144.086 175.514 144.152C175.592 144.218 175.651 144.301 175.687 144.394C175.742 144.589 175.742 144.793 175.687 144.988C176.051 144.91 176.332 144.988 176.532 144.687C176.733 144.386 176.769 144.127 177.178 144.076C177.314 144.059 177.451 144.059 177.587 144.076C178.026 144.1 178.439 144.281 178.742 144.583C178.841 144.764 178.96 144.934 179.096 145.091C179.424 145.349 179.924 145.151 180.351 145.203C180.54 145.239 180.719 145.313 180.876 145.42C181.033 145.527 181.164 145.664 181.26 145.822C181.461 146.102 181.597 146.418 181.66 146.751V147.465C181.679 147.756 181.635 148.049 181.533 148.325C181.424 148.566 181.251 149.073 181.715 149.116C181.869 149.116 182.042 149.073 182.142 149.176C182.242 149.279 182.197 149.357 182.233 149.443C182.269 149.529 182.424 149.632 182.515 149.727C182.594 149.803 182.656 149.894 182.697 149.993C182.958 150.622 182.99 151.315 182.787 151.963C182.603 152.379 182.463 152.811 182.369 153.253V155.171C182.301 156.125 182.301 157.082 182.369 158.035C182.415 158.26 182.415 158.49 182.369 158.715C182.348 158.792 182.311 158.865 182.259 158.929C182.208 158.992 182.143 159.045 182.069 159.084C181.951 159.162 181.787 159.084 181.769 159.308C181.77 159.433 181.788 159.557 181.824 159.678C181.869 159.945 181.751 160.34 181.533 159.988C181.46 159.765 181.435 159.531 181.46 159.299C181.46 158.801 181.46 158.302 181.46 157.803C181.46 157.304 181.36 156.883 181.296 156.435C181.287 156.283 181.23 156.136 181.133 156.014C180.724 155.61 180.169 156.521 180.178 156.874C180.215 157.229 180.215 157.586 180.178 157.941C179.898 159.258 179.858 160.61 180.06 161.94C180.06 162.121 180.124 162.336 179.969 162.447C179.892 162.49 179.804 162.511 179.715 162.508C179.632 162.527 179.546 162.529 179.462 162.513C179.379 162.496 179.3 162.462 179.233 162.413C179.155 162.311 179.116 162.186 179.124 162.06C179.18 161.488 179.18 160.912 179.124 160.34C179.113 160.268 179.089 160.198 179.051 160.134C179.005 160.082 178.933 160.048 178.878 159.996C178.81 159.908 178.762 159.808 178.738 159.701C178.715 159.594 178.716 159.483 178.742 159.377C178.76 158.545 178.705 157.714 178.578 156.891C178.571 156.707 178.524 156.525 178.442 156.358C178.404 156.274 178.342 156.202 178.264 156.148C178.185 156.095 178.093 156.064 177.996 156.057C177.551 156.057 177.669 156.53 177.687 156.788C177.71 156.928 177.71 157.07 177.687 157.209C177.668 157.277 177.63 157.338 177.577 157.386C177.524 157.434 177.459 157.469 177.387 157.485C177.34 157.501 177.289 157.501 177.242 157.485C177.206 157.451 177.179 157.411 177.164 157.366C177.148 157.321 177.143 157.273 177.151 157.227V156.917C177.16 156.877 177.16 156.836 177.151 156.797C177.078 156.676 176.878 156.719 176.742 156.668C176.605 156.616 176.487 155.876 176.432 155.67C176.323 155.257 176.251 154.81 176.178 154.414C176.112 153.687 175.963 152.969 175.732 152.273C175.505 151.756 175.387 151.206 175.114 150.716C175.037 150.591 174.976 150.459 174.932 150.32C174.942 150.148 174.942 149.976 174.932 149.804C174.878 149.606 174.723 149.451 174.696 149.262C174.707 149.023 174.792 148.793 174.941 148.6C175.069 148.335 175.108 148.039 175.055 147.752C175.001 147.465 174.857 147.2 174.641 146.992C174.432 146.794 174.16 146.725 173.95 146.527C173.755 146.285 173.529 146.065 173.278 145.873C172.914 145.641 172.369 145.641 172.178 145.254C172.25 145.375 172.432 145.254 172.469 145.117C172.505 144.979 172.559 144.816 172.696 144.824L172.814 144.867C172.984 144.946 173.178 144.961 173.36 144.91C173.276 144.835 173.215 144.741 173.181 144.637C173.148 144.533 173.143 144.423 173.169 144.317C173.22 144.103 173.337 143.908 173.505 143.758C173.577 143.674 173.669 143.607 173.773 143.563C173.877 143.518 173.991 143.496 174.105 143.5L174.141 143.577Z" fill="#A36957"/>
<path opacity="0.2" d="M133.147 169.474C133.147 169.474 147.103 162.697 151.331 162.525C155.558 162.353 161.331 165.346 162.759 165.638C164.186 165.931 174.632 165.002 176.787 164.357C178.942 163.712 186.133 165.509 188.297 165.217C190.461 164.924 196.87 160.804 199.052 160.142C201.234 159.48 217.972 168.046 219.963 168.528C221.954 169.01 226.791 169.577 226.791 169.577C226.791 169.577 210.426 170.532 208.089 170.532C205.753 170.532 203.071 172.915 193.616 172.407C184.16 171.9 180.033 172.889 175.542 172.476C171.05 172.063 169.968 170.876 164.932 170.876C159.895 170.876 153.24 172.407 149.821 171.048C146.403 169.689 133.147 169.474 133.147 169.474Z" fill="#7C3B29"/>
<path d="M205.68 75.7676C205.68 75.7676 202.744 91.0256 201.462 96.5559C200.18 102.086 175.723 134.856 175.723 134.856C175.723 134.856 170.205 143.388 170.205 146.114C170.205 148.841 179.56 154.586 180.751 153.984C181.942 153.382 184.588 140.446 184.588 140.446L183.397 137.066C183.397 137.066 208.353 106.421 210.381 101.888C212.408 97.3558 217.036 78.7091 217.036 78.7091L205.68 75.7676Z" fill="#E4897B"/>
<path d="M202.325 86.8542C202.325 86.8542 205.053 58.9099 207.544 53.9128C210.035 48.9157 219.59 56.3382 221.181 65.954C222.772 75.5698 215.426 93.1156 215.426 93.1156L202.325 86.8542Z" fill="white"/>
<path opacity="0.4" d="M220.854 75.3462C219.946 80.0756 218.651 84.7312 216.981 89.271C216.126 91.6449 215.49 93.15 215.49 93.15L202.325 86.8542C202.325 86.8542 205.053 58.9099 207.544 53.9128C210.035 48.9157 219.59 56.3382 221.181 65.954C221.585 69.082 221.475 72.2502 220.854 75.3462Z" fill="white"/>
<path d="M201.462 84.5491V88.4109L216.026 95.3432L218.181 91.0599L201.462 84.5491Z" fill="white"/>
<path opacity="0.6" d="M201.462 84.5491V88.4109L216.026 95.3432L218.181 91.0599L201.462 84.5491Z" fill="white"/>
<path opacity="0.2" d="M220.854 75.3461C219.946 80.0755 218.651 84.7311 216.981 89.2709C213.463 80.6701 214.326 62.376 214.326 62.376L220.854 75.3461Z" fill="black"/>
<path d="M276.922 156.831L265.185 158.069L254.357 159.205L255.448 150.544V150.518H255.457L256.239 150.509L264.73 150.432L273.44 150.354L276.922 156.831Z" fill="#E4897B"/>
<path opacity="0.2" d="M265.185 158.07L254.357 159.205L255.448 150.544L255.457 150.518L256.239 150.509L264.739 150.423L264.73 150.432L265.185 158.07Z" fill="black"/>
<path d="M260.284 147.181L259.457 161.871L263.439 161.389L263.53 146.759L260.284 147.181Z" fill="#455A64"/>
<path d="M275.749 157.072L269.849 150.105C269.754 149.991 269.702 149.85 269.702 149.705C269.702 149.56 269.754 149.419 269.849 149.305L274.285 144.084C274.477 143.862 274.754 143.721 275.056 143.692C275.358 143.663 275.659 143.749 275.895 143.93C275.959 143.98 276.017 144.038 276.067 144.102C277.94 146.381 279.186 148.135 281.586 150.982C283.059 152.702 287.705 157.863 289.768 160.237C291.832 162.611 289.559 164.864 288.495 164.056C283.741 160.409 279.513 158.155 276.967 157.76C276.484 157.684 276.049 157.439 275.749 157.072Z" fill="#263238"/>
<path opacity="0.2" d="M275.749 157.072L269.849 150.105C269.754 149.991 269.702 149.85 269.702 149.705C269.702 149.56 269.754 149.419 269.849 149.305L274.285 144.084C274.477 143.862 274.754 143.721 275.056 143.692C275.358 143.663 275.659 143.749 275.895 143.93C275.959 143.98 276.017 144.038 276.067 144.102C277.94 146.381 279.186 148.135 281.586 150.982C283.059 152.702 287.705 157.863 289.768 160.237C291.832 162.611 289.559 164.864 288.495 164.056C283.741 160.409 279.513 158.155 276.967 157.76C276.484 157.684 276.049 157.439 275.749 157.072Z" fill="black"/>
<path d="M217.499 41.106C220.536 36.2465 227.418 32.2213 232.5 32.8062C237.583 33.391 262.448 66.513 262.448 66.513L278.404 97.8719L225.354 114.712C225.354 114.712 226.354 86.8799 218.39 64.6466C218.39 64.6552 213.408 47.6685 217.499 41.106Z" fill="white"/>
<path opacity="0.2" d="M217.499 41.106C220.536 36.2465 227.418 32.2213 232.5 32.8062C237.583 33.391 262.448 66.513 262.448 66.513L278.404 97.8719L225.354 114.712C225.354 114.712 226.354 86.8799 218.39 64.6466C218.39 64.6552 213.408 47.6685 217.499 41.106Z" fill="white"/>
<path d="M263.294 93.2275L261.203 120.002C261.203 120.002 259.093 121.937 256.148 124.81C248.565 132.164 235.437 145.684 237.919 148.712C241.374 152.926 252.893 151.92 252.893 151.92L256.829 163.101L257.739 165.63L256.875 165.819C250.769 167.221 244.539 168.085 238.264 168.399C226.982 168.872 214.526 166.971 212.117 156.848C207.517 137.565 228.773 115.014 236.664 105.243C238.61 102.835 237.983 93.2017 237.983 93.2017L263.294 93.2275Z" fill="#263238"/>
<path opacity="0.2" d="M256.875 165.819C250.769 167.221 244.539 168.085 238.264 168.399C232.871 166.072 228.318 162.298 225.173 157.545C215.645 142.571 244.774 114.824 244.774 114.824V108.331L255.966 114.876L256.148 124.81C248.565 132.164 235.437 145.684 237.919 148.712C241.374 152.926 252.893 151.92 252.893 151.92L256.829 163.101L256.875 165.819Z" fill="black"/>
<path d="M278.422 158.155C278.783 158.521 279.004 158.99 279.049 159.489C279.045 159.663 278.993 159.834 278.899 159.985C278.806 160.135 278.672 160.261 278.513 160.349C278.433 160.414 278.335 160.457 278.23 160.471C278.125 160.484 278.018 160.469 277.922 160.426C277.013 160.048 276.667 157.287 276.631 156.986C276.625 156.953 276.63 156.919 276.645 156.888C276.659 156.858 276.683 156.832 276.713 156.814C276.744 156.794 276.78 156.784 276.817 156.784C276.854 156.784 276.891 156.794 276.922 156.814C277.471 157.209 277.974 157.658 278.422 158.155ZM277.886 159.962C277.929 160.03 277.996 160.082 278.076 160.108C278.076 160.108 278.195 160.151 278.322 160.065C278.426 160.005 278.513 159.922 278.575 159.823C278.637 159.724 278.672 159.612 278.677 159.497C278.444 158.619 277.865 157.859 277.058 157.373C277.159 158.277 277.44 159.156 277.886 159.962Z" fill="white"/>
<path d="M276.967 156.857L277.022 156.926C277.176 157.786 276.813 159.927 276.113 160.297C275.989 160.357 275.847 160.375 275.711 160.346C275.575 160.318 275.453 160.246 275.367 160.142C275.265 160.052 275.185 159.941 275.133 159.817C275.081 159.694 275.059 159.561 275.067 159.428C275.067 158.328 276.695 156.848 276.776 156.797C276.805 156.784 276.836 156.778 276.867 156.778C276.899 156.778 276.93 156.784 276.958 156.797C276.965 156.816 276.968 156.836 276.967 156.857ZM275.485 159.876L275.54 159.936C275.685 160.117 275.804 160.048 275.849 160.022C276.304 159.798 276.695 158.302 276.667 157.356C276.01 157.917 275.55 158.655 275.349 159.471C275.339 159.618 275.388 159.762 275.485 159.876Z" fill="white"/>
<path d="M313.388 161.983L301.651 163.221L290.814 164.357L291.905 155.696L291.914 155.67H291.923H292.696L301.196 155.584L309.906 155.506L313.388 161.983Z" fill="#E4897B"/>
<path d="M312.215 162.224L306.315 155.265C306.218 155.151 306.165 155.008 306.165 154.861C306.165 154.714 306.218 154.572 306.315 154.457L310.752 149.236C310.848 149.126 310.966 149.034 311.099 148.967C311.232 148.9 311.378 148.858 311.529 148.845C311.679 148.831 311.831 148.846 311.975 148.888C312.12 148.93 312.254 148.999 312.37 149.09C312.434 149.138 312.492 149.193 312.543 149.253C314.416 151.541 315.661 153.287 318.052 156.134C319.534 157.854 324.18 163.015 326.235 165.397C328.289 167.78 326.026 170.016 324.962 169.208C320.198 165.561 315.97 163.307 313.434 162.912C312.948 162.842 312.51 162.595 312.215 162.224Z" fill="#263238"/>
<path d="M314.888 163.316C315.249 163.681 315.467 164.151 315.507 164.649C315.504 164.823 315.454 164.994 315.362 165.144C315.27 165.295 315.138 165.421 314.979 165.509C314.897 165.574 314.797 165.615 314.69 165.628C314.584 165.64 314.476 165.623 314.379 165.578C313.47 165.208 313.134 162.447 313.097 162.138C313.089 162.104 313.093 162.07 313.107 162.038C313.122 162.007 313.147 161.982 313.179 161.966C313.21 161.945 313.246 161.934 313.284 161.934C313.321 161.934 313.358 161.945 313.388 161.966C313.941 162.361 314.444 162.814 314.888 163.316ZM314.352 165.122C314.399 165.184 314.462 165.234 314.534 165.268C314.534 165.268 314.661 165.268 314.779 165.225C314.886 165.165 314.975 165.081 315.038 164.981C315.102 164.88 315.138 164.766 315.143 164.649C314.905 163.774 314.327 163.015 313.525 162.525C313.615 163.434 313.897 164.317 314.352 165.122Z" fill="white"/>
<path d="M313.425 162.009L313.479 162.078C313.643 162.938 313.279 165.079 312.57 165.449C312.446 165.511 312.304 165.529 312.167 165.501C312.031 165.472 311.909 165.399 311.825 165.294C311.722 165.203 311.641 165.092 311.588 164.969C311.535 164.846 311.51 164.713 311.515 164.58C311.515 163.488 313.152 162 313.225 161.957C313.254 161.943 313.287 161.935 313.32 161.935C313.353 161.935 313.386 161.943 313.416 161.957C313.421 161.974 313.424 161.991 313.425 162.009ZM311.943 165.028L311.997 165.096C312.152 165.268 312.27 165.2 312.315 165.182C312.77 164.95 313.161 163.462 313.134 162.516C312.474 163.077 312.011 163.815 311.806 164.632C311.801 164.775 311.85 164.915 311.943 165.028Z" fill="white"/>
<path opacity="0.2" d="M301.651 163.221L290.814 164.357L291.905 155.696L291.923 155.67H292.696L301.196 155.575V155.584L301.651 163.221Z" fill="black"/>
<path d="M255.329 91.275C252.893 101.854 228.346 151.799 243.856 165.079C255.238 174.841 297.723 165.638 297.723 165.638L298.387 153.459C298.387 153.459 264.948 154.5 261.439 150.828C257.93 147.155 278.558 119.538 281.44 112.003C286.523 98.6288 281.013 90.7332 281.013 90.7332L255.329 91.275Z" fill="#263238"/>
<path d="M296.742 152.333L295.923 167.023L299.905 166.541L299.996 151.92L296.742 152.333Z" fill="#455A64"/>
<path d="M286.495 98.6289L237.464 99.5319C237.464 99.5319 225.464 63.3308 208.089 53.1302C209.877 50.4196 212.049 47.9539 214.545 45.8022C219.93 40.9938 226.441 37.4574 233.546 35.4811C238.951 34.0011 244.568 33.3307 250.193 33.4943C250.193 33.4943 275.604 46.6279 286.495 98.6289Z" fill="white"/>
<path d="M232.5 36.1088C227.554 53.2074 218.39 43.6948 218.39 43.6948C218.701 43.1524 218.846 42.5389 218.808 41.923C218.749 41.2498 218.531 40.5976 218.171 40.0143C217.811 39.4309 217.317 38.9311 216.726 38.5515C216.149 38.1302 215.542 37.7479 214.908 37.4075L216.017 23.9644C217.689 26.3833 219.545 28.683 221.572 30.8451C224.818 34.2252 228.745 36.9947 232.5 36.1088Z" fill="#E4897B"/>
<path opacity="0.2" d="M218.808 41.966C218.749 41.2927 218.531 40.6406 218.171 40.0572C217.811 39.4739 217.317 38.9741 216.726 38.5944C216.149 38.1732 215.542 37.7909 214.908 37.4505L216.017 24.0073C217.689 26.4262 219.545 28.726 221.572 30.888C221.854 35.4207 221.345 39.919 218.808 41.966Z" fill="black"/>
<path d="M193.043 23.2334C193.043 23.2334 195.407 31.3527 202.262 32.6944C209.117 34.0361 201.053 16.8516 201.053 16.8516L193.043 23.2334Z" fill="#263238"/>
<path d="M220.963 32.6083C220.924 33.0008 220.863 33.3913 220.781 33.778C220.408 35.757 219.358 37.5653 217.792 38.9249C216.227 40.2845 214.233 41.1203 212.117 41.3038C209.382 41.5897 206.635 40.8793 204.435 39.317C204.117 39.1055 203.813 38.8757 203.526 38.6289C202.93 38.1 202.362 37.5431 201.825 36.9603C197.28 31.9976 193.379 23.7924 197.461 18.133C198.469 16.7259 199.84 15.5856 201.443 14.8201C203.047 14.0547 204.831 13.6896 206.626 13.7594C208.421 13.8292 210.168 14.3316 211.7 15.2189C213.232 16.1062 214.499 17.3491 215.381 18.8297C218.972 24.6267 221.418 28.0756 220.963 32.6083Z" fill="#E4897B"/>
<path d="M206.871 26.6394C206.965 26.72 207.04 26.8183 207.091 26.9279C207.142 27.0375 207.169 27.156 207.169 27.2759C207.169 27.3957 207.142 27.5142 207.091 27.6239C207.04 27.7335 206.965 27.8317 206.871 27.9123C206.526 28.136 205.962 27.9123 205.626 27.4135C205.289 26.9146 205.271 26.3384 205.626 26.1319C205.98 25.9255 206.507 26.1405 206.871 26.6394Z" fill="#263238"/>
<path d="M200.962 30.3376C201.138 30.5094 201.236 30.7392 201.236 30.9784C201.236 31.2176 201.138 31.4475 200.962 31.6192C200.625 31.8342 200.053 31.6192 199.716 31.1117C199.38 30.6043 199.371 30.0452 199.716 29.8302C200.062 29.6152 200.634 29.8732 200.962 30.3376Z" fill="#263238"/>
<path d="M203.007 29.4087C203.446 31.3083 203.605 33.2562 203.48 35.1971C204.009 35.2132 204.535 35.1199 205.022 34.9239C205.508 34.7278 205.944 34.4336 206.298 34.0618L203.007 29.4087Z" fill="#DE5753"/>
<path d="M207.426 23.6805C207.374 23.7218 207.312 23.7504 207.245 23.7639C207.178 23.7774 207.109 23.7753 207.044 23.7579C206.614 23.603 206.151 23.5457 205.693 23.5905C205.235 23.6353 204.795 23.781 204.407 24.0159C204.329 24.07 204.232 24.0939 204.136 24.0827C204.039 24.0715 203.951 24.0261 203.889 23.9557C203.831 23.8813 203.806 23.7882 203.819 23.6965C203.833 23.6047 203.884 23.5218 203.962 23.4655C204.443 23.1574 204.996 22.963 205.574 22.8986C206.151 22.8343 206.736 22.9018 207.28 23.0956C207.374 23.1234 207.452 23.185 207.498 23.2672C207.544 23.3493 207.554 23.4453 207.526 23.5343C207.502 23.5885 207.469 23.6381 207.426 23.6805Z" fill="#263238"/>
<path d="M197.079 30.0109C197.04 30.0698 196.978 30.1126 196.907 30.1313C196.86 30.1386 196.811 30.1372 196.765 30.1269C196.718 30.1166 196.674 30.0978 196.635 30.0714C196.597 30.045 196.564 30.0117 196.538 29.9733C196.513 29.9348 196.496 29.8921 196.489 29.8474C196.396 29.3004 196.444 28.7403 196.629 28.2146C196.814 27.689 197.131 27.2135 197.552 26.8285C197.628 26.7704 197.724 26.7423 197.821 26.7504C197.917 26.7584 198.007 26.8019 198.07 26.8715C198.135 26.9369 198.171 27.0229 198.171 27.1124C198.171 27.2018 198.135 27.2879 198.07 27.3532C197.748 27.6665 197.508 28.0464 197.367 28.4628C197.227 28.8793 197.19 29.3209 197.261 29.7528C197.256 29.8067 197.237 29.8585 197.205 29.9035C197.173 29.9486 197.13 29.9855 197.079 30.0109Z" fill="#263238"/>
<path d="M216.926 23.9041C217.636 23.7235 220.654 28.755 220.654 28.755C220.654 28.755 222.363 26.0371 221.027 21.1862C218.39 11.622 215.826 10.6157 212.844 10.6157C207.389 10.6157 204.853 17.9609 204.853 17.9609C206.444 16.5933 209.099 17.1008 209.471 19.1822C209.999 22.0291 213.653 24.833 216.435 25.2028C216.454 25.1684 215.881 24.1363 216.926 23.9041Z" fill="#263238"/>
<path d="M221.681 22.0463C221.809 22.946 221.746 23.8606 221.498 24.7374C221.25 25.6142 220.821 26.436 220.236 27.1552C218.663 29.0732 216.354 28.0841 215.508 25.9253C214.781 23.9987 214.663 20.6358 216.881 19.509C219.099 18.3823 221.345 19.8187 221.681 22.0463Z" fill="#E4897B"/>
<path d="M207.544 16.3354C207.544 16.3354 204.816 20.8681 203.816 21.3239C202.816 21.7798 203.007 19.6554 203.007 19.6554C203.007 19.6554 199.48 23.8182 198.152 23.6462C196.825 23.4742 197.298 20.9799 197.298 20.9799C197.298 20.9799 193.597 26.9403 192.152 27.0005C190.706 27.0607 190.333 22.3216 193.061 18.348C193.061 18.348 191.243 21.5218 190.015 20.8423C188.788 20.1628 191.67 13.5831 197.289 11.4329C197.289 11.4329 196.534 11.4329 196.434 10.074C196.334 8.71503 203.189 5.87674 208.635 7.80334C208.635 7.80334 206.771 5.98855 209.408 5.53271C212.044 5.07686 214.317 8.59462 214.317 8.59462C214.317 8.59462 214.199 6.87444 215.881 7.23568C217.563 7.59692 221.336 12.3962 220.108 18.1502L207.544 16.3354Z" fill="#263238"/>
<path opacity="0.3" d="M220.963 32.6084C220.923 33.0009 220.863 33.3914 220.781 33.7781C220.408 35.7571 219.358 37.5654 217.792 38.925C216.227 40.2846 214.233 41.1204 212.117 41.3039C209.382 41.5898 206.635 40.8794 204.435 39.3171C204.117 39.1056 203.813 38.8758 203.525 38.629C202.93 38.1001 202.362 37.5432 201.825 36.9604C204.646 36.6027 207.286 35.4452 209.399 33.6405C211.917 31.5591 215.69 27.551 213.19 23.6462C211.872 21.5992 215.181 24.8504 215.181 24.8504C215.181 24.8504 219.227 28.6348 220.963 32.6084Z" fill="black"/>
<path d="M236.664 44.7183C236.664 44.7183 268.485 78.8896 273.031 104.202L289.914 100.452C289.914 100.452 274.676 44.2022 250.193 33.5371H236.664V44.7183Z" fill="white"/>
<path opacity="0.6" d="M289.914 100.452L273.013 104.219C271.894 97.9148 269.085 91.0684 265.485 84.3425C262.624 79.0436 259.446 73.9034 255.966 68.947C250.076 60.4932 243.626 52.4007 236.655 44.7183V33.5371H250.184C274.676 44.185 289.914 100.452 289.914 100.452Z" fill="white"/>
<path d="M232.5 32.8147C232.5 32.8147 236.137 36.1089 236.664 44.7184H243.338C243.338 44.7184 242.374 35.1456 238.846 32.9437C237.519 32.118 232.5 32.8147 232.5 32.8147Z" fill="white"/>
<path opacity="0.4" d="M232.5 32.8147C232.5 32.8147 236.137 36.1089 236.664 44.7184H243.338C243.338 44.7184 242.374 35.1456 238.846 32.9437C237.519 32.118 232.5 32.8147 232.5 32.8147Z" fill="white"/>
<path d="M218.272 53.5945C218.272 53.5945 228.591 92.7801 225.354 114.721C225.354 114.721 222.936 85.6328 218.39 75.0881C218.39 75.0881 209.517 63.3307 208.089 53.13L215.054 44.1765C215.054 44.1765 215.854 49.9649 218.272 53.5945Z" fill="white"/>
<path opacity="0.6" d="M218.272 53.5945C218.272 53.5945 228.591 92.7801 225.354 114.721C225.354 114.721 222.936 85.6328 218.39 75.0881C218.39 75.0881 209.517 63.3307 208.089 53.13L215.054 44.1765C215.054 44.1765 215.854 49.9649 218.272 53.5945Z" fill="white"/>
<path d="M217.499 41.106C217.499 41.106 215.399 47.7975 218.272 53.5859L216.063 56.0801C214.837 53.5558 214.242 50.798 214.326 48.0211C214.326 42.8261 217.499 41.106 217.499 41.106Z" fill="white"/>
<path opacity="0.4" d="M217.499 41.106C217.499 41.106 215.399 47.7975 218.272 53.5859L216.063 56.0801C214.837 53.5558 214.242 50.798 214.326 48.0211C214.326 42.8261 217.499 41.106 217.499 41.106Z" fill="white"/>
<path d="M207.953 131.2C207.44 131.902 207.004 132.651 206.653 133.437L209.826 137.032C203.323 141.261 196.015 144.258 188.306 145.856C189.57 138.881 201.462 128.654 201.462 128.654L203.771 130.908C203.771 130.908 204.207 130.194 205.007 129.024C207.645 125.198 210.692 121.639 214.099 118.402C214.314 118.202 214.573 118.049 214.858 117.954C215.143 117.86 215.446 117.825 215.747 117.854C216.047 117.883 216.337 117.974 216.596 118.121C216.855 118.267 217.076 118.466 217.245 118.703C217.508 119.078 217.628 119.526 217.583 119.974C217.538 120.422 217.332 120.842 216.999 121.163C213.638 124.216 210.608 127.578 207.953 131.2Z" fill="#263238"/>
<path opacity="0.4" d="M209.826 137.032C203.323 141.261 196.015 144.258 188.306 145.856C189.57 138.881 201.462 128.655 201.462 128.655L203.771 130.908C203.771 130.908 204.207 130.194 205.007 129.024C205.255 129.602 205.657 130.109 206.173 130.496C206.689 130.884 207.302 131.138 207.953 131.235C207.44 131.936 207.004 132.686 206.653 133.471L209.826 137.032Z" fill="white"/>
<path opacity="0.2" d="M209.826 137.032C203.323 141.261 196.015 144.258 188.306 145.856C189.57 138.881 201.462 128.655 201.462 128.655L203.771 130.908C203.771 130.908 201.498 133.488 201.043 135.681C203.102 135.45 205.052 134.685 206.68 133.471L209.826 137.032Z" fill="white"/>
<path d="M145.885 166.885H202.325C202.325 166.885 195.298 164.942 193.579 163.058C191.861 161.174 185.751 161.888 183.96 161.871C182.169 161.854 178.56 163.548 176.405 162.525C174.251 161.501 166.868 153.984 162.05 151.619C157.231 149.254 154.676 157.184 152.158 158.749C149.64 160.314 145.885 166.885 145.885 166.885Z" fill="#A24E3F"/>
<path d="M133.147 169.474C133.147 169.474 147.103 162.697 151.331 162.525C155.558 162.353 161.331 165.346 162.759 165.638C164.186 165.931 174.632 165.002 176.787 164.357C178.942 163.712 186.133 165.509 188.297 165.217C190.461 164.924 196.87 160.804 199.052 160.142C201.234 159.48 217.972 168.046 219.963 168.528C221.954 169.01 226.791 169.577 226.791 169.577C226.791 169.577 210.426 170.532 208.089 170.532C205.753 170.532 203.071 172.915 193.616 172.407C184.16 171.9 180.033 172.889 175.542 172.476C171.05 172.063 169.968 170.876 164.932 170.876C159.895 170.876 153.24 172.407 149.821 171.048C146.403 169.689 133.147 169.474 133.147 169.474Z" fill="#A24E3F"/>
<path d="M174.141 143.577C174.405 143.68 174.596 143.964 174.887 144.016C174.996 144.016 175.123 144.016 175.241 144.016C175.343 144.039 175.437 144.086 175.514 144.152C175.592 144.218 175.651 144.301 175.687 144.394C175.742 144.589 175.742 144.793 175.687 144.988C176.051 144.91 176.332 144.988 176.532 144.687C176.733 144.386 176.769 144.127 177.178 144.076C177.314 144.059 177.451 144.059 177.587 144.076C178.026 144.1 178.439 144.281 178.742 144.583C178.841 144.764 178.96 144.934 179.096 145.091C179.424 145.349 179.924 145.151 180.351 145.203C180.54 145.239 180.719 145.313 180.876 145.42C181.033 145.527 181.164 145.664 181.26 145.822C181.461 146.102 181.597 146.418 181.66 146.751V147.465C181.679 147.756 181.635 148.049 181.533 148.325C181.424 148.566 181.251 149.073 181.715 149.116C181.869 149.116 182.042 149.073 182.142 149.176C182.242 149.279 182.197 149.357 182.233 149.443C182.269 149.529 182.424 149.632 182.515 149.727C182.594 149.803 182.656 149.894 182.697 149.993C182.958 150.622 182.99 151.315 182.787 151.963C182.603 152.379 182.463 152.811 182.369 153.253V155.171C182.301 156.125 182.301 157.082 182.369 158.035C182.415 158.26 182.415 158.49 182.369 158.715C182.348 158.792 182.311 158.865 182.259 158.929C182.208 158.992 182.143 159.045 182.069 159.084C181.951 159.162 181.787 159.084 181.769 159.308C181.77 159.433 181.788 159.557 181.824 159.678C181.869 159.945 181.751 160.34 181.533 159.988C181.46 159.765 181.435 159.531 181.46 159.299C181.46 158.801 181.46 158.302 181.46 157.803C181.46 157.304 181.36 156.883 181.296 156.435C181.287 156.283 181.23 156.136 181.133 156.014C180.724 155.61 180.169 156.521 180.178 156.874C180.215 157.229 180.215 157.586 180.178 157.941C179.898 159.258 179.858 160.61 180.06 161.94C180.06 162.121 180.124 162.336 179.969 162.447C179.892 162.49 179.804 162.511 179.715 162.508C179.632 162.527 179.546 162.529 179.462 162.513C179.379 162.496 179.3 162.462 179.233 162.413C179.155 162.311 179.116 162.186 179.124 162.06C179.18 161.488 179.18 160.912 179.124 160.34C179.113 160.268 179.089 160.198 179.051 160.134C179.005 160.082 178.933 160.048 178.878 159.996C178.81 159.908 178.762 159.808 178.738 159.701C178.715 159.594 178.716 159.483 178.742 159.377C178.76 158.545 178.705 157.714 178.578 156.891C178.571 156.707 178.524 156.525 178.442 156.358C178.404 156.274 178.342 156.202 178.264 156.148C178.185 156.095 178.093 156.064 177.996 156.057C177.551 156.057 177.669 156.53 177.687 156.788C177.71 156.928 177.71 157.07 177.687 157.209C177.668 157.277 177.63 157.338 177.577 157.386C177.524 157.434 177.459 157.469 177.387 157.485C177.34 157.501 177.289 157.501 177.242 157.485C177.206 157.451 177.179 157.411 177.164 157.366C177.148 157.321 177.143 157.273 177.151 157.227V156.917C177.16 156.877 177.16 156.836 177.151 156.797C177.078 156.676 176.878 156.719 176.742 156.668C176.605 156.616 176.487 155.876 176.432 155.67C176.323 155.257 176.251 154.81 176.178 154.414C176.112 153.687 175.963 152.969 175.732 152.273C175.505 151.756 175.387 151.206 175.114 150.716C175.037 150.591 174.976 150.459 174.932 150.32C174.942 150.148 174.942 149.976 174.932 149.804C174.878 149.606 174.723 149.451 174.696 149.262C174.707 149.023 174.792 148.793 174.941 148.6C175.069 148.335 175.108 148.039 175.055 147.752C175.001 147.465 174.857 147.2 174.641 146.992C174.432 146.794 174.16 146.725 173.95 146.527C173.755 146.285 173.529 146.065 173.278 145.873C172.914 145.641 172.369 145.641 172.178 145.254C172.25 145.375 172.432 145.254 172.469 145.117C172.505 144.979 172.559 144.816 172.696 144.824L172.814 144.867C172.984 144.946 173.178 144.961 173.36 144.91C173.276 144.835 173.215 144.741 173.181 144.637C173.148 144.533 173.143 144.423 173.169 144.317C173.22 144.103 173.337 143.908 173.505 143.758C173.577 143.674 173.669 143.607 173.773 143.563C173.877 143.518 173.991 143.496 174.105 143.5L174.141 143.577Z" fill="#A24E3F"/>
<path opacity="0.2" d="M265.485 84.3255C262.623 79.0324 259.445 73.8979 255.966 68.9471L263.284 50.9282C263.284 50.9282 267.603 68.0526 265.485 84.3255Z" fill="black"/>
<path d="M261.493 65.2572C261.493 65.2572 261.921 83.4825 259.457 88.3592C256.993 93.2359 223.7 119.142 223.7 119.142C223.7 119.142 222.854 124.965 221.472 125.937C220.09 126.908 211.935 128.62 211.09 128.62C210.244 128.62 209.599 117.731 210.381 116.794C211.162 115.856 218.399 113.62 219.599 113.62C219.599 113.62 249.329 85.3833 249.329 83.0611C249.329 80.7389 250.047 62.3416 250.047 62.3416L261.493 65.2572Z" fill="#E4897B"/>
<path d="M248.438 68.9729C248.438 68.9729 246.183 41.0028 247.792 35.6703C249.402 30.3377 260.102 36.1691 263.385 45.4237C266.667 54.6782 262.475 73.1185 262.475 73.1185L248.438 68.9729Z" fill="white"/>
<path opacity="0.4" d="M248.438 68.9729C248.438 68.9729 246.183 41.0028 247.792 35.6703C249.402 30.3377 260.102 36.1691 263.385 45.4237C266.667 54.6782 262.475 73.1185 262.475 73.1185L248.438 68.9729Z" fill="white"/>
<path d="M247.147 66.8484L247.829 70.6586L263.412 75.1999L264.785 70.6328L247.147 66.8484Z" fill="white"/>
<path opacity="0.6" d="M247.147 66.8484L247.829 70.6586L263.412 75.1999L264.785 70.6328L247.147 66.8484Z" fill="white"/>
<path opacity="0.1" d="M143.921 87.4735C143.921 87.4735 143.103 82.6914 151.34 82.9838C151.34 82.9838 150.203 89.4689 143.921 87.4735Z" fill="#198B34"/>
<path opacity="0.1" d="M137.093 86.751C137.366 86.1079 137.461 85.4099 137.37 84.7225C137.28 84.035 137.006 83.3806 136.575 82.8204C135.102 80.6616 131.12 79.7671 131.12 79.7671C131.12 79.7671 130.756 84.5922 132.32 86.3726C133.884 88.1529 137.093 86.751 137.093 86.751Z" fill="#1E8D3A"/>
<path opacity="0.3" d="M145.785 85.8307C145.709 85.7434 145.599 85.6881 145.48 85.6768C145.361 85.6655 145.242 85.6992 145.148 85.7705C144.48 86.2814 143.87 86.858 143.33 87.4907C142.771 88.1072 142.289 88.7825 141.894 89.5033C141.518 90.1905 141.213 90.9106 140.984 91.6535C140.748 91.1546 140.494 90.6644 140.221 90.1827C139.156 88.2116 137.692 86.4581 135.911 85.0222C135.821 84.9559 135.708 84.9237 135.594 84.9316C135.479 84.9395 135.372 84.9871 135.293 85.0652C135.25 85.1038 135.215 85.1505 135.191 85.2022C135.168 85.254 135.155 85.3098 135.155 85.3662C135.155 85.4227 135.168 85.4785 135.191 85.5303C135.215 85.582 135.25 85.6287 135.293 85.6673C136.867 87.1032 138.13 88.815 139.012 90.7074C139.93 92.5817 140.569 94.5673 140.912 96.6076C141.242 98.6327 141.263 100.692 140.975 102.723C140.826 103.724 140.598 104.713 140.294 105.682C140.013 106.616 139.632 107.521 139.157 108.382V108.451C139.152 108.471 139.152 108.491 139.157 108.511C139.014 108.799 138.997 109.128 139.11 109.427C139.223 109.727 139.458 109.971 139.762 110.107C140.065 110.242 140.414 110.258 140.73 110.151C141.046 110.044 141.305 109.822 141.448 109.535C141.962 108.482 142.355 107.381 142.621 106.249C142.889 105.157 143.068 104.047 143.157 102.929C143.332 100.714 143.167 98.4859 142.666 96.3152C142.48 95.515 142.246 94.7253 141.966 93.9499C141.988 93.3096 142.076 92.6729 142.23 92.0491C142.403 91.3294 142.656 90.6288 142.985 89.9591C143.306 89.2841 143.709 88.6464 144.185 88.0583C144.658 87.4659 145.194 86.9212 145.785 86.4328C145.868 86.3524 145.915 86.2443 145.915 86.1317C145.915 86.0192 145.868 85.9111 145.785 85.8307Z" fill="#7C3B29"/>
<path d="M146.33 120.785C144.176 120.957 140.421 119.004 139.712 118.54C139.003 118.075 138.093 115.031 138.093 115.031C138.093 115.031 119.001 102.129 116.274 98.3879L115.955 97.9406C112.11 92.2382 107.773 76.9287 106.927 73.8581C106.837 73.5141 106.782 73.3249 106.782 73.3249C106.782 73.3249 107.1 62.5308 112.128 62.8576C116.892 63.1672 119.21 86.381 124.147 93.494C125.729 95.7732 143.003 111.84 144.039 112.906C145.076 113.973 152.422 114.824 153.131 115.839C153.84 116.854 148.476 120.621 146.33 120.785Z" fill="#B97964"/>
<path opacity="0.2" d="M115.955 97.9406C112.11 92.2382 107.773 76.9286 106.927 73.8581L112.892 64.1477C112.892 64.1477 118.292 84.4888 115.955 97.9406Z" fill="black"/>
<path d="M79.589 57.4483C78.8435 57.4483 78.1253 57.3623 77.398 57.2763C69.9065 56.3732 78.1708 41.2442 95.4266 30.4759C109.882 21.4622 122.82 20.4817 127.929 24.7821C128.915 25.591 129.63 26.6554 129.984 27.844C132.129 35.086 103.027 58.6266 79.589 57.4483Z" fill="#EB996E"/>
<path opacity="0.2" d="M98.0268 36.3584C102.618 33.2621 110.237 28.0242 119.201 29.0735C128.165 30.1228 115.564 42.7833 102.291 49.1909C89.017 55.5986 85.2986 54.8675 84.6712 53.0613C83.6166 49.9822 91.4081 40.8567 98.0268 36.3584Z" fill="black"/>
<path d="M90.3171 45.4065C90.3171 45.4065 88.3442 48.95 90.3171 54.2912C90.3171 54.2912 83.5166 55.7361 82.3528 62.032C81.1891 68.3278 91.299 68.13 94.872 67.0291C98.445 65.9282 93.9628 55.0911 93.9628 55.0911C93.9628 55.0911 100.091 51.3669 101.3 47.9007C102.509 44.4346 90.3171 45.4065 90.3171 45.4065Z" fill="#263238"/>
<path d="M102.127 119.598C97.8267 128.147 65.4334 130.383 62.9332 124.311C60.433 118.239 77.607 96.4011 78.3252 86.4154C79.0435 76.4298 108.809 68.9814 108.809 68.9814C108.809 68.9814 114.137 95.7302 102.127 119.598Z" fill="white"/>
<path opacity="0.4" d="M102.127 119.598C97.8267 128.147 65.4334 130.383 62.9332 124.311C60.433 118.239 77.607 96.4011 78.3252 86.4154C79.0435 76.4298 108.809 68.9814 108.809 68.9814C108.809 68.9814 114.137 95.7302 102.127 119.598Z" fill="white"/>
<path d="M65.6515 154.689L79.8617 154.526L79.1798 161.776L61.2512 159.394L65.6515 154.689Z" fill="#B97964"/>
<path opacity="0.2" d="M65.6515 154.689L79.8617 154.526L79.1798 161.776L61.2512 159.394L65.6515 154.689Z" fill="black"/>
<path d="M69.1336 154.19C69.6155 154.612 63.906 160.065 63.906 160.065C63.906 160.065 56.8145 160.469 52.7779 163.213C48.7412 165.956 48.323 162.224 51.8687 158.362L60.6603 148.824C63.2241 146.08 64.1333 149.83 69.1336 154.19Z" fill="#263238"/>
<path opacity="0.2" d="M69.1336 154.19C69.6155 154.612 63.906 160.065 63.906 160.065C63.906 160.065 56.8145 160.469 52.7779 163.213C48.7412 165.956 48.323 162.224 51.8687 158.362L60.6603 148.824C63.2241 146.08 64.1333 149.83 69.1336 154.19Z" fill="black"/>
<path d="M93.9928 110.267L95.2656 118.008C95.2656 118.008 130.723 144.077 132.996 158.638C135.269 173.2 121.013 172.907 75.5551 169.467L74.1186 155.585L91.1744 153.357C91.1744 153.357 62.9905 142.856 67.1453 124.587C70.9729 107.747 93.9928 110.267 93.9928 110.267Z" fill="#455A64"/>
<path opacity="0.2" d="M93.9928 110.267L95.2656 118.008C95.2656 118.008 130.723 144.077 132.996 158.638C135.269 173.2 121.013 172.907 75.5551 169.467L74.1186 155.585L91.1744 153.357C91.1744 153.357 62.9905 142.856 67.1453 124.587C70.9729 107.747 93.9928 110.267 93.9928 110.267Z" fill="#455A64"/>
<path d="M53.8598 159.592L68.07 159.428L67.3881 166.679L49.4595 164.305L53.8598 159.592Z" fill="#B97964"/>
<path d="M57.3419 159.102C57.8237 159.523 52.1142 164.976 52.1142 164.976C52.1142 164.976 45.0228 165.38 40.9861 168.124C36.9494 170.868 36.5312 167.135 40.077 163.273L48.8776 153.778C51.4051 150.991 52.3142 154.741 57.3419 159.102Z" fill="#263238"/>
<path d="M93.8992 108.339L66.2244 104.039C67.0699 104.168 72.4521 92.9006 73.6704 88.8926C75.3705 83.3536 76.6888 72.7573 75.4887 65.9024V65.8508C75.3737 65.1591 75.4106 64.4525 75.5973 63.7749C75.7841 63.0974 76.1165 62.4636 76.5738 61.9131C77.0311 61.3626 77.6036 60.9072 78.2553 60.5755C78.9071 60.2437 79.6242 60.0427 80.3618 59.985C82.571 59.8216 84.7803 59.7442 87.0077 59.7356C91.4026 59.6868 95.7956 59.9311 100.154 60.4667C105.755 61.3268 112.091 62.9093 112.091 62.9093C112.091 62.9093 113.001 63.262 112.564 68.9299C112.201 74.3055 110.073 91.7653 93.8992 108.339Z" fill="#263238"/>
<path d="M104.255 55.1857C104.255 55.1857 100.691 57.3617 100.081 58.8066C100.043 58.8958 100.013 58.9879 99.9906 59.0819C99.8142 59.9024 99.6928 60.7326 99.6269 61.5675C100.663 64.4488 96.7631 66.1002 96.7631 66.1002C89.8171 64.1306 88.1897 60.9397 88.1897 60.9397C93.9083 58.8238 94.9993 48.4512 94.9993 48.4512L97.7722 50.4724L104.255 55.1857Z" fill="#B97964"/>
<path opacity="0.2" d="M104.254 55.1857C104.254 55.1857 100.691 57.3617 100.081 58.8067C100.043 58.8959 100.013 58.9879 99.9905 59.0819C98.4819 57.9906 97.2788 56.5663 96.4864 54.9335C95.694 53.3008 95.3363 51.5093 95.4447 49.7156L97.7631 50.4552L104.254 55.1857Z" fill="black"/>
<path d="M108.218 30.8709C108.218 30.8709 115.419 28.9615 118.91 34.466C122.401 39.9706 119.61 44.142 117.192 46.1288" stroke="#263238" stroke-width="0.488465" stroke-linecap="round" stroke-linejoin="round"/>
<path d="M111.091 30.5699C111.091 30.5699 116.965 30.7419 118.583 35.438C120.201 40.1341 119.001 45.4064 110.282 51.083C106.018 53.8611 95.4265 48.4339 95.4265 48.4339L94.581 50.8594C93.1656 49.8895 91.8803 48.7603 90.7535 47.4965C87.3259 43.6949 88.2078 31.1032 97.7176 28.6347C107.655 26.063 111.091 30.5699 111.091 30.5699Z" fill="#263238"/>
<path d="M105.482 32.1437C112.955 33.107 114.81 37.1925 114.31 44.5462C113.682 53.7234 110.619 59.916 101.582 56.7681C89.2716 52.4935 93.09 30.544 105.482 32.1437Z" fill="#B97964"/>
<path d="M109.537 43.5229C109.984 44.6547 110.573 45.7318 111.291 46.7311C111.032 46.996 110.7 47.1876 110.333 47.2848C109.965 47.382 109.576 47.3809 109.209 47.2815L109.537 43.5229Z" fill="#A24E3F"/>
<path d="M105.045 42.3616C104.973 42.9379 104.582 43.3766 104.136 43.3336C103.691 43.2905 103.454 42.7831 103.518 42.1982C103.582 41.6134 103.982 41.1833 104.427 41.2264C104.873 41.2694 105.118 41.7768 105.045 42.3616Z" fill="#263238"/>
<path d="M104.264 41.235L105.655 40.8823C105.655 40.8823 104.864 41.88 104.264 41.235Z" fill="#263238"/>
<path d="M112.719 43.0498C112.646 43.6346 112.255 44.0733 111.81 44.0303C111.364 43.9873 111.128 43.4798 111.191 42.8949C111.255 42.3101 111.655 41.8715 112.101 41.9231C112.546 41.9747 112.782 42.4735 112.719 43.0498Z" fill="#263238"/>
<path d="M111.928 41.9662L113.319 41.6135C113.319 41.6135 112.528 42.5682 111.928 41.9662Z" fill="#263238"/>
<path d="M105.682 37.4764C105.102 37.3307 104.495 37.313 103.907 37.4249C103.319 37.5367 102.766 37.7751 102.291 38.1215" stroke="#263238" stroke-width="0.707962" stroke-linecap="round" stroke-linejoin="round"/>
<path d="M111.146 37.8721C111.673 37.8153 112.208 37.8725 112.708 38.0394C113.209 38.2062 113.664 38.4784 114.037 38.8354" stroke="#263238" stroke-width="0.707962" stroke-linecap="round" stroke-linejoin="round"/>
<path d="M95.6083 42.9896C95.6083 42.9896 99.9359 37.6398 100.054 33.09C100.054 33.09 115.673 29.2798 114.355 43.5831C114.355 43.5831 117.619 31.1548 104.827 29.2196C92.0353 27.2844 89.0806 43.9529 94.9537 50.1025C94.9537 50.1025 92.9263 46.3439 95.6083 42.9896Z" fill="#263238"/>
<path d="M96.6176 44.6409C96.6622 43.8145 96.3592 43.0051 95.7749 42.3894C95.1906 41.7738 94.3724 41.402 93.4992 41.3554C91.1535 41.2951 89.3988 45.6558 94.9993 47.4706C95.8084 47.7286 96.3812 47.0233 96.6176 44.6409Z" fill="#B97964"/>
<path d="M108.809 49.3887C108.49 50.2297 108.238 51.0922 108.055 51.9689H107.555C105.3 51.8657 104.291 51.1088 103.854 50.3175C103.65 49.9213 103.548 49.4853 103.554 49.0446C103.553 48.7949 103.586 48.5461 103.654 48.3049C105.019 48.9477 106.513 49.3083 108.037 49.3629C108.509 49.3887 108.809 49.3887 108.809 49.3887Z" fill="#263238"/>
<path d="M108.037 49.3457L107.791 50.1026C105.673 49.9994 104.154 49.664 103.554 49.0275C103.553 48.7778 103.586 48.529 103.654 48.2878C105.019 48.9306 106.513 49.2912 108.037 49.3457Z" fill="white"/>
<path d="M108.037 49.3457L107.791 50.1026C105.673 49.9994 104.154 49.664 103.554 49.0275C103.553 48.7778 103.586 48.529 103.654 48.2878C105.019 48.9306 106.513 49.2912 108.037 49.3457Z" fill="white"/>
<path d="M107.555 51.9516C105.3 51.8484 104.291 51.0916 103.854 50.3003C104.711 50.3523 105.552 50.5474 106.336 50.8765C106.854 51.1025 107.281 51.4793 107.555 51.9516Z" fill="#DE5753"/>
<path d="M66.2244 104.021C53.4962 121.12 56.1328 138.907 90.8717 153.391L63.4697 157.596L64.1879 166.997C64.1879 166.997 91.2717 169.577 113.282 169.577C122.847 169.577 127.529 154.156 114.983 140.859C102.436 127.562 86.4714 118.514 86.4714 118.514C90.9172 115.512 93.8992 108.313 93.8992 108.313L66.2244 104.021Z" fill="#455A64"/>
<path d="M87.0441 59.2625C89.0964 73.2643 87.7025 87.5254 82.9711 100.934C75.0978 122.531 57.3692 143.25 57.3692 143.25C57.3692 143.25 52.196 119.168 65.4334 103.566C65.4334 103.566 75.0796 86.4671 74.3886 67.1667C74.025 57.181 87.0441 59.2625 87.0441 59.2625Z" fill="white"/>
<path opacity="0.6" d="M82.9802 100.934C75.0978 122.531 57.3692 143.259 57.3692 143.259C57.3692 143.259 52.187 119.176 65.4334 103.566C69.5249 95.7313 72.3038 87.3427 73.6704 78.7005C74.2685 74.8834 74.5088 71.0238 74.3886 67.1667C74.3377 66.1598 74.4605 65.1517 74.7523 64.1822C76.8525 57.6283 87.0441 59.2625 87.0441 59.2625C89.0967 73.2637 87.706 87.5242 82.9802 100.934Z" fill="white"/>
<path d="M102.836 60.7332C102.836 60.7332 109.046 72.697 107.555 91.834C106.064 110.971 102.1 119.598 102.1 119.598C102.1 119.598 118.565 98.6115 112.673 63.0468L102.836 60.7332Z" fill="white"/>
<path opacity="0.6" d="M102.836 60.7332C102.836 60.7332 109.046 72.697 107.555 91.834C106.064 110.971 102.1 119.598 102.1 119.598C102.1 119.598 118.565 98.6115 112.673 63.0468L102.836 60.7332Z" fill="white"/>
<path d="M106.782 27.8433C106.782 27.8433 96.2812 22.2528 91.2718 23.1558C86.2623 24.0589 88.1897 27.2155 88.1897 27.2155C87.8118 27.1938 87.4333 27.2469 87.0782 27.3712C86.7232 27.4955 86.3993 27.6884 86.1274 27.9376C85.8554 28.1868 85.6413 28.4868 85.4986 28.8185C85.3559 29.1503 85.2878 29.5065 85.2986 29.8645C85.1804 32.634 87.9624 39.9018 87.9624 39.9018L106.782 27.8433Z" fill="#EB996E"/>
<path opacity="0.2" d="M106.782 27.8433C106.782 27.8433 96.2812 22.2528 91.2718 23.1558C86.2623 24.0589 88.1897 27.2155 88.1897 27.2155C87.8118 27.1938 87.4333 27.2469 87.0782 27.3712C86.7232 27.4955 86.3993 27.6884 86.1274 27.9376C85.8554 28.1868 85.6413 28.4868 85.4986 28.8185C85.3559 29.1503 85.2878 29.5065 85.2986 29.8645C85.1804 32.634 87.9624 39.9018 87.9624 39.9018L106.782 27.8433Z" fill="#FFBE9D"/>
<path d="M127.929 24.7643L126.347 27.8262C126.347 27.8262 112.264 27.0866 99.736 35.1886C92.1639 40.1276 85.9486 46.7064 81.6074 54.3772L79.589 57.4477C78.8435 57.4477 78.1253 57.3617 77.398 57.2757C69.9065 56.3726 78.1708 41.2436 95.4266 30.4753C109.882 21.4616 122.82 20.4639 127.929 24.7643Z" fill="#EB996E"/>
<path d="M143.921 87.4735C143.921 87.4735 143.103 82.6914 151.34 82.9838C151.34 82.9838 150.203 89.4689 143.921 87.4735Z" fill="#1E8D3A"/>
<path d="M145.785 85.8307C145.709 85.7434 145.599 85.6881 145.48 85.6768C145.361 85.6655 145.242 85.6992 145.148 85.7705C144.48 86.2814 143.87 86.858 143.33 87.4907C142.771 88.1072 142.289 88.7825 141.894 89.5033C141.518 90.1905 141.213 90.9106 140.984 91.6535C140.748 91.1546 140.494 90.6644 140.221 90.1827C139.156 88.2116 137.692 86.4581 135.911 85.0222C135.821 84.9559 135.708 84.9237 135.594 84.9316C135.479 84.9395 135.372 84.9871 135.293 85.0652C135.25 85.1038 135.215 85.1505 135.191 85.2022C135.168 85.254 135.155 85.3098 135.155 85.3662C135.155 85.4227 135.168 85.4785 135.191 85.5303C135.215 85.582 135.25 85.6287 135.293 85.6673C136.867 87.1032 138.13 88.815 139.012 90.7074C139.93 92.5817 140.569 94.5673 140.912 96.6076C141.242 98.6327 141.263 100.692 140.975 102.723C140.826 103.724 140.598 104.713 140.294 105.682C140.013 106.616 139.632 107.521 139.157 108.382V108.451C139.152 108.471 139.152 108.491 139.157 108.511C139.014 108.799 138.997 109.128 139.11 109.427C139.223 109.727 139.458 109.971 139.762 110.107C140.065 110.242 140.414 110.258 140.73 110.151C141.046 110.044 141.305 109.822 141.448 109.535C141.962 108.482 142.355 107.381 142.621 106.249C142.889 105.157 143.068 104.047 143.157 102.929C143.332 100.714 143.167 98.4859 142.666 96.3152C142.48 95.515 142.246 94.7253 141.966 93.9499C141.988 93.3096 142.076 92.6729 142.23 92.0491C142.403 91.3294 142.656 90.6288 142.985 89.9591C143.306 89.2841 143.709 88.6464 144.185 88.0583C144.658 87.4659 145.194 86.9212 145.785 86.4328C145.868 86.3524 145.915 86.2443 145.915 86.1317C145.915 86.0192 145.868 85.9111 145.785 85.8307Z" fill="#7C3B29"/>
<path d="M127.42 115.934C128.034 115.032 128.712 114.17 129.447 113.353C130.863 111.779 132.543 110.437 134.42 109.38L136.066 108.416L136.639 108.081C137.511 107.608 138.335 107.061 139.103 106.447C139.83 105.845 140.566 105.079 141.53 105.079C143.203 105.079 144.003 106.344 145.003 107.445C145.924 108.622 147.035 109.655 148.294 110.507C150.113 111.496 153.213 115.168 153.131 115.839C153.049 116.51 145.049 121.954 138.393 120.793C134.355 120.094 130.575 118.42 127.42 115.934Z" fill="#A24E3F"/>
<path opacity="0.2" d="M81.4074 81.5302C78.5826 81.4304 75.8733 80.4439 73.7068 78.7263C74.3048 74.9092 74.5452 71.0496 74.425 67.1925C74.3741 66.1856 74.4969 65.1776 74.7887 64.208C78.0344 68.431 87.7715 81.7022 81.4074 81.5302Z" fill="black"/>
<path d="M78.7526 60.7419C83.4348 60.3549 92.9719 89.1851 96.554 92.3416C100.136 95.4981 130.438 114.704 130.438 114.704C131.866 114.582 133.302 114.582 134.73 114.704C136.402 114.936 144.039 116.975 144.039 116.975C144.039 116.975 141.175 121.765 138.312 122.754C135.448 123.743 127.774 120.785 126.865 118.299C126.865 118.299 96.7995 103.893 90.2353 99.8071C83.6712 95.7217 76.6889 76.3267 74.9342 70.6759C73.1795 65.0252 75.9524 60.9655 78.7526 60.7419Z" fill="#B97964"/>
<path d="M137.093 86.751C137.366 86.1079 137.461 85.4099 137.37 84.7225C137.28 84.035 137.006 83.3806 136.575 82.8204C135.102 80.6616 131.12 79.7671 131.12 79.7671C131.12 79.7671 130.756 84.5922 132.32 86.3726C133.884 88.1529 137.093 86.751 137.093 86.751Z" fill="#198B34"/>
<path d="M205.376 37.1784C206.602 38.3112 207.734 39.5294 208.762 40.8226L209.598 40.4475C213.28 38.5876 214.342 36.5954 214.42 34.9769C214.434 34.1773 214.247 33.3887 213.873 32.6747C213.67 32.2659 213.409 31.8852 213.096 31.5428C211.345 33.6155 209.146 35.3246 206.646 36.5566C205.877 36.9534 205.376 37.1784 205.376 37.1784Z" fill="#263238"/>
<path d="M205.168 37.078L206.343 38.0521C209.948 36.5778 211.271 35.0722 211.916 33.7205C211.916 33.7205 211.915 33.4374 211.648 33.1087C209.682 34.945 207.773 36.048 205.168 37.078Z" fill="white"/>
<path d="M208.707 40.3699C208.25 42.2896 213.8 37.3838 213.495 38.2017C213.495 38.2017 212.296 37.0971 211.46 37.7722C211.46 37.7722 209.163 38.4498 208.707 40.3699Z" fill="#DE5753"/>
</svg>
